<svg height="512pt" viewBox="-27 0 512 512" width="512pt" xmlns="http://www.w3.org/2000/svg"><path d="m215 492c0 11.046875-8.953125 20-20 20h-115c-44.113281 0-80-35.886719-80-80v-352c0-44.113281 35.886719-80 80-80h245.890625c44.109375 0 80 35.886719 80 80v212c0 11.046875-8.957031 20-20 20-11.046875 0-20-8.953125-20-20v-212c0-22.054688-17.945313-40-40-40h-245.890625c-22.054688 0-40 17.945312-40 40v352c0 22.054688 17.945312 40 40 40h115c11.046875 0 20 8.953125 20 20zm235.640625-166.261719c-8.980469-6.429687-21.472656-4.359375-27.902344 4.617188l-98.582031 137.703125c-2.691406 3.121094-6.066406 3.792968-7.871094 3.914062-1.867187.121094-5.476562-.113281-8.574218-3.0625l-63.820313-61.28125c-7.964844-7.648437-20.625-7.394531-28.277344.574219-7.652343 7.96875-7.394531 20.628906.574219 28.277344l63.882812 61.34375c9.570313 9.105469 22.339844 14.175781 35.480469 14.175781 1.128907 0 2.261719-.039062 3.394531-.113281 14.3125-.953125 27.675782-7.914063 36.664063-19.101563.230469-.285156.457031-.582031.671875-.882812l98.980469-138.261719c6.429687-8.980469 4.363281-21.472656-4.621094-27.902344zm-144.75-205.738281h-206c-11.046875 0-20 8.953125-20 20s8.953125 20 20 20h206c11.042969 0 20-8.953125 20-20s-8.957031-20-20-20zm20 100c0-11.046875-8.957031-20-20-20h-206c-11.046875 0-20 8.953125-20 20s8.953125 20 20 20h206c11.042969 0 20-8.953125 20-20zm-226 60c-11.046875 0-20 8.953125-20 20s8.953125 20 20 20h125.109375c11.046875 0 20-8.953125 20-20s-8.953125-20-20-20zm0 0"/></svg>