<?xml version="1.0" encoding="utf-8"?>
<!-- Generator: Adobe Illustrator 23.0.0, SVG Export Plug-In . SVG Version: 6.00 Build 0)  -->
<svg version="1.1" id="layer" xmlns="http://www.w3.org/2000/svg" xmlns:xlink="http://www.w3.org/1999/xlink" x="0px" y="0px"
	 viewBox="0 0 512 512" style="enable-background:new 0 0 512 512;" xml:space="preserve">
<path d="M242,492c0,11.05-8.95,20-20,20H107c-44.11,0-80-35.89-80-80V80c0-44.11,35.89-80,80-80h245.89c44.11,0,80,35.89,80,80v212
	c0,11.05-8.96,20-20,20c-11.05,0-20-8.95-20-20V80c0-22.05-17.95-40-40-40H107c-22.05,0-40,17.95-40,40v352c0,22.05,17.95,40,40,40
	h115C233.05,472,242,480.95,242,492z M477.64,325.74c-8.98-6.43-21.47-4.36-27.9,4.62l-98.58,137.7c-2.69,3.12-6.07,3.79-7.87,3.91
	c-1.87,0.12-5.48-0.11-8.57-3.06l-63.82-61.28c-7.96-7.65-20.63-7.39-28.28,0.57s-7.39,20.63,0.57,28.28l63.88,61.34
	c9.57,9.11,22.34,14.18,35.48,14.18c1.13,0,2.26-0.04,3.39-0.11c14.31-0.95,27.68-7.91,36.66-19.1c0.23-0.29,0.46-0.58,0.67-0.88
	l98.98-138.26C488.69,344.66,486.63,332.17,477.64,325.74z M332.89,120h-206c-11.05,0-20,8.95-20,20s8.95,20,20,20h206
	c11.04,0,20-8.95,20-20S343.93,120,332.89,120z M352.89,220c0-11.05-8.96-20-20-20h-206c-11.05,0-20,8.95-20,20s8.95,20,20,20h206
	C343.93,240,352.89,231.05,352.89,220z M126.89,280c-11.05,0-20,8.95-20,20s8.95,20,20,20H252c11.05,0,20-8.95,20-20s-8.95-20-20-20
	H126.89z"/>
</svg>
