<?xml version="1.0" encoding="utf-8"?>
<!-- Generator: Adobe Illustrator 23.0.0, SVG Export Plug-In . SVG Version: 6.00 Build 0)  -->
<svg version="1.1" id="layer" xmlns="http://www.w3.org/2000/svg" xmlns:xlink="http://www.w3.org/1999/xlink" x="0px" y="0px"
	 viewBox="0 0 128 128" style="enable-background:new 0 0 128 128;" xml:space="preserve">
<style type="text/css">
	.st0{fill:#003366;}
</style>
<path class="st0" d="M113.5,45.8h-3.1V31c0-0.1,0-0.2,0-0.3c0-0.6-0.2-1.2-0.6-1.6L85.1,0.9c0,0,0,0,0,0c-0.1-0.2-0.3-0.3-0.5-0.4
	c-0.1,0-0.1-0.1-0.2-0.1c-0.2-0.1-0.3-0.2-0.5-0.2c0,0-0.1,0-0.1,0C83.6,0,83.4,0,83.2,0H22.6c-2.8,0-5,2.3-5,5v40.8h-3.1
	c-4,0-7.2,3.2-7.2,7.2v37.3c0,4,3.2,7.2,7.2,7.2h3.1V123c0,2.8,2.3,5,5,5h82.8c2.8,0,5-2.3,5-5V97.4h3.1c4,0,7.2-3.2,7.2-7.2V53
	C120.7,49,117.5,45.8,113.5,45.8z M22.6,5h58.1v25.7c0,1.4,1.1,2.5,2.5,2.5h22.2v12.6H22.6C22.6,45.8,22.6,5,22.6,5z M82.8,69.6
	c0,11.4-6.9,18.3-17.1,18.3c-10.3,0-16.4-7.8-16.4-17.7C49.4,59.8,56,52,66.3,52C77,52,82.8,60,82.8,69.6z M15,87.2V53
	c2.9-0.5,6.7-0.7,10.6-0.7c6.6,0,10.9,1.2,14.2,3.7c3.6,2.7,5.9,7,5.9,13.1c0,6.7-2.4,11.3-5.8,14.1c-3.7,3-9.2,4.5-16.1,4.5
	C19.9,87.7,17,87.4,15,87.2z M105.4,121.6H22.6V97.4h82.8V121.6z M105.8,81.3c2.4,0,5-0.5,6.6-1.1l1.2,6.1c-1.4,0.7-4.7,1.5-8.9,1.5
	c-12,0-18.2-7.5-18.2-17.4c0-11.9,8.5-18.5,19-18.5c4.1,0,7.2,0.8,8.6,1.5l-1.6,6.2c-1.6-0.7-3.8-1.3-6.6-1.3
	c-6.2,0-11.1,3.8-11.1,11.5C94.6,77,98.8,81.3,105.8,81.3z"/>
<path class="st0" d="M37.4,69.4c0.1-7.2-4.2-11-10.9-11c-1.8,0-2.9,0.2-3.6,0.3v22.8c0.7,0.2,1.8,0.2,2.7,0.2
	C32.8,81.6,37.4,77.7,37.4,69.4z"/>
<path class="st0" d="M57.7,70c0,6.8,3.2,11.6,8.5,11.6c5.3,0,8.4-5.1,8.4-11.8c0-6.2-3-11.6-8.4-11.6C60.8,58.2,57.7,63.3,57.7,70z"
	/>
</svg>
