<?xml version="1.0" encoding="utf-8"?>
<!-- Generator: Adobe Illustrator 23.0.0, SVG Export Plug-In . SVG Version: 6.00 Build 0)  -->
<svg version="1.1" id="layer" xmlns="http://www.w3.org/2000/svg" xmlns:xlink="http://www.w3.org/1999/xlink" x="0px" y="0px"
	 viewBox="0 0 1000 1000" style="enable-background:new 0 0 1000 1000;" xml:space="preserve">
<style type="text/css">
	.st0{fill:#2C2F33;}
	.st1{fill:#3C92CA;}
</style>
<g>
	<g>
		<path class="st0" d="M657.28,411.47v49.98c0,11.22,8.98,20.2,20.2,20.2s20.2-8.98,20.2-20.2v-49.98c0-16.73-7.35-32.43-20.2-42.84
			c-38.35-31.42-79.15-54.27-98.33-64.26v-50.79c9.38-9.79,14.69-22.85,14.69-36.72v-73.03c0-47.33-38.56-85.88-85.88-85.88h-15.71
			c-47.33,0-85.88,38.56-85.88,85.88v73.03c0,13.87,5.3,26.93,14.69,36.72v50.59c-19.17,10-59.98,32.85-98.33,64.26
			c-12.85,10.6-20.2,26.12-20.2,42.84v49.98c0,11.22,8.98,20.2,20.2,20.2s20.2-8.98,20.2-20.2v-49.98c0-4.49,2.03-8.77,5.51-11.63
			c43.65-35.91,90.78-59.77,99.95-64.06c7.95-3.87,13.06-12.24,13.06-21.01v-70.38c0-6.73-3.47-13.06-8.98-16.73
			c-3.47-2.45-5.71-6.33-5.71-10.6v-73.03c0-25.09,20.4-45.49,45.49-45.49h15.71c25.09,0,45.49,20.4,45.49,45.49v73.03
			c0,4.28-2.03,8.16-5.71,10.6c-5.71,3.67-8.98,10-8.98,16.73v70.38c0,8.98,5.1,17.14,13.06,21.01c8.98,4.49,56.3,28.15,99.95,64.06
			C655.24,402.49,657.28,406.77,657.28,411.47z"/>
		<path class="st0" d="M850.06,687.88c-5.71,3.67-8.98,10-8.98,16.73V775c0,8.98,5.1,17.14,13.06,21.01
			c8.98,4.49,56.3,28.36,99.95,64.06c3.47,2.86,5.51,7.14,5.51,11.63v49.98c0,11.22,8.98,20.2,20.2,20.2
			c11.22,0,20.2-8.99,20.2-20.21v-49.98c0-16.73-7.35-32.43-20.2-42.84c-38.35-31.42-79.15-54.27-98.33-64.26V713.8
			c9.38-9.79,14.69-22.85,14.69-36.72v-73.03c0-47.33-38.56-85.88-85.88-85.88h-15.71c-47.33,0-85.88,38.56-85.88,85.88v73.03
			c0,13.87,5.3,26.93,14.69,36.72v50.79c-19.17,10-59.98,32.85-98.33,64.26c-12.85,10.6-20.2,26.31-20.2,42.84v49.98
			c0,11.22,8.98,20.2,20.2,20.2s20.2-8.98,20.2-20.2v-49.98c0-4.49,2.03-8.77,5.51-11.63c43.65-35.91,90.78-59.77,99.95-64.06
			c7.95-3.87,13.06-12.24,13.06-21.01V704.6c0-6.73-3.47-13.06-8.98-16.73c-3.47-2.45-5.71-6.33-5.71-10.6v-73.03
			c0-25.09,20.4-45.49,45.49-45.49h15.71c25.09,0,45.49,20.4,45.49,45.49v73.03C855.77,681.56,853.73,685.43,850.06,687.88z"/>
		<path class="st0" d="M354.76,871.88v49.98c0,11.22,8.98,20.2,20.2,20.2s20.2-8.98,20.2-20.2v-49.98c0-16.73-7.35-32.43-20.2-42.84
			c-38.35-31.42-79.15-54.27-98.33-64.26V714c9.38-9.79,14.69-22.85,14.69-36.72v-73.03c0-47.33-38.56-85.88-85.88-85.88h-15.71
			c-47.33,0-85.88,38.56-85.88,85.88v73.03c0,13.87,5.3,26.93,14.69,36.72v50.79c-19.17,10-59.98,32.85-98.33,64.26
			C7.35,839.66,0,855.16,0,871.88v49.98c0,11.22,8.98,20.2,20.2,20.2s20.2-8.98,20.2-20.2v-49.98c0-4.49,2.03-8.77,5.51-11.63
			c43.65-35.91,90.78-59.77,99.95-64.06c8.16-3.87,13.06-12.03,13.06-21.01V704.8c0-6.73-3.47-13.06-8.98-16.73
			c-3.47-2.45-5.71-6.33-5.71-10.6v-73.03c0-25.09,20.4-45.49,45.49-45.49h15.71c25.09,0,45.49,20.4,45.49,45.49v73.03
			c0,4.28-2.03,8.16-5.71,10.6c-5.71,3.67-8.98,10-8.98,16.73v70.38c0,8.98,5.1,17.14,13.06,21.01c8.98,4.49,56.3,28.15,99.95,64.06
			C352.71,863.12,354.76,867.2,354.76,871.88z"/>
		<path class="st1" d="M500,772.34c11.22,0,20.2-8.98,20.2-20.2v-27.13h2.24c38.15,0,69.36-31.01,69.36-69.36
			s-31.01-69.36-69.36-69.36h-44.88c-15.91,0-28.97-13.06-28.97-28.97s13.06-28.77,28.97-28.77h78.94c11.22,0,20.2-8.98,20.2-20.2
			c0-11.22-8.98-20.2-20.2-20.2h-36.51v-26.72c0-11.22-8.98-20.2-20.2-20.2s-20.2,8.98-20.2,20.2v26.72h-2.03
			c-38.15,0-69.36,31.01-69.36,69.36c0,38.15,31.01,69.36,69.36,69.36h44.88c15.91,0,28.97,13.06,28.97,28.97
			s-13.06,28.97-28.97,28.97h-80.58c-11.22,0-20.2,8.98-20.2,20.2c0,11.22,8.98,20.2,20.2,20.2h37.94v27.13
			C479.8,763.36,488.78,772.34,500,772.34z"/>
	</g>
</g>
</svg>
