<?xml version="1.0" encoding="utf-8"?>
<!-- Generator: Adobe Illustrator 23.0.0, SVG Export Plug-In . SVG Version: 6.00 Build 0)  -->
<svg version="1.1" id="layer" xmlns="http://www.w3.org/2000/svg" xmlns:xlink="http://www.w3.org/1999/xlink" x="0px" y="0px"
	 viewBox="0 0 1000 1000" style="enable-background:new 0 0 1000 1000;" xml:space="preserve">
<style type="text/css">
	.st0{fill:#666666;}
</style>
<path class="st0" d="M523.37,523.33h208.16c-1.28,21.86-4.55,43.58-8.83,65.14c-34.03,37.05-74.05,71.23-119.28,101.09h-80.06
	L523.37,523.33L523.37,523.33z M695.92,310.4H523.37v166.23h208.65C729.8,420.06,717.71,364.15,695.92,310.4z M476.63,755.2v-18.86
	H331.16c9.35,17.17,19.84,34.03,31.14,50.76C400.29,780.45,438.5,769.9,476.63,755.2z M476.63,310.4H304.07
	c-21.79,53.8-33.88,109.66-36.1,166.24h208.66C476.63,476.63,476.63,310.4,476.63,310.4z M476.63,523.33H268.47
	c3.35,56.35,16.79,112.22,40.01,166.28h168.15V523.33z M523.37,71.69v191.94h150.92C639.19,196.07,588.48,131.57,523.37,71.69z
	 M310.95,793.64c-11.84-18.86-22.84-37.91-32.38-57.22H132.92c11.23,17.4,23.97,33.48,37.2,48.87
	C214.41,794.8,261.93,797.62,310.95,793.64z M802.95,476.59c29.34-54.29,47.52-110.79,52.71-166.24H745.88
	c19.84,54.02,30.85,109.85,32.8,166.24L802.95,476.59L802.95,476.59z M855.88,247.95C792.47,158.47,698.55,95.84,591.44,73.03
	c58.49,60.19,103.84,124.2,135.09,190.58h130.88C857.2,258.28,856.3,253.17,855.88,247.95z M476.63,71.69
	c-65.19,59.92-115.86,124.43-150.92,191.94h150.92V71.69z M579.3,929.41c118.57-21.71,222.03-91.07,287.78-193.07H721.43
	C688.14,804,640.36,868.81,579.3,929.41z M121.5,771.73C66.31,695.09,33.41,601.4,33.41,499.97C33.4,242.7,242.65,33.36,500,33.36
	c136.94,0,259.71,59.58,345.17,153.73c-7.17-24.84-17.66-48.72-31.41-71.34c-2.07-3.27-4.4-6.23-6.53-9.4
	C722.37,39.98,615.86,0,500,0C224.28,0,0,224.28,0,500c0,89.98,24.23,174.24,65.97,247.28C83.51,756.81,102.03,765.05,121.5,771.73z
	 M1000,500c0,275.67-224.28,500-500,500c-165.45,0-312.27-80.97-403.34-205.23c-30.24-20.93-56.77-46.21-77.99-76.42
	c131.27,129.99,379.29,138.85,592.57,10.29c240.9-145.16,346.12-410.51,234.88-592.6c-22.88-37.53-53.57-68.19-89.37-92.57
	C814.8,70.63,863.49,111.28,896.7,165.6c15.78,25.77,26.79,53.27,34.34,81.79C974.76,321.55,1000,407.77,1000,500z M966.6,500
	c0-53.08-9.09-103.99-25.62-151.51c-1.16,25.06-5.15,50.38-11.45,75.73c3.08,17.24,5.49,34.67,6.38,52.41H913.3
	c-6.05,15.66-12.81,31.29-20.63,46.73h43.21c-3.08,58.27-17.4,114.17-42.64,166.28H763.95c-32.01,29.27-67.43,56.43-106.92,80.24
	c-4.24,2.59-8.6,4.7-12.92,7.14c-32.08,49.26-72.36,96.63-120.9,141.34v-86.63c-15.59,5.22-31.19,9.84-46.73,13.71v72.85
	c-21.57-19.87-40.91-40.42-59.33-61.28c-19.05,2.78-37.84,4.55-56.53,5.41c18.41,22.77,37.98,45.23,59.92,66.94
	c-63.45-11.6-122.33-37.3-173.53-74.05c-23.71-4.33-46.4-10.56-68.12-18.49c83.74,79.99,196.41,129.72,321.02,129.72
	C757.35,966.6,966.6,757.27,966.6,500z M408.56,73C295.14,97.15,196.1,165.53,132.8,263.58h140.65
	C304.83,197.2,350.17,133.19,408.56,73z M106.62,689.6h151.21c-21.08-54.06-33.21-109.93-36.29-166.28H63.98
	C67.17,581.6,81.37,637.5,106.62,689.6z M64.06,476.59h157.22c1.95-56.4,12.97-112.26,32.8-166.24H106.62
	C81.37,362.47,67.17,418.4,64.06,476.59z"/>
</svg>
