<?xml version="1.0" encoding="utf-8"?>
<!-- Generator: Adobe Illustrator 23.0.0, SVG Export Plug-In . SVG Version: 6.00 Build 0)  -->
<svg version="1.1" id="layer" xmlns="http://www.w3.org/2000/svg" xmlns:xlink="http://www.w3.org/1999/xlink" x="0px" y="0px"
	 viewBox="0 0 1000 1000" style="enable-background:new 0 0 1000 1000;" xml:space="preserve">
<style type="text/css">
	.st0{fill:#0066FF;}
</style>
<g>
	<g>
		<path class="st0" d="M945.79,122.83H54.41C24.34,122.83,0,147.16,0,177.23v645.53c0,30.07,24.34,54.41,54.41,54.41h891.18
			c30.07,0,54.41-24.34,54.41-54.41V177.23C1000.2,147.37,975.66,122.83,945.79,122.83z M926.36,803.53H73.64V196.47h807.12
			L505.22,517.59L232.15,284c-15.55-13.29-38.66-11.45-51.95,4.09c-13.29,15.55-11.45,38.66,4.09,51.95l296.99,254.05
			c0.41,0.41,0.81,0.62,1.02,0.81c0.41,0.41,0.81,0.62,1.23,1.02c0.62,0.41,1.43,1.02,2.24,1.43c0.21,0.21,0.62,0.41,0.81,0.62
			c1.02,0.62,2.05,1.23,3.27,1.64c0.21,0.21,0.62,0.21,0.81,0.41c0.81,0.41,1.64,0.62,2.66,1.02c0.41,0.21,0.62,0.21,1.02,0.41
			c0.81,0.21,1.64,0.41,2.45,0.62c0.41,0,0.81,0.21,1.02,0.21c0.81,0.21,1.84,0.41,2.66,0.41c0.41,0,0.62,0,1.02,0.21
			c1.23,0.21,2.45,0.21,3.69,0.21s2.45,0,3.69-0.21c0.41,0,0.62,0,1.02-0.21c0.81-0.21,1.84-0.21,2.66-0.41
			c0.41,0,0.81-0.21,1.02-0.21c0.81-0.21,1.64-0.41,2.45-0.62c0.41-0.21,0.62-0.21,1.02-0.41c0.81-0.21,1.84-0.62,2.66-1.02
			c0.21-0.21,0.62-0.21,0.81-0.41c1.02-0.41,2.24-1.02,3.27-1.64c0.21-0.21,0.62-0.41,0.81-0.62c0.81-0.41,1.43-1.02,2.24-1.43
			c0.41-0.21,0.81-0.62,1.23-1.02c0.41-0.21,0.81-0.62,1.02-0.81L926.3,254.35L926.36,803.53L926.36,803.53z"/>
	</g>
</g>
</svg>
