<?xml version="1.0" encoding="utf-8"?>
<!-- Generator: Adobe Illustrator 23.0.0, SVG Export Plug-In . SVG Version: 6.00 Build 0)  -->
<svg version="1.1" id="layer" xmlns="http://www.w3.org/2000/svg" xmlns:xlink="http://www.w3.org/1999/xlink" x="0px" y="0px"
	 viewBox="0 0 1000 1000" style="enable-background:new 0 0 1000 1000;" xml:space="preserve">
<style type="text/css">
	.st0{fill:#FFFFFF;}
	.st1{fill:#C40D3C;}
	.st2{fill:#00205C;}
	.st3{fill:none;stroke:#000000;stroke-width:0.1;}
</style>
<g id="us">
	<g>
		<rect y="189.63" class="st0" width="1000" height="619.88"/>
		<rect y="189.63" class="st1" width="1000" height="47.64"/>
		<rect y="285.15" class="st1" width="1000" height="47.64"/>
		<rect y="380.01" class="st1" width="1000" height="47.64"/>
		<rect y="475.53" class="st1" width="1000" height="47.64"/>
		<rect y="571.7" class="st1" width="1000" height="47.64"/>
		<rect y="666.57" class="st1" width="1000" height="47.64"/>
		<rect y="762.73" class="st1" width="1000" height="47.64"/>
		<rect y="189.63" class="st2" width="415.21" height="333.34"/>
		<polygon class="st0" points="43.9,218.8 54,218.8 45.86,224.91 49.02,234.59 40.91,228.63 32.8,234.59 36,224.91 27.79,218.8 
			37.86,218.8 40.91,209.36 		"/>
		<polygon class="st0" points="110.95,218.8 121.06,218.8 112.92,224.91 116.07,234.59 107.97,228.63 99.86,234.59 103.06,224.91 
			94.85,218.8 104.92,218.8 107.97,209.36 		"/>
		<polygon class="st0" points="178.01,218.8 188.12,218.8 179.97,224.91 183.13,234.59 175.02,228.63 166.92,234.59 170.1,224.91 
			161.9,218.8 171.97,218.8 175.02,209.36 		"/>
		<polygon class="st0" points="245.07,218.8 255.17,218.8 247.03,224.91 250.19,234.59 242.08,228.63 233.98,234.59 237.17,224.91 
			228.97,218.8 239.03,218.8 242.08,209.36 		"/>
		<polygon class="st0" points="312.12,218.8 322.23,218.8 314.08,224.91 317.24,234.59 309.14,228.63 301.03,234.59 304.22,224.91 
			296.01,218.8 306.08,218.8 309.14,209.36 		"/>
		<polygon class="st0" points="379.17,218.8 389.29,218.8 381.14,224.91 384.3,234.59 376.2,228.63 368.09,234.59 371.28,224.91 
			363.07,218.8 373.14,218.8 376.2,209.36 		"/>
		<polygon class="st0" points="345.65,252.92 355.76,252.92 347.62,259.02 350.78,268.71 342.66,262.74 334.56,268.71 
			337.76,259.02 329.55,252.92 339.62,252.92 342.66,243.48 		"/>
		<polygon class="st0" points="312.12,287.02 322.22,287.02 314.08,293.13 317.24,302.81 309.14,296.85 301.03,302.81 
			304.22,293.13 296.01,287.02 306.08,287.02 309.14,277.59 		"/>
		<polygon class="st0" points="278.59,321.14 288.7,321.14 280.56,327.24 283.71,336.93 275.6,330.97 267.5,336.93 270.7,327.24 
			262.49,321.14 272.56,321.14 275.6,311.7 		"/>
		<polygon class="st0" points="245.06,355.26 255.16,355.26 247.03,361.36 250.19,371.05 242.08,365.08 233.98,371.05 
			237.16,361.36 228.95,355.26 239.02,355.26 242.08,345.81 		"/>
		<polygon class="st0" points="211.53,389.37 221.64,389.37 213.5,395.48 216.66,405.16 208.56,399.2 200.45,405.16 203.64,395.48 
			195.43,389.37 205.5,389.37 208.56,379.93 		"/>
		<polygon class="st0" points="178.01,423.48 188.12,423.48 179.98,429.58 183.13,439.27 175.02,433.3 166.92,439.27 170.12,429.58 
			161.9,423.48 171.97,423.48 175.02,414.03 		"/>
		<polygon class="st0" points="144.48,457.59 154.58,457.59 146.44,463.7 149.6,473.38 141.5,467.42 133.4,473.38 136.58,463.7 
			128.37,457.59 138.44,457.59 141.5,448.15 		"/>
		<polygon class="st0" points="110.95,491.71 121.06,491.71 112.92,497.81 116.07,507.5 107.97,501.52 99.86,507.5 103.06,497.81 
			94.85,491.71 104.92,491.71 107.97,482.27 		"/>
		<polygon class="st0" points="178.01,491.71 188.12,491.71 179.97,497.81 183.13,507.5 175.02,501.52 166.92,507.5 170.1,497.81 
			161.9,491.71 171.97,491.71 175.02,482.27 		"/>
		<polygon class="st0" points="245.07,491.71 255.17,491.71 247.03,497.81 250.19,507.5 242.08,501.52 233.98,507.5 237.17,497.81 
			228.97,491.71 239.03,491.71 242.08,482.27 		"/>
		<polygon class="st0" points="312.12,491.71 322.23,491.71 314.08,497.81 317.24,507.5 309.14,501.52 301.03,507.5 304.22,497.81 
			296.01,491.71 306.08,491.71 309.14,482.27 		"/>
		<polygon class="st0" points="379.17,491.71 389.29,491.71 381.14,497.81 384.3,507.5 376.2,501.52 368.09,507.5 371.28,497.81 
			363.07,491.71 373.14,491.71 376.2,482.27 		"/>
		<polygon class="st0" points="211.53,252.92 221.64,252.92 213.5,259.02 216.66,268.71 208.56,262.74 200.45,268.71 203.64,259.02 
			195.43,252.92 205.5,252.92 208.56,243.48 		"/>
		<polygon class="st0" points="178.01,287.03 188.12,287.03 179.98,293.14 183.13,302.81 175.02,296.85 166.92,302.81 
			170.12,293.14 161.9,287.03 171.97,287.03 175.02,277.59 		"/>
		<polygon class="st0" points="144.48,321.14 154.59,321.14 146.44,327.24 149.6,336.93 141.5,330.97 133.4,336.93 136.58,327.24 
			128.37,321.14 138.44,321.14 141.5,311.7 		"/>
		<polygon class="st0" points="110.95,355.26 121.06,355.26 112.92,361.36 116.08,371.05 107.97,365.08 99.86,371.05 103.06,361.36 
			94.85,355.26 104.92,355.26 107.97,345.81 		"/>
		<polygon class="st0" points="77.43,389.36 87.53,389.36 79.4,395.48 82.55,405.15 74.44,399.19 66.34,405.15 69.52,395.48 
			61.31,389.36 71.38,389.36 74.44,379.93 		"/>
		<polygon class="st0" points="77.42,252.92 87.52,252.92 79.38,259.02 82.55,268.71 74.44,262.74 66.34,268.71 69.52,259.02 
			61.31,252.92 71.38,252.92 74.44,243.48 		"/>
		<polygon class="st0" points="144.48,252.92 154.58,252.92 146.44,259.02 149.6,268.71 141.5,262.74 133.4,268.71 136.58,259.02 
			128.37,252.92 138.44,252.92 141.5,243.48 		"/>
		<polygon class="st0" points="110.95,287.02 121.06,287.02 112.92,293.13 116.07,302.81 107.97,296.85 99.86,302.81 103.06,293.13 
			94.85,287.02 104.92,287.02 107.97,277.59 		"/>
		<polygon class="st0" points="77.42,321.14 87.52,321.14 79.38,327.24 82.55,336.93 74.44,330.97 66.34,336.93 69.52,327.24 
			61.31,321.14 71.38,321.14 74.44,311.7 		"/>
		<polygon class="st0" points="43.9,287.02 54,287.02 45.86,293.13 49.02,302.81 40.91,296.85 32.8,302.81 36,293.13 27.79,287.02 
			37.86,287.02 40.91,277.59 		"/>
		<polygon class="st0" points="43.9,355.26 54,355.26 45.86,361.36 49.02,371.05 40.91,365.08 32.8,371.05 36,361.36 27.79,355.26 
			37.86,355.26 40.91,345.81 		"/>
		<polygon class="st0" points="43.9,423.48 54,423.48 45.86,429.58 49.02,439.27 40.91,433.3 32.8,439.27 36,429.58 27.79,423.48 
			37.86,423.48 40.91,414.03 		"/>
		<polygon class="st0" points="278.59,252.92 288.7,252.92 280.56,259.02 283.71,268.71 275.6,262.74 267.51,268.71 270.7,259.02 
			262.49,252.92 272.56,252.92 275.6,243.48 		"/>
		<polygon class="st0" points="245.07,287.02 255.17,287.02 247.03,293.13 250.19,302.81 242.08,296.85 233.98,302.81 
			237.17,293.13 228.95,287.02 239.03,287.02 242.08,277.59 		"/>
		<polygon class="st0" points="211.53,321.14 221.64,321.14 213.5,327.24 216.66,336.93 208.56,330.97 200.45,336.93 203.64,327.24 
			195.43,321.14 205.5,321.14 208.56,311.7 		"/>
		<polygon class="st0" points="178.01,355.26 188.12,355.26 179.98,361.36 183.13,371.05 175.02,365.08 166.92,371.05 
			170.12,361.36 161.9,355.26 171.97,355.26 175.02,345.81 		"/>
		<polygon class="st0" points="144.48,389.37 154.58,389.37 146.44,395.48 149.6,405.16 141.5,399.2 133.4,405.16 136.58,395.48 
			128.37,389.37 138.44,389.37 141.5,379.93 		"/>
		<polygon class="st0" points="110.95,423.48 121.06,423.48 112.92,429.58 116.08,439.27 107.97,433.3 99.86,439.27 103.06,429.58 
			94.85,423.48 104.92,423.48 107.97,414.03 		"/>
		<polygon class="st0" points="77.42,457.59 87.52,457.59 79.38,463.7 82.55,473.38 74.44,467.42 66.34,473.38 69.52,463.7 
			61.31,457.59 71.38,457.59 74.44,448.15 		"/>
		<polygon class="st0" points="43.9,491.71 54,491.71 45.86,497.81 49.02,507.5 40.91,501.52 32.8,507.5 36,497.81 27.79,491.71 
			37.86,491.71 40.91,482.27 		"/>
		<polygon class="st0" points="211.53,457.59 221.64,457.59 213.5,463.7 216.66,473.38 208.56,467.42 200.45,473.38 203.64,463.7 
			195.43,457.59 205.5,457.59 208.56,448.15 		"/>
		<polygon class="st0" points="245.07,423.48 255.17,423.48 247.03,429.58 250.19,439.27 242.08,433.3 233.98,439.27 237.17,429.58 
			228.95,423.48 239.03,423.48 242.08,414.03 		"/>
		<polygon class="st0" points="278.59,389.37 288.7,389.37 280.56,395.48 283.71,405.16 275.6,399.2 267.5,405.16 270.7,395.48 
			262.49,389.37 272.56,389.37 275.6,379.93 		"/>
		<polygon class="st0" points="312.12,355.26 322.22,355.26 314.08,361.36 317.24,371.05 309.14,365.08 301.03,371.05 
			304.22,361.36 296.01,355.26 306.08,355.26 309.14,345.81 		"/>
		<polygon class="st0" points="345.65,321.14 355.76,321.14 347.62,327.24 350.78,336.93 342.66,330.97 334.56,336.93 
			337.76,327.24 329.55,321.14 339.62,321.14 342.66,311.7 		"/>
		<polygon class="st0" points="278.59,457.59 288.7,457.59 280.56,463.7 283.72,473.38 275.62,467.42 267.51,473.38 270.7,463.7 
			262.49,457.59 272.56,457.59 275.62,448.15 		"/>
		<polygon class="st0" points="312.12,423.48 322.23,423.48 314.08,429.58 317.24,439.27 309.14,433.3 301.03,439.27 304.22,429.58 
			296.01,423.48 306.08,423.48 309.14,414.03 		"/>
		<polygon class="st0" points="345.65,389.37 355.76,389.37 347.62,395.48 350.78,405.16 342.66,399.2 334.56,405.16 337.76,395.48 
			329.55,389.37 339.62,389.37 342.66,379.93 		"/>
		<polygon class="st0" points="345.65,457.59 355.76,457.59 347.62,463.7 350.78,473.38 342.66,467.42 334.56,473.38 337.76,463.7 
			329.55,457.59 339.62,457.59 342.66,448.15 		"/>
		<polygon class="st0" points="379.17,287.02 389.29,287.02 381.14,293.13 384.3,302.81 376.2,296.85 368.09,302.81 371.28,293.13 
			363.07,287.02 373.14,287.02 376.2,277.59 		"/>
		<polygon class="st0" points="379.17,355.26 389.29,355.26 381.14,361.36 384.3,371.05 376.2,365.08 368.09,371.05 371.28,361.36 
			363.07,355.26 373.14,355.26 376.2,345.81 		"/>
		<polygon class="st0" points="379.17,423.48 389.29,423.48 381.14,429.58 384.3,439.27 376.2,433.3 368.09,439.27 371.28,429.58 
			363.07,423.48 373.14,423.48 376.2,414.03 		"/>
		<rect y="189.63" class="st3" width="1000" height="619.88"/>
	</g>
</g>
</svg>
