<?xml version="1.0" encoding="utf-8"?>
<!-- Generator: Adobe Illustrator 23.0.0, SVG Export Plug-In . SVG Version: 6.00 Build 0)  -->
<svg version="1.1" id="layer" xmlns="http://www.w3.org/2000/svg" xmlns:xlink="http://www.w3.org/1999/xlink" x="0px" y="0px"
	 viewBox="0 0 128 128" style="enable-background:new 0 0 128 128;" xml:space="preserve">
<style type="text/css">
	.st0{fill:#333333;}
</style>
<g id="Github">
	<g>
		<path id="Fill-4" class="st0" d="M64,0C28.66,0,0,29.38,0,65.62c0,28.99,18.34,53.59,43.77,62.26c3.2,0.61,4.38-1.43,4.38-3.15
			c0-1.57-0.06-6.73-0.09-12.22c-17.81,3.97-21.57-7.74-21.57-7.74c-2.91-7.59-7.11-9.6-7.11-9.6c-5.81-4.07,0.43-3.99,0.43-3.99
			c6.42,0.47,9.81,6.77,9.81,6.77c5.7,10.03,14.97,7.13,18.63,5.45c0.57-4.24,2.23-7.13,4.07-8.78
			c-14.22-1.66-29.15-7.29-29.15-32.43c0-7.17,2.5-13.02,6.59-17.61c-0.66-1.66-2.86-8.33,0.62-17.36c0,0,5.37-1.76,17.6,6.73
			c5.11-1.45,10.58-2.18,16.02-2.21c5.44,0.02,10.91,0.75,16.03,2.21c12.22-8.49,17.58-6.73,17.58-6.73
			c3.49,9.04,1.29,15.71,0.63,17.36c4.1,4.59,6.58,10.45,6.58,17.61c0,25.2-14.97,30.75-29.22,32.38c2.3,2.03,4.34,6.03,4.34,12.15
			c0,8.78-0.07,15.85-0.07,18.01c0,1.75,1.15,3.79,4.4,3.14C109.69,119.19,128,94.59,128,65.61C128,29.38,99.35,0,64,0"/>
		<path id="Fill-5" class="st0" d="M24.43,93.77c-0.14,0.32-0.64,0.42-1.1,0.19c-0.47-0.22-0.72-0.65-0.57-0.97
			c0.14-0.33,0.64-0.42,1.1-0.21C24.32,92.99,24.59,93.44,24.43,93.77"/>
		<path id="Fill-6" class="st0" d="M27.02,96.7c-0.31,0.29-0.9,0.15-1.3-0.3c-0.42-0.46-0.49-1.06-0.18-1.35
			c0.31-0.29,0.89-0.15,1.31,0.3C27.26,95.81,27.34,96.41,27.02,96.7"/>
		<path id="Fill-7" class="st0" d="M29.53,100.45c-0.39,0.27-1.03,0.02-1.43-0.56c-0.39-0.58-0.39-1.27,0.01-1.54
			c0.4-0.27,1.03-0.02,1.43,0.55C29.93,99.46,29.93,100.16,29.53,100.45"/>
		<path id="Fill-8" class="st0" d="M32.98,104.06c-0.35,0.39-1.1,0.29-1.65-0.25c-0.56-0.53-0.71-1.27-0.37-1.66
			c0.35-0.39,1.11-0.29,1.66,0.25C33.19,102.93,33.36,103.67,32.98,104.06"/>
		<path id="Fill-9" class="st0" d="M37.75,106.16c-0.16,0.51-0.87,0.74-1.6,0.53c-0.72-0.22-1.2-0.82-1.05-1.34
			c0.15-0.51,0.87-0.75,1.6-0.53C37.42,105.05,37.9,105.65,37.75,106.16"/>
		<path id="Fill-10" class="st0" d="M42.97,106.55c0.02,0.54-0.59,0.98-1.36,0.99c-0.77,0.02-1.38-0.41-1.39-0.95
			c0-0.54,0.59-0.98,1.36-0.99C42.35,105.59,42.97,106.01,42.97,106.55"/>
		<path id="Fill-11" class="st0" d="M47.84,105.7c0.09,0.53-0.43,1.06-1.19,1.2c-0.74,0.14-1.43-0.18-1.52-0.71
			c-0.09-0.54,0.45-1.07,1.19-1.21C47.06,104.86,47.75,105.18,47.84,105.7"/>
	</g>
</g>
</svg>
