<?xml version="1.0" encoding="utf-8"?>
<!-- Generator: Adobe Illustrator 23.0.0, SVG Export Plug-In . SVG Version: 6.00 Build 0)  -->
<svg version="1.1" id="图层_1" xmlns="http://www.w3.org/2000/svg" xmlns:xlink="http://www.w3.org/1999/xlink" x="0px" y="0px"
	 viewBox="0 0 128 128" style="enable-background:new 0 0 128 128;" xml:space="preserve">
<style type="text/css">
	.st0{fill:#161514;}
</style>
<g id="Github">
	<g>
		<path id="Fill-4" class="st0" d="M64,8C33.08,8,8,33.71,8,65.42c0,25.37,16.05,46.89,38.3,54.48c2.8,0.53,3.83-1.25,3.83-2.76
			c0-1.37-0.05-5.89-0.08-10.69c-15.58,3.47-18.87-6.77-18.87-6.77c-2.55-6.64-6.22-8.4-6.22-8.4c-5.08-3.56,0.38-3.49,0.38-3.49
			c5.62,0.41,8.58,5.92,8.58,5.92c4.99,8.78,13.1,6.24,16.3,4.77c0.5-3.71,1.95-6.24,3.56-7.68c-12.44-1.45-25.51-6.38-25.51-28.38
			c0-6.27,2.19-11.39,5.77-15.41c-0.58-1.45-2.5-7.29,0.54-15.19c0,0,4.7-1.54,15.4,5.89c4.47-1.27,9.26-1.91,14.02-1.93
			c4.76,0.02,9.55,0.66,14.03,1.93c10.69-7.43,15.38-5.89,15.38-5.89c3.05,7.91,1.13,13.75,0.55,15.19
			c3.59,4.02,5.76,9.14,5.76,15.41c0,22.05-13.1,26.91-25.57,28.33c2.01,1.78,3.8,5.28,3.8,10.63c0,7.68-0.06,13.87-0.06,15.76
			c0,1.53,1.01,3.32,3.85,2.75c22.24-7.6,38.26-29.12,38.26-54.48C120,33.71,94.93,8,64,8"/>
		<path id="Fill-5" class="st0" d="M29.38,90.05c-0.12,0.28-0.56,0.37-0.96,0.17c-0.41-0.19-0.63-0.57-0.5-0.85
			c0.12-0.29,0.56-0.37,0.96-0.18C29.28,89.37,29.52,89.76,29.38,90.05"/>
		<path id="Fill-6" class="st0" d="M31.64,92.61c-0.27,0.25-0.79,0.13-1.14-0.26c-0.37-0.4-0.43-0.93-0.16-1.18
			c0.27-0.25,0.78-0.13,1.15,0.26C31.85,91.83,31.92,92.36,31.64,92.61"/>
		<path id="Fill-7" class="st0" d="M33.84,95.89c-0.34,0.24-0.9,0.02-1.25-0.49c-0.34-0.51-0.34-1.11,0.01-1.35
			c0.35-0.24,0.9-0.02,1.25,0.48C34.19,95.03,34.19,95.64,33.84,95.89"/>
		<path id="Fill-8" class="st0" d="M36.86,99.05c-0.31,0.34-0.96,0.25-1.44-0.22c-0.49-0.46-0.62-1.11-0.32-1.45
			c0.31-0.34,0.97-0.25,1.45,0.22C37.04,98.06,37.19,98.71,36.86,99.05"/>
		<path id="Fill-9" class="st0" d="M41.03,100.89c-0.14,0.45-0.76,0.65-1.4,0.46c-0.63-0.19-1.05-0.72-0.92-1.17
			c0.13-0.45,0.76-0.66,1.4-0.46C40.74,99.92,41.16,100.44,41.03,100.89"/>
		<path id="Fill-10" class="st0" d="M45.6,101.23c0.02,0.47-0.52,0.86-1.19,0.87c-0.67,0.02-1.21-0.36-1.22-0.83
			c0-0.47,0.52-0.86,1.19-0.87C45.06,100.39,45.6,100.76,45.6,101.23"/>
		<path id="Fill-11" class="st0" d="M49.86,100.49c0.08,0.46-0.38,0.93-1.04,1.05c-0.65,0.12-1.25-0.16-1.33-0.62
			c-0.08-0.47,0.39-0.94,1.04-1.06C49.18,99.75,49.78,100.03,49.86,100.49"/>
	</g>
</g>
</svg>
