<?xml version="1.0" encoding="utf-8"?>
<!-- Generator: Adobe Illustrator 23.0.0, SVG Export Plug-In . SVG Version: 6.00 Build 0)  -->
<svg version="1.1" id="layer" xmlns="http://www.w3.org/2000/svg" xmlns:xlink="http://www.w3.org/1999/xlink" x="0px" y="0px"
	 viewBox="0 0 64 64" style="enable-background:new 0 0 64 64;" xml:space="preserve">
<style type="text/css">
	.st0{fill:url(#SVGID_1_);}
</style>
<linearGradient id="SVGID_1_" gradientUnits="userSpaceOnUse" x1="-272.5272" y1="335.5532" x2="-275.1207" y2="332.9597" gradientTransform="matrix(23.9866 0 0 -16.946 6597.1353 5695.4907)">
	<stop  offset="0" style="stop-color:#11C4D1"/>
	<stop  offset="1" style="stop-color:#0062AD"/>
</linearGradient>
<path class="st0" d="M63.8,10.9C65.9,39.5,47.6,53,31.1,54.5C15.8,55.8,1.4,46.4,0.1,32c-1-11.9,6.3-17,12.1-17.5
	c6-0.5,11,3.6,11.4,8.6c0.4,4.8-2.6,7-4.6,7.2c-1.6,0.1-3.7-0.9-3.9-3c-0.2-1.8,0.5-2.1,0.4-4c-0.3-3.5-3.3-3.9-5-3.7
	c-2,0.2-5.7,2.5-5.1,8.4c0.5,5.9,6.2,10.6,13.6,9.9c8-0.7,13.6-6.9,14-15.7c0-0.5,0.1-0.9,0.3-1.3l0,0c0.1-0.2,0.2-0.4,0.3-0.5
	c0.2-0.3,0.4-0.5,0.7-0.8c0,0,0,0,0,0c0.2-0.2,0.5-0.5,0.7-0.8c3.5-3.3,16.1-11.1,28-8.6C63.4,10,63.8,10.4,63.8,10.9"/>
</svg>
