<svg xmlns="http://www.w3.org/2000/svg" viewBox="0 0 986.77 986.77"><title>myetherwallet-circle</title><path d="M493.38,34.36c-253.51,0-459,205.51-459,459s205.51,459,459,459,459-205.51,459-459S746.9,34.36,493.38,34.36Zm0,747.47c-155.17,0-288.21-125.79-288.21-281,0-36.44,6.93-78.5,19.56-110.45l123.81,52.74c-.4,1.73-.91,4-1.48,6.55a151.59,151.59,0,0,0-6.49,37.19,54.34,54.34,0,0,0-.28,7.53c0,.58.08,1.15.11,1.73A152.1,152.1,0,0,0,527.17,642.38l70.38,119.51A280.21,280.21,0,0,1,493.38,781.83Zm266-174.3L445.06,474.35l201.59-.88c-7.24-73.12-82.39-132.56-153.26-132.56a144.73,144.73,0,0,0-47.23,7.88L376.41,230.37a279.94,279.94,0,0,1,117-25.44c155.17,0,287.78,128.12,287.78,283.29C781.16,530.08,775.76,571.84,759.35,607.53Z" style="fill:#1a96a4"/></svg>