<?xml version="1.0" encoding="utf-8"?>
<!-- Generator: Adobe Illustrator 23.0.0, SVG Export Plug-In . SVG Version: 6.00 Build 0)  -->
<svg version="1.1" id="layer" xmlns="http://www.w3.org/2000/svg" xmlns:xlink="http://www.w3.org/1999/xlink" x="0px" y="0px"
	 viewBox="0 0 986.77 986.77" style="enable-background:new 0 0 986.77 986.77;" xml:space="preserve">
<style type="text/css">
	.st0{fill:#1A96A4;}
</style>
<title>myetherwallet-circle</title>
<path class="st0" d="M493.38,34.36c-253.51,0-459,205.51-459,459s205.51,459,459,459s459-205.51,459-459S746.9,34.36,493.38,34.36z
	 M493.38,781.83c-155.17,0-288.21-125.79-288.21-281c0-36.44,6.93-78.5,19.56-110.45l123.81,52.74c-0.4,1.73-0.91,4-1.48,6.55
	c-3.7,12.08-5.88,24.57-6.49,37.19c-0.27,2.5-0.36,5.02-0.28,7.53c0,0.58,0.08,1.15,0.11,1.73c1.01,84,69.93,151.27,153.92,150.26
	c11.06-0.13,22.08-1.47,32.85-4l70.38,119.51C564.41,775.11,529.06,781.88,493.38,781.83L493.38,781.83z M759.38,607.53
	L445.06,474.35l201.59-0.88c-7.24-73.12-82.39-132.56-153.26-132.56c-16.07-0.01-32.03,2.65-47.23,7.88l-69.75-118.42
	c36.71-16.82,76.62-25.5,117-25.44c155.17,0,287.78,128.12,287.78,283.29c-0.03,41.86-5.43,83.62-21.84,119.31L759.38,607.53z"/>
</svg>
