<?xml version="1.0" encoding="utf-8"?>
<!-- Generator: Adobe Illustrator 23.0.0, SVG Export Plug-In . SVG Version: 6.00 Build 0)  -->
<svg version="1.1" id="layer" xmlns="http://www.w3.org/2000/svg" xmlns:xlink="http://www.w3.org/1999/xlink" x="0px" y="0px"
	 viewBox="0 0 256 256" style="enable-background:new 0 0 256 256;" xml:space="preserve">
<style type="text/css">
	.st0{fill:#1A96A4;}
</style>
<path class="st0" d="M128,0C57.3,0,0,57.31,0,128s57.31,128,128,128s128-57.31,128-128S198.7,0,128,0z M128,208.44
	c-43.27,0-80.37-35.08-80.37-78.36c0-10.16,1.93-21.89,5.45-30.8l34.53,14.71c-0.11,0.48-0.25,1.12-0.41,1.83
	c-1.03,3.37-1.64,6.85-1.81,10.37c-0.07,0.7-0.1,1.4-0.08,2.1c0,0.16,0.02,0.32,0.03,0.48c0.28,23.42,19.5,42.18,42.92,41.9
	c3.08-0.04,6.16-0.41,9.16-1.11l19.63,33.33C147.81,206.57,137.95,208.46,128,208.44L128,208.44z M202.18,159.84l-87.65-37.14
	l56.22-0.25c-2.02-20.39-22.98-36.97-42.74-36.97c-4.48,0-8.93,0.74-13.17,2.2L95.38,54.66c10.24-4.69,21.37-7.11,32.63-7.09
	c43.27,0,80.25,35.73,80.25,79C208.25,138.24,206.75,149.89,202.18,159.84L202.18,159.84z"/>
</svg>
