<?xml version="1.0" encoding="utf-8"?>
<!-- Generator: Adobe Illustrator 23.0.0, SVG Export Plug-In . SVG Version: 6.00 Build 0)  -->
<svg version="1.1" id="layer" xmlns="http://www.w3.org/2000/svg" xmlns:xlink="http://www.w3.org/1999/xlink" x="0px" y="0px"
	 viewBox="0 0 1000 1000" style="enable-background:new 0 0 1000 1000;" xml:space="preserve">
<style type="text/css">
	.st0{fill:#666666;}
</style>
<g>
	<g>
		<path class="st0" d="M698.16,260.71c-28.98-28.98-67.76-45.1-108.78-45.1c-32.45,0-63.47,10-89.38,28.57
			c-25.92-18.57-56.94-28.78-89.59-28.78c-41.02,0-79.59,15.92-108.78,45.1c-29.19,29.19-45.1,67.76-45.1,108.98
			c0,41.02,16.13,79.59,45.1,108.78l159.59,159.59c10.41,10.21,24.08,15.92,38.57,15.92s28.37-5.71,38.57-15.92l159.38-159.38
			c29.38-28.98,45.3-67.76,45.51-108.78C743.27,328.47,727.35,289.9,698.16,260.71z M646.13,426.43L500.21,572.35L353.87,426.02
			c-15.3-15.3-23.67-35.51-23.67-56.94s8.37-41.63,23.47-56.94c15.1-15.1,35.3-23.47,56.73-23.47c21.43,0,41.84,8.37,56.94,23.67
			l6.53,6.53c6.94,6.94,16.33,10.81,25.92,10.81c9.59,0,19.19-3.87,25.92-10.81l6.33-6.33c15.3-15.3,35.51-23.67,56.94-23.67
			s41.63,8.37,56.73,23.47s23.47,35.3,23.47,56.94C669.79,391.13,661.22,411.33,646.13,426.43z"/>
	</g>
</g>
<g>
	<g>
		<path class="st0" d="M918.78,30.71H81.22C36.52,30.71,0,67.24,0,112.14v621.23c0,44.9,36.53,81.43,81.43,81.43h381.84v81.02
			H345.51c-20.21,0-36.73,16.53-36.73,36.73c0,20.2,16.53,36.73,36.73,36.73h308.98c20.21,0,36.73-16.53,36.73-36.73
			c0-20.2-16.53-36.73-36.73-36.73H536.73V778.06c0-20.21-16.53-36.73-36.73-36.73H81.22c-4.29,0-7.95-3.47-7.95-7.95V112.14
			c0-4.29,3.47-7.95,7.95-7.95h837.35c4.29,0,7.95,3.47,7.95,7.95v621.23c0,4.29-3.47,7.95-7.95,7.95H687.76
			c-20.21,0-36.73,16.53-36.73,36.73s16.53,36.73,36.73,36.73h230.81c44.9,0,81.43-36.53,81.43-81.43V112.14
			C1000,67.24,963.47,30.71,918.78,30.71z"/>
	</g>
</g>
</svg>
