<?xml version="1.0" encoding="utf-8"?>
<!-- Generator: Adobe Illustrator 23.0.0, SVG Export Plug-In . SVG Version: 6.00 Build 0)  -->
<svg version="1.1" id="layer" xmlns="http://www.w3.org/2000/svg" xmlns:xlink="http://www.w3.org/1999/xlink" x="0px" y="0px"
	 viewBox="0 0 1000 1000" style="enable-background:new 0 0 1000 1000;" xml:space="preserve">
<style type="text/css">
	.st0{fill:#0066FF;}
</style>
<g>
	<g>
		<path class="st0" d="M769.53,470.86c-10.79,0-19.53,8.74-19.53,19.53v2.93c0,10.79,8.74,19.53,19.53,19.53
			c10.79,0,19.53-8.74,19.53-19.53v-2.93C789.06,479.61,780.31,470.86,769.53,470.86z"/>
	</g>
</g>
<g>
	<g>
		<path class="st0" d="M894.53,366.93v-198.8c0-39.85-32.42-72.27-72.27-72.27c-16.72,0-32.13,5.73-44.4,15.3l-209,78.28
			c-10.1,3.78-15.22,15.03-11.44,25.14c2.94,7.85,10.38,12.69,18.29,12.69c2.28,0,4.59-0.4,6.85-1.24l167.6-62.78
			c-0.1,1.62-0.19,3.23-0.19,4.87v226.56c0,10.79,8.74,19.53,19.53,19.53c10.79,0,19.53-8.74,19.53-19.53V168.13
			c0-18.31,14.9-33.2,33.2-33.2s33.2,14.9,33.2,33.2v644.53c0,18.31-14.9,33.2-33.2,33.2s-33.2-14.9-33.2-33.2V576.33
			c0-10.79-8.74-19.53-19.53-19.53c-10.79,0-19.53,8.74-19.53,19.53v236.33c0,1.64,0.07,3.27,0.19,4.87L257.81,633.11V347.69
			l198.24-74.26c10.1-3.78,15.22-15.03,11.44-25.14c-3.79-10.1-15.05-15.23-25.14-11.44l-207.62,77.77h-119.5
			C51.69,314.62,0,366.31,0,429.85v121.09c0,62.29,49.69,113.16,111.51,115.14l86.06,225.48c2.88,7.57,10.15,12.57,18.24,12.57
			h113.28c6.43,0,12.44-3.16,16.08-8.45s4.45-12.03,2.16-18.05l-75.37-197.51l505.91,189.5c12.26,9.58,27.66,15.3,44.4,15.3
			c39.85,0,72.27-32.42,72.27-72.27V613.86C954.21,604.45,1000,552.68,1000,490.4S954.21,376.34,894.53,366.93z M115.23,627.12
			c-42,0-76.17-34.17-76.17-76.17v-121.1c0-42,34.17-76.17,76.17-76.17h103.51v273.44H125H115.23z M300.74,865.07h-71.47l0,0
			l-75.91-198.9h71.47L300.74,865.07z M894.53,574.07V406.72c38,8.87,66.41,43.01,66.41,83.67
			C960.94,531.06,932.53,565.2,894.53,574.07z"/>
	</g>
</g>
<g>
	<g>
		<path class="st0" d="M526.78,217.45c-3.63-3.63-8.67-5.72-13.81-5.72s-10.17,2.09-13.81,5.72c-3.63,3.63-5.72,8.67-5.72,13.8
			c0,5.14,2.09,10.17,5.72,13.81c3.63,3.63,8.67,5.72,13.81,5.72c5.14,0,10.17-2.09,13.81-5.72c3.63-3.63,5.72-8.67,5.72-13.81
			S530.41,221.08,526.78,217.45z"/>
	</g>
</g>
<g>
	<g>
		<path class="st0" d="M142.71,429.07c-3.63-3.65-8.67-5.72-13.81-5.72s-10.17,2.07-13.81,5.72c-3.63,3.63-5.72,8.67-5.72,13.81
			c0,5.14,2.09,10.15,5.72,13.81c3.63,3.63,8.67,5.72,13.81,5.72s10.17-2.09,13.81-5.72c3.63-3.63,5.72-8.67,5.72-13.81
			C148.44,437.72,146.35,432.7,142.71,429.07z"/>
	</g>
</g>
<g>
	<g>
		<path class="st0" d="M164.06,535.31h-62.5c-10.79,0-19.53,8.74-19.53,19.53c0,10.79,8.74,19.53,19.53,19.53h62.5
			c10.79,0,19.53-8.74,19.53-19.53S174.85,535.31,164.06,535.31z"/>
	</g>
</g>
</svg>
