<?xml version="1.0" encoding="utf-8"?>
<!-- Generator: Adobe Illustrator 23.0.0, SVG Export Plug-In . SVG Version: 6.00 Build 0)  -->
<svg version="1.1" id="layer" xmlns="http://www.w3.org/2000/svg" xmlns:xlink="http://www.w3.org/1999/xlink" x="0px" y="0px"
	 viewBox="0 0 1000 1000" style="enable-background:new 0 0 1000 1000;" xml:space="preserve">
<style type="text/css">
	.st0{fill:#03A9F4;}
</style>
<path class="st0" d="M994.25,189.4c-6.65-7.27-17.35-9.16-26.09-4.6c-8.98,4.08-18.27,7.44-27.78,10.05
	c14.84-18.99,26.03-40.55,33.05-63.6c3.08-11.6-3.83-23.51-15.43-26.59c-6.2-1.65-12.8-0.48-18.05,3.2
	c-33.06,17.88-68.19,31.63-104.6,40.92c-74.98-70.77-189.18-79.58-274.14-21.17c-65.44,44.24-101.46,120.72-93.92,199.35
	c-141.86-12.09-272.37-82.38-360.52-194.17c-4.52-5.48-11.38-8.5-18.48-8.13c-7.2,0.43-13.71,4.41-17.4,10.6
	c-29.92,48.91-38.58,107.91-24,163.35c7.48,28.49,20.3,55.3,37.78,79c-7.87-3.86-15.29-8.59-22.08-14.13
	c-9.33-7.56-23.01-6.14-30.58,3.19c-3.14,3.87-4.86,8.7-4.86,13.69c1.29,80.44,45.46,154.06,115.82,193.04
	c-9.49-1.16-18.86-3.17-28-6c-11.5-3.45-23.62,3.06-27.08,14.56c-1.51,5.01-1.15,10.41,0.99,15.19
	c30.53,68.41,91.59,118.38,164.7,134.78c-69.65,39.29-149.85,55.8-229.35,47.22c-10.31-1.31-20.07,4.95-23.17,14.87
	c-3.2,9.84,0.99,20.57,10,25.65c97.35,57.84,208.09,89.31,321.31,91.3c108.62-0.4,214.7-32.84,304.96-93.27
	c172.3-114.35,279.69-319.66,264.74-503.35c36.84-27.27,68.8-60.58,94.52-98.52C1001.89,207.48,1000.93,196.65,994.25,189.4z"/>
</svg>
