<?xml version="1.0" encoding="utf-8"?>
<!-- Generator: Adobe Illustrator 23.0.0, SVG Export Plug-In . SVG Version: 6.00 Build 0)  -->
<svg version="1.1" id="图层_1" xmlns="http://www.w3.org/2000/svg" xmlns:xlink="http://www.w3.org/1999/xlink" x="0px" y="0px"
	 viewBox="0 0 128 128" style="enable-background:new 0 0 128 128;" xml:space="preserve">
<style type="text/css">
	.st0{fill-rule:evenodd;clip-rule:evenodd;fill:#339900;}
</style>
<path class="st0" d="M24.4,103.6c-4.71-4.71-6.05-11.88-4.58-21.3C12.12,76.68,8,70.65,8,64s4.12-12.68,11.82-18.3
	c-1.48-9.42-0.13-16.59,4.58-21.3s11.88-6.05,21.3-4.58C51.32,12.12,57.35,8,64,8s12.68,4.12,18.3,11.82
	c9.42-1.48,16.59-0.13,21.3,4.58c4.71,4.71,6.05,11.88,4.58,21.3C115.88,51.32,120,57.35,120,64s-4.12,12.68-11.82,18.3
	c1.48,9.42,0.13,16.59-4.58,21.3c-4.71,4.71-11.88,6.05-21.3,4.58C76.68,115.88,70.65,120,64,120s-12.68-4.12-18.3-11.82
	C36.28,109.65,29.11,108.3,24.4,103.6z M46.96,97.59c2.07-0.44,4.19,0.44,5.34,2.21c4.48,6.93,8.48,10.02,11.7,10.02
	s7.22-3.09,11.7-10.02c1.15-1.77,3.27-2.65,5.34-2.21c8.07,1.73,13.08,1.09,15.36-1.19c2.28-2.28,2.92-7.29,1.19-15.36
	c-0.44-2.07,0.44-4.19,2.21-5.34c6.93-4.48,10.02-8.48,10.02-11.7s-3.09-7.22-10.02-11.7c-1.77-1.15-2.65-3.27-2.21-5.34
	c1.73-8.07,1.09-13.08-1.19-15.36c-2.28-2.28-7.29-2.92-15.36-1.19c-2.07,0.44-4.19-0.44-5.34-2.21
	c-4.48-6.93-8.48-10.02-11.7-10.02s-7.22,3.09-11.7,10.02c-1.15,1.77-3.27,2.65-5.34,2.21c-8.07-1.73-13.08-1.09-15.36,1.19
	c-2.28,2.28-2.92,7.29-1.19,15.36c0.44,2.07-0.44,4.19-2.21,5.34c-6.93,4.48-10.02,8.48-10.02,11.7s3.09,7.22,10.02,11.7
	c1.77,1.15,2.65,3.27,2.21,5.34c-1.73,8.07-1.09,13.08,1.19,15.36C33.88,98.67,38.89,99.32,46.96,97.59z M58.91,66.98l21.85-21.85
	l7.2,7.2L58.91,81.38L40.04,62.51l7.2-7.2L58.91,66.98z"/>
</svg>
