<?xml version="1.0" encoding="utf-8"?>
<!-- Generator: Adobe Illustrator 23.0.0, SVG Export Plug-In . SVG Version: 6.00 Build 0)  -->
<svg version="1.1" id="layer" xmlns="http://www.w3.org/2000/svg" xmlns:xlink="http://www.w3.org/1999/xlink" x="0px" y="0px"
	 viewBox="0 0 256 256" style="enable-background:new 0 0 256 256;" xml:space="preserve">
<style type="text/css">
	.st0{fill-rule:evenodd;clip-rule:evenodd;fill:#339900;}
</style>
<path class="st0" d="M37.49,218.51c-10.77-10.77-13.83-27.15-10.47-48.69C9.42,156.98,0,143.2,0,128s9.42-28.98,27.02-41.83
	c-3.38-21.53-0.3-37.92,10.47-48.69s27.15-13.83,48.69-10.47C99.02,9.42,112.8,0,128,0s28.98,9.42,41.83,27.02
	c21.53-3.38,37.92-0.3,48.69,10.47c10.77,10.77,13.83,27.15,10.47,48.69C246.58,99.02,256,112.8,256,128s-9.42,28.98-27.02,41.83
	c3.38,21.53,0.3,37.92-10.47,48.69c-10.77,10.77-27.15,13.83-48.69,10.47C156.98,246.58,143.2,256,128,256s-28.98-9.42-41.83-27.02
	C64.64,232.34,48.25,229.26,37.49,218.51z M89.05,204.78c4.73-1.01,9.58,1.01,12.21,5.05c10.24,15.84,19.38,22.9,26.74,22.9
	s16.5-7.06,26.74-22.9c2.63-4.05,7.47-6.06,12.21-5.05c18.45,3.95,29.9,2.49,35.11-2.72s6.67-16.66,2.72-35.11
	c-1.01-4.73,1.01-9.58,5.05-12.21c15.84-10.24,22.9-19.38,22.9-26.74c0-7.36-7.06-16.5-22.9-26.74c-4.05-2.63-6.06-7.47-5.05-12.21
	c3.95-18.45,2.49-29.9-2.72-35.11s-16.66-6.67-35.11-2.72c-4.73,1.01-9.58-1.01-12.21-5.05c-10.24-15.84-19.38-22.9-26.74-22.9
	c-7.36,0-16.5,7.06-26.74,22.9c-2.63,4.05-7.47,6.06-12.21,5.05c-18.45-3.95-29.9-2.49-35.11,2.72s-6.67,16.66-2.72,35.11
	c1.01,4.73-1.01,9.58-5.05,12.21c-15.84,10.24-22.9,19.38-22.9,26.74c0,7.36,7.06,16.5,22.9,26.74c4.05,2.63,6.06,7.47,5.05,12.21
	c-3.95,18.45-2.49,29.9,2.72,35.11C59.15,207.25,70.61,208.73,89.05,204.78z M116.37,134.81l49.94-49.94l16.46,16.46l-66.4,66.4
	l-43.13-43.13l16.46-16.46L116.37,134.81z"/>
</svg>
