<?xml version="1.0" encoding="utf-8"?>
<!-- Generator: Adobe Illustrator 23.0.0, SVG Export Plug-In . SVG Version: 6.00 Build 0)  -->
<svg version="1.1" id="layer" xmlns="http://www.w3.org/2000/svg" xmlns:xlink="http://www.w3.org/1999/xlink" x="0px" y="0px"
	 viewBox="0 0 1000 1000" style="enable-background:new 0 0 1000 1000;" xml:space="preserve">
<style type="text/css">
	.st0{fill:#990000;}
</style>
<g>
	<path class="st0" d="M978.73,68.49c9.12-6.08,19.75-4.56,21.27,3.04c-75.97,62.3-129.15,189.92-209.68,241.58
		c-62.29-7.6-45.58,68.37-72.93,69.89c-21.27,0-31.91,30.39-47.1,51.66C551.78,601.8,332.98,806.92,165.85,989.25l-94.2-31.91
		c-25.83-45.58-69.9-88.13-71.42-150.42C-2.8,720.31,24.54,221.95,30.62,132.3c1.52-34.95-31.91-94.2,3.04-121.55
		c116.99,47.1,165.61,159.54,171.69,287.17c-18.23,51.66,13.67,91.16,9.12,135.23l-16.71,3.04c-7.6,47.1-18.23,94.2-31.91,138.27
		l24.31,66.85C340.58,504.56,463.65,355.66,585.2,193.08c63.81,3.04,47.1-56.22,124.59-48.62l59.26-63.81
		c12.15-13.67,34.95-10.64,41.02,3.04c-16.71,22.79-82.05,94.2-142.82,148.9c-6.08,6.08,3.04,10.64,15.19,6.08
		c57.74-47.1,153.46-147.38,173.21-174.73c19.75,1.52,37.99-39.5,65.34-16.71c-16.71,13.68-45.58,39.5-41.02,65.33
		c15.19-18.23,37.99-42.54,53.18-37.99l4.56,1.52c-22.79,25.83-60.77,75.97-85.09,115.47l10.64,3.04
		C890.6,161.17,933.15,106.48,978.73,68.49z M140.02,533.43c-1.52,12.16,3.04,24.31,13.67,24.31l3.04-24.31H140.02z M149.14,489.36
		l-6.08,27.35l16.71,6.08C159.77,509.12,171.93,489.36,149.14,489.36z M601.92,462.01l9.12,18.23
		c25.83-27.35,24.31-45.58,13.67-51.66L601.92,462.01z M671.81,355.66c9.12,7.6,18.23,9.12,24.31,9.12
		c15.19-1.52,24.31-18.23,25.83-37.98L671.81,355.66z M775.13,355.66l-13.67-12.16c6.08-15.19,16.71-19.75,25.83-13.67
		L775.13,355.66z M834.39,212.83l-31.91,31.91c-18.23,9.12-12.15,31.91,7.6,16.71c21.27-16.71,34.95-37.99,39.5-47.1
		C840.46,218.91,835.9,209.79,834.39,212.83z M948.34,38.1c4.56-6.08,12.15-10.64,18.23-10.64c4.56,0,9.12,1.52,13.67,9.12
		c-7.6,4.56-15.19,10.64-30.39,27.35c-3.04-4.56-9.12-4.56-15.19-4.56C937.7,53.3,942.26,45.7,948.34,38.1z"/>
</g>
</svg>
