<?xml version="1.0" encoding="utf-8"?>
<!-- Generator: Adobe Illustrator 23.0.0, SVG Export Plug-In . SVG Version: 6.00 Build 0)  -->
<svg version="1.1" id="layer" xmlns="http://www.w3.org/2000/svg" xmlns:xlink="http://www.w3.org/1999/xlink" x="0px" y="0px"
	 viewBox="0 0 1000 1000" style="enable-background:new 0 0 1000 1000;" xml:space="preserve">
<style type="text/css">
	.st0{fill:#666666;}
</style>
<path class="st0" d="M931.1,535.35c-44.15-104.38-107.35-198.13-187.85-278.62C662.77,176.24,569.02,113.05,464.64,68.9
	C356.56,23.17,241.76,0,123.43,0C55.37,0,0,55.37,0,123.43c0,68.07,55.37,123.44,123.43,123.44
	c347.21,0,629.69,282.47,629.69,629.69c0,68.06,55.37,123.43,123.44,123.43C944.63,1000,1000,944.63,1000,876.57
	C1000,758.23,976.83,643.43,931.1,535.35z M876.57,941.41c-35.76,0-64.84-29.09-64.84-64.84c0-92.91-18.21-183.06-54.1-267.93
	c-34.66-81.97-84.3-155.57-147.49-218.77c-63.2-63.2-136.81-112.81-218.77-147.49c-84.87-35.9-175.01-54.09-267.92-54.09
	c-35.76,0-64.84-29.09-64.84-64.85s29.1-64.84,64.84-64.84c451.02,0,817.97,366.93,817.97,817.97
	C941.41,912.31,912.31,941.41,876.57,941.41z"/>
<path class="st0" d="M123.43,376.57C55.37,376.57,0,431.94,0,500s55.37,123.43,123.43,123.43c139.57,0,253.13,113.55,253.13,253.13
	C376.57,944.63,431.94,1000,500,1000s123.43-55.37,123.43-123.43c0-133.57-52.01-259.13-146.44-353.56S257,376.57,123.43,376.57z
	 M500,941.41c-35.76,0-64.84-29.09-64.84-64.84c0-171.88-139.84-311.72-311.72-311.72c-35.76,0-64.84-29.09-64.84-64.84
	c0-35.76,29.09-64.84,64.84-64.84c243.4,0,441.41,198.01,441.41,441.41C564.84,912.31,535.76,941.41,500,941.41z"/>
<path class="st0" d="M123.43,753.12C55.37,753.12,0,808.5,0,876.57C0,944.63,55.37,1000,123.43,1000s123.43-55.37,123.43-123.43
	C246.87,808.5,191.5,753.12,123.43,753.12z M123.43,941.41c-35.76,0-64.84-29.09-64.84-64.84c0-35.76,29.09-64.85,64.84-64.85
	c35.76,0,64.84,29.09,64.84,64.85C188.28,912.31,159.2,941.41,123.43,941.41z"/>
</svg>
