<?xml version="1.0" encoding="utf-8"?>
<!-- Generator: Adobe Illustrator 23.0.0, SVG Export Plug-In . SVG Version: 6.00 Build 0)  -->
<svg version="1.1" id="图层_1" xmlns="http://www.w3.org/2000/svg" xmlns:xlink="http://www.w3.org/1999/xlink" x="0px" y="0px"
	 viewBox="0 0 320 320" style="enable-background:new 0 0 320 320;" xml:space="preserve">
<g>
	<g>
		<rect x="15" y="15" width="10" height="10"/>
	</g>
	<g>
		<rect x="15" y="25" width="10" height="10"/>
	</g>
	<g>
		<rect x="15" y="35" width="10" height="10"/>
	</g>
	<g>
		<rect x="15" y="45" width="10" height="10"/>
	</g>
	<g>
		<rect x="15" y="55" width="10" height="10"/>
	</g>
	<g>
		<rect x="15" y="65" width="10" height="10"/>
	</g>
	<g>
		<rect x="15" y="75" width="10" height="10"/>
	</g>
	<g>
		<rect x="15" y="95" width="10" height="10"/>
	</g>
	<g>
		<rect x="15" y="105" width="10" height="10"/>
	</g>
	<g>
		<rect x="15" y="125" width="10" height="10"/>
	</g>
	<g>
		<rect x="15" y="155" width="10" height="10"/>
	</g>
	<g>
		<rect x="15" y="185" width="10" height="10"/>
	</g>
	<g>
		<rect x="15" y="195" width="10" height="10"/>
	</g>
	<g>
		<rect x="15" y="205" width="10" height="10"/>
	</g>
	<g>
		<rect x="15" y="215" width="10" height="10"/>
	</g>
	<g>
		<rect x="15" y="235" width="10" height="10"/>
	</g>
	<g>
		<rect x="15" y="245" width="10" height="10"/>
	</g>
	<g>
		<rect x="15" y="255" width="10" height="10"/>
	</g>
	<g>
		<rect x="15" y="265" width="10" height="10"/>
	</g>
	<g>
		<rect x="15" y="275" width="10" height="10"/>
	</g>
	<g>
		<rect x="15" y="285" width="10" height="10"/>
	</g>
	<g>
		<rect x="15" y="295" width="10" height="10"/>
	</g>
	<g>
		<rect x="25" y="15" width="10" height="10"/>
	</g>
	<g>
		<rect x="25" y="75" width="10" height="10"/>
	</g>
	<g>
		<rect x="25" y="95" width="10" height="10"/>
	</g>
	<g>
		<rect x="25" y="115" width="10" height="10"/>
	</g>
	<g>
		<rect x="25" y="135" width="10" height="10"/>
	</g>
	<g>
		<rect x="25" y="145" width="10" height="10"/>
	</g>
	<g>
		<rect x="25" y="155" width="10" height="10"/>
	</g>
	<g>
		<rect x="25" y="175" width="10" height="10"/>
	</g>
	<g>
		<rect x="25" y="185" width="10" height="10"/>
	</g>
	<g>
		<rect x="25" y="235" width="10" height="10"/>
	</g>
	<g>
		<rect x="25" y="295" width="10" height="10"/>
	</g>
	<g>
		<rect x="35" y="15" width="10" height="10"/>
	</g>
	<g>
		<rect x="35" y="35" width="10" height="10"/>
	</g>
	<g>
		<rect x="35" y="45" width="10" height="10"/>
	</g>
	<g>
		<rect x="35" y="55" width="10" height="10"/>
	</g>
	<g>
		<rect x="35" y="75" width="10" height="10"/>
	</g>
	<g>
		<rect x="35" y="95" width="10" height="10"/>
	</g>
	<g>
		<rect x="35" y="105" width="10" height="10"/>
	</g>
	<g>
		<rect x="35" y="125" width="10" height="10"/>
	</g>
	<g>
		<rect x="35" y="155" width="10" height="10"/>
	</g>
	<g>
		<rect x="35" y="185" width="10" height="10"/>
	</g>
	<g>
		<rect x="35" y="215" width="10" height="10"/>
	</g>
	<g>
		<rect x="35" y="235" width="10" height="10"/>
	</g>
	<g>
		<rect x="35" y="255" width="10" height="10"/>
	</g>
	<g>
		<rect x="35" y="265" width="10" height="10"/>
	</g>
	<g>
		<rect x="35" y="275" width="10" height="10"/>
	</g>
	<g>
		<rect x="35" y="295" width="10" height="10"/>
	</g>
	<g>
		<rect x="45" y="15" width="10" height="10"/>
	</g>
	<g>
		<rect x="45" y="35" width="10" height="10"/>
	</g>
	<g>
		<rect x="45" y="45" width="10" height="10"/>
	</g>
	<g>
		<rect x="45" y="55" width="10" height="10"/>
	</g>
	<g>
		<rect x="45" y="75" width="10" height="10"/>
	</g>
	<g>
		<rect x="45" y="95" width="10" height="10"/>
	</g>
	<g>
		<rect x="45" y="125" width="10" height="10"/>
	</g>
	<g>
		<rect x="45" y="155" width="10" height="10"/>
	</g>
	<g>
		<rect x="45" y="165" width="10" height="10"/>
	</g>
	<g>
		<rect x="45" y="185" width="10" height="10"/>
	</g>
	<g>
		<rect x="45" y="195" width="10" height="10"/>
	</g>
	<g>
		<rect x="45" y="205" width="10" height="10"/>
	</g>
	<g>
		<rect x="45" y="235" width="10" height="10"/>
	</g>
	<g>
		<rect x="45" y="255" width="10" height="10"/>
	</g>
	<g>
		<rect x="45" y="265" width="10" height="10"/>
	</g>
	<g>
		<rect x="45" y="275" width="10" height="10"/>
	</g>
	<g>
		<rect x="45" y="295" width="10" height="10"/>
	</g>
	<g>
		<rect x="55" y="15" width="10" height="10"/>
	</g>
	<g>
		<rect x="55" y="35" width="10" height="10"/>
	</g>
	<g>
		<rect x="55" y="45" width="10" height="10"/>
	</g>
	<g>
		<rect x="55" y="55" width="10" height="10"/>
	</g>
	<g>
		<rect x="55" y="75" width="10" height="10"/>
	</g>
	<g>
		<rect x="55" y="95" width="10" height="10"/>
	</g>
	<g>
		<rect x="55" y="135" width="10" height="10"/>
	</g>
	<g>
		<rect x="55" y="145" width="10" height="10"/>
	</g>
	<g>
		<rect x="55" y="155" width="10" height="10"/>
	</g>
	<g>
		<rect x="55" y="165" width="10" height="10"/>
	</g>
	<g>
		<rect x="55" y="175" width="10" height="10"/>
	</g>
	<g>
		<rect x="55" y="185" width="10" height="10"/>
	</g>
	<g>
		<rect x="55" y="235" width="10" height="10"/>
	</g>
	<g>
		<rect x="55" y="255" width="10" height="10"/>
	</g>
	<g>
		<rect x="55" y="265" width="10" height="10"/>
	</g>
	<g>
		<rect x="55" y="275" width="10" height="10"/>
	</g>
	<g>
		<rect x="55" y="295" width="10" height="10"/>
	</g>
	<g>
		<rect x="65" y="15" width="10" height="10"/>
	</g>
	<g>
		<rect x="65" y="75" width="10" height="10"/>
	</g>
	<g>
		<rect x="65" y="105" width="10" height="10"/>
	</g>
	<g>
		<rect x="65" y="115" width="10" height="10"/>
	</g>
	<g>
		<rect x="65" y="125" width="10" height="10"/>
	</g>
	<g>
		<rect x="65" y="135" width="10" height="10"/>
	</g>
	<g>
		<rect x="65" y="145" width="10" height="10"/>
	</g>
	<g>
		<rect x="65" y="195" width="10" height="10"/>
	</g>
	<g>
		<rect x="65" y="215" width="10" height="10"/>
	</g>
	<g>
		<rect x="65" y="235" width="10" height="10"/>
	</g>
	<g>
		<rect x="65" y="295" width="10" height="10"/>
	</g>
	<g>
		<rect x="75" y="15" width="10" height="10"/>
	</g>
	<g>
		<rect x="75" y="25" width="10" height="10"/>
	</g>
	<g>
		<rect x="75" y="35" width="10" height="10"/>
	</g>
	<g>
		<rect x="75" y="45" width="10" height="10"/>
	</g>
	<g>
		<rect x="75" y="55" width="10" height="10"/>
	</g>
	<g>
		<rect x="75" y="65" width="10" height="10"/>
	</g>
	<g>
		<rect x="75" y="75" width="10" height="10"/>
	</g>
	<g>
		<rect x="75" y="95" width="10" height="10"/>
	</g>
	<g>
		<rect x="75" y="115" width="10" height="10"/>
	</g>
	<g>
		<rect x="75" y="135" width="10" height="10"/>
	</g>
	<g>
		<rect x="75" y="155" width="10" height="10"/>
	</g>
	<g>
		<rect x="75" y="175" width="10" height="10"/>
	</g>
	<g>
		<rect x="75" y="195" width="10" height="10"/>
	</g>
	<g>
		<rect x="75" y="215" width="10" height="10"/>
	</g>
	<g>
		<rect x="75" y="235" width="10" height="10"/>
	</g>
	<g>
		<rect x="75" y="245" width="10" height="10"/>
	</g>
	<g>
		<rect x="75" y="255" width="10" height="10"/>
	</g>
	<g>
		<rect x="75" y="265" width="10" height="10"/>
	</g>
	<g>
		<rect x="75" y="275" width="10" height="10"/>
	</g>
	<g>
		<rect x="75" y="285" width="10" height="10"/>
	</g>
	<g>
		<rect x="75" y="295" width="10" height="10"/>
	</g>
	<g>
		<rect x="85" y="95" width="10" height="10"/>
	</g>
	<g>
		<rect x="85" y="125" width="10" height="10"/>
	</g>
	<g>
		<rect x="85" y="135" width="10" height="10"/>
	</g>
	<g>
		<rect x="85" y="145" width="10" height="10"/>
	</g>
	<g>
		<rect x="85" y="155" width="10" height="10"/>
	</g>
	<g>
		<rect x="85" y="165" width="10" height="10"/>
	</g>
	<g>
		<rect x="85" y="205" width="10" height="10"/>
	</g>
	<g>
		<rect x="85" y="215" width="10" height="10"/>
	</g>
	<g>
		<rect x="95" y="25" width="10" height="10"/>
	</g>
	<g>
		<rect x="95" y="45" width="10" height="10"/>
	</g>
	<g>
		<rect x="95" y="65" width="10" height="10"/>
	</g>
	<g>
		<rect x="95" y="75" width="10" height="10"/>
	</g>
	<g>
		<rect x="95" y="95" width="10" height="10"/>
	</g>
	<g>
		<rect x="95" y="105" width="10" height="10"/>
	</g>
	<g>
		<rect x="95" y="155" width="10" height="10"/>
	</g>
	<g>
		<rect x="95" y="175" width="10" height="10"/>
	</g>
	<g>
		<rect x="95" y="205" width="10" height="10"/>
	</g>
	<g>
		<rect x="95" y="215" width="10" height="10"/>
	</g>
	<g>
		<rect x="95" y="225" width="10" height="10"/>
	</g>
	<g>
		<rect x="95" y="235" width="10" height="10"/>
	</g>
	<g>
		<rect x="95" y="255" width="10" height="10"/>
	</g>
	<g>
		<rect x="95" y="265" width="10" height="10"/>
	</g>
	<g>
		<rect x="95" y="275" width="10" height="10"/>
	</g>
	<g>
		<rect x="95" y="285" width="10" height="10"/>
	</g>
	<g>
		<rect x="95" y="295" width="10" height="10"/>
	</g>
	<g>
		<rect x="105" y="45" width="10" height="10"/>
	</g>
	<g>
		<rect x="105" y="55" width="10" height="10"/>
	</g>
	<g>
		<rect x="105" y="65" width="10" height="10"/>
	</g>
	<g>
		<rect x="105" y="85" width="10" height="10"/>
	</g>
	<g>
		<rect x="105" y="95" width="10" height="10"/>
	</g>
	<g>
		<rect x="105" y="135" width="10" height="10"/>
	</g>
	<g>
		<rect x="105" y="145" width="10" height="10"/>
	</g>
	<g>
		<rect x="105" y="155" width="10" height="10"/>
	</g>
	<g>
		<rect x="105" y="175" width="10" height="10"/>
	</g>
	<g>
		<rect x="105" y="195" width="10" height="10"/>
	</g>
	<g>
		<rect x="105" y="215" width="10" height="10"/>
	</g>
	<g>
		<rect x="105" y="265" width="10" height="10"/>
	</g>
	<g>
		<rect x="105" y="275" width="10" height="10"/>
	</g>
	<g>
		<rect x="105" y="285" width="10" height="10"/>
	</g>
	<g>
		<rect x="115" y="15" width="10" height="10"/>
	</g>
	<g>
		<rect x="115" y="25" width="10" height="10"/>
	</g>
	<g>
		<rect x="115" y="45" width="10" height="10"/>
	</g>
	<g>
		<rect x="115" y="75" width="10" height="10"/>
	</g>
	<g>
		<rect x="115" y="85" width="10" height="10"/>
	</g>
	<g>
		<rect x="115" y="105" width="10" height="10"/>
	</g>
	<g>
		<rect x="115" y="115" width="10" height="10"/>
	</g>
	<g>
		<rect x="115" y="135" width="10" height="10"/>
	</g>
	<g>
		<rect x="115" y="155" width="10" height="10"/>
	</g>
	<g>
		<rect x="115" y="175" width="10" height="10"/>
	</g>
	<g>
		<rect x="115" y="185" width="10" height="10"/>
	</g>
	<g>
		<rect x="115" y="205" width="10" height="10"/>
	</g>
	<g>
		<rect x="115" y="215" width="10" height="10"/>
	</g>
	<g>
		<rect x="115" y="245" width="10" height="10"/>
	</g>
	<g>
		<rect x="115" y="255" width="10" height="10"/>
	</g>
	<g>
		<rect x="115" y="265" width="10" height="10"/>
	</g>
	<g>
		<rect x="115" y="285" width="10" height="10"/>
	</g>
	<g>
		<rect x="115" y="295" width="10" height="10"/>
	</g>
	<g>
		<rect x="125" y="65" width="10" height="10"/>
	</g>
	<g>
		<rect x="125" y="85" width="10" height="10"/>
	</g>
	<g>
		<rect x="125" y="95" width="10" height="10"/>
	</g>
	<g>
		<rect x="125" y="155" width="10" height="10"/>
	</g>
	<g>
		<rect x="125" y="165" width="10" height="10"/>
	</g>
	<g>
		<rect x="125" y="175" width="10" height="10"/>
	</g>
	<g>
		<rect x="125" y="235" width="10" height="10"/>
	</g>
	<g>
		<rect x="125" y="245" width="10" height="10"/>
	</g>
	<g>
		<rect x="125" y="255" width="10" height="10"/>
	</g>
	<g>
		<rect x="135" y="15" width="10" height="10"/>
	</g>
	<g>
		<rect x="135" y="35" width="10" height="10"/>
	</g>
	<g>
		<rect x="135" y="45" width="10" height="10"/>
	</g>
	<g>
		<rect x="135" y="65" width="10" height="10"/>
	</g>
	<g>
		<rect x="135" y="75" width="10" height="10"/>
	</g>
	<g>
		<rect x="135" y="105" width="10" height="10"/>
	</g>
	<g>
		<rect x="135" y="125" width="10" height="10"/>
	</g>
	<g>
		<rect x="135" y="135" width="10" height="10"/>
	</g>
	<g>
		<rect x="135" y="155" width="10" height="10"/>
	</g>
	<g>
		<rect x="135" y="185" width="10" height="10"/>
	</g>
	<g>
		<rect x="135" y="205" width="10" height="10"/>
	</g>
	<g>
		<rect x="135" y="215" width="10" height="10"/>
	</g>
	<g>
		<rect x="135" y="235" width="10" height="10"/>
	</g>
	<g>
		<rect x="135" y="265" width="10" height="10"/>
	</g>
	<g>
		<rect x="135" y="285" width="10" height="10"/>
	</g>
	<g>
		<rect x="135" y="295" width="10" height="10"/>
	</g>
	<g>
		<rect x="145" y="35" width="10" height="10"/>
	</g>
	<g>
		<rect x="145" y="45" width="10" height="10"/>
	</g>
	<g>
		<rect x="145" y="125" width="10" height="10"/>
	</g>
	<g>
		<rect x="145" y="165" width="10" height="10"/>
	</g>
	<g>
		<rect x="145" y="185" width="10" height="10"/>
	</g>
	<g>
		<rect x="145" y="265" width="10" height="10"/>
	</g>
	<g>
		<rect x="145" y="275" width="10" height="10"/>
	</g>
	<g>
		<rect x="145" y="285" width="10" height="10"/>
	</g>
	<g>
		<rect x="155" y="25" width="10" height="10"/>
	</g>
	<g>
		<rect x="155" y="35" width="10" height="10"/>
	</g>
	<g>
		<rect x="155" y="65" width="10" height="10"/>
	</g>
	<g>
		<rect x="155" y="75" width="10" height="10"/>
	</g>
	<g>
		<rect x="155" y="85" width="10" height="10"/>
	</g>
	<g>
		<rect x="155" y="145" width="10" height="10"/>
	</g>
	<g>
		<rect x="155" y="165" width="10" height="10"/>
	</g>
	<g>
		<rect x="155" y="185" width="10" height="10"/>
	</g>
	<g>
		<rect x="155" y="205" width="10" height="10"/>
	</g>
	<g>
		<rect x="155" y="215" width="10" height="10"/>
	</g>
	<g>
		<rect x="155" y="275" width="10" height="10"/>
	</g>
	<g>
		<rect x="155" y="295" width="10" height="10"/>
	</g>
	<g>
		<rect x="165" y="15" width="10" height="10"/>
	</g>
	<g>
		<rect x="165" y="45" width="10" height="10"/>
	</g>
	<g>
		<rect x="165" y="55" width="10" height="10"/>
	</g>
	<g>
		<rect x="165" y="85" width="10" height="10"/>
	</g>
	<g>
		<rect x="165" y="105" width="10" height="10"/>
	</g>
	<g>
		<rect x="165" y="115" width="10" height="10"/>
	</g>
	<g>
		<rect x="165" y="125" width="10" height="10"/>
	</g>
	<g>
		<rect x="165" y="135" width="10" height="10"/>
	</g>
	<g>
		<rect x="165" y="145" width="10" height="10"/>
	</g>
	<g>
		<rect x="165" y="155" width="10" height="10"/>
	</g>
	<g>
		<rect x="165" y="165" width="10" height="10"/>
	</g>
	<g>
		<rect x="165" y="175" width="10" height="10"/>
	</g>
	<g>
		<rect x="165" y="195" width="10" height="10"/>
	</g>
	<g>
		<rect x="165" y="205" width="10" height="10"/>
	</g>
	<g>
		<rect x="165" y="215" width="10" height="10"/>
	</g>
	<g>
		<rect x="165" y="225" width="10" height="10"/>
	</g>
	<g>
		<rect x="165" y="235" width="10" height="10"/>
	</g>
	<g>
		<rect x="165" y="255" width="10" height="10"/>
	</g>
	<g>
		<rect x="165" y="265" width="10" height="10"/>
	</g>
	<g>
		<rect x="165" y="275" width="10" height="10"/>
	</g>
	<g>
		<rect x="165" y="285" width="10" height="10"/>
	</g>
	<g>
		<rect x="165" y="295" width="10" height="10"/>
	</g>
	<g>
		<rect x="175" y="25" width="10" height="10"/>
	</g>
	<g>
		<rect x="175" y="45" width="10" height="10"/>
	</g>
	<g>
		<rect x="175" y="55" width="10" height="10"/>
	</g>
	<g>
		<rect x="175" y="65" width="10" height="10"/>
	</g>
	<g>
		<rect x="175" y="75" width="10" height="10"/>
	</g>
	<g>
		<rect x="175" y="85" width="10" height="10"/>
	</g>
	<g>
		<rect x="175" y="95" width="10" height="10"/>
	</g>
	<g>
		<rect x="175" y="135" width="10" height="10"/>
	</g>
	<g>
		<rect x="175" y="155" width="10" height="10"/>
	</g>
	<g>
		<rect x="175" y="165" width="10" height="10"/>
	</g>
	<g>
		<rect x="175" y="185" width="10" height="10"/>
	</g>
	<g>
		<rect x="175" y="205" width="10" height="10"/>
	</g>
	<g>
		<rect x="175" y="225" width="10" height="10"/>
	</g>
	<g>
		<rect x="175" y="245" width="10" height="10"/>
	</g>
	<g>
		<rect x="175" y="265" width="10" height="10"/>
	</g>
	<g>
		<rect x="175" y="295" width="10" height="10"/>
	</g>
	<g>
		<rect x="185" y="25" width="10" height="10"/>
	</g>
	<g>
		<rect x="185" y="45" width="10" height="10"/>
	</g>
	<g>
		<rect x="185" y="65" width="10" height="10"/>
	</g>
	<g>
		<rect x="185" y="95" width="10" height="10"/>
	</g>
	<g>
		<rect x="185" y="115" width="10" height="10"/>
	</g>
	<g>
		<rect x="185" y="135" width="10" height="10"/>
	</g>
	<g>
		<rect x="185" y="155" width="10" height="10"/>
	</g>
	<g>
		<rect x="185" y="175" width="10" height="10"/>
	</g>
	<g>
		<rect x="185" y="215" width="10" height="10"/>
	</g>
	<g>
		<rect x="185" y="255" width="10" height="10"/>
	</g>
	<g>
		<rect x="185" y="295" width="10" height="10"/>
	</g>
	<g>
		<rect x="195" y="15" width="10" height="10"/>
	</g>
	<g>
		<rect x="195" y="25" width="10" height="10"/>
	</g>
	<g>
		<rect x="195" y="35" width="10" height="10"/>
	</g>
	<g>
		<rect x="195" y="45" width="10" height="10"/>
	</g>
	<g>
		<rect x="195" y="65" width="10" height="10"/>
	</g>
	<g>
		<rect x="195" y="75" width="10" height="10"/>
	</g>
	<g>
		<rect x="195" y="95" width="10" height="10"/>
	</g>
	<g>
		<rect x="195" y="125" width="10" height="10"/>
	</g>
	<g>
		<rect x="195" y="135" width="10" height="10"/>
	</g>
	<g>
		<rect x="195" y="155" width="10" height="10"/>
	</g>
	<g>
		<rect x="195" y="185" width="10" height="10"/>
	</g>
	<g>
		<rect x="195" y="205" width="10" height="10"/>
	</g>
	<g>
		<rect x="195" y="215" width="10" height="10"/>
	</g>
	<g>
		<rect x="195" y="235" width="10" height="10"/>
	</g>
	<g>
		<rect x="195" y="265" width="10" height="10"/>
	</g>
	<g>
		<rect x="195" y="295" width="10" height="10"/>
	</g>
	<g>
		<rect x="205" y="35" width="10" height="10"/>
	</g>
	<g>
		<rect x="205" y="55" width="10" height="10"/>
	</g>
	<g>
		<rect x="205" y="85" width="10" height="10"/>
	</g>
	<g>
		<rect x="205" y="105" width="10" height="10"/>
	</g>
	<g>
		<rect x="205" y="125" width="10" height="10"/>
	</g>
	<g>
		<rect x="205" y="145" width="10" height="10"/>
	</g>
	<g>
		<rect x="205" y="185" width="10" height="10"/>
	</g>
	<g>
		<rect x="205" y="205" width="10" height="10"/>
	</g>
	<g>
		<rect x="205" y="225" width="10" height="10"/>
	</g>
	<g>
		<rect x="205" y="235" width="10" height="10"/>
	</g>
	<g>
		<rect x="205" y="275" width="10" height="10"/>
	</g>
	<g>
		<rect x="205" y="285" width="10" height="10"/>
	</g>
	<g>
		<rect x="215" y="15" width="10" height="10"/>
	</g>
	<g>
		<rect x="215" y="35" width="10" height="10"/>
	</g>
	<g>
		<rect x="215" y="45" width="10" height="10"/>
	</g>
	<g>
		<rect x="215" y="65" width="10" height="10"/>
	</g>
	<g>
		<rect x="215" y="75" width="10" height="10"/>
	</g>
	<g>
		<rect x="215" y="85" width="10" height="10"/>
	</g>
	<g>
		<rect x="215" y="95" width="10" height="10"/>
	</g>
	<g>
		<rect x="215" y="125" width="10" height="10"/>
	</g>
	<g>
		<rect x="215" y="135" width="10" height="10"/>
	</g>
	<g>
		<rect x="215" y="155" width="10" height="10"/>
	</g>
	<g>
		<rect x="215" y="185" width="10" height="10"/>
	</g>
	<g>
		<rect x="215" y="195" width="10" height="10"/>
	</g>
	<g>
		<rect x="215" y="215" width="10" height="10"/>
	</g>
	<g>
		<rect x="215" y="225" width="10" height="10"/>
	</g>
	<g>
		<rect x="215" y="235" width="10" height="10"/>
	</g>
	<g>
		<rect x="215" y="245" width="10" height="10"/>
	</g>
	<g>
		<rect x="215" y="255" width="10" height="10"/>
	</g>
	<g>
		<rect x="215" y="265" width="10" height="10"/>
	</g>
	<g>
		<rect x="215" y="285" width="10" height="10"/>
	</g>
	<g>
		<rect x="225" y="95" width="10" height="10"/>
	</g>
	<g>
		<rect x="225" y="105" width="10" height="10"/>
	</g>
	<g>
		<rect x="225" y="135" width="10" height="10"/>
	</g>
	<g>
		<rect x="225" y="155" width="10" height="10"/>
	</g>
	<g>
		<rect x="225" y="175" width="10" height="10"/>
	</g>
	<g>
		<rect x="225" y="195" width="10" height="10"/>
	</g>
	<g>
		<rect x="225" y="205" width="10" height="10"/>
	</g>
	<g>
		<rect x="225" y="215" width="10" height="10"/>
	</g>
	<g>
		<rect x="225" y="255" width="10" height="10"/>
	</g>
	<g>
		<rect x="225" y="275" width="10" height="10"/>
	</g>
	<g>
		<rect x="225" y="295" width="10" height="10"/>
	</g>
	<g>
		<rect x="235" y="15" width="10" height="10"/>
	</g>
	<g>
		<rect x="235" y="25" width="10" height="10"/>
	</g>
	<g>
		<rect x="235" y="35" width="10" height="10"/>
	</g>
	<g>
		<rect x="235" y="45" width="10" height="10"/>
	</g>
	<g>
		<rect x="235" y="55" width="10" height="10"/>
	</g>
	<g>
		<rect x="235" y="65" width="10" height="10"/>
	</g>
	<g>
		<rect x="235" y="75" width="10" height="10"/>
	</g>
	<g>
		<rect x="235" y="105" width="10" height="10"/>
	</g>
	<g>
		<rect x="235" y="145" width="10" height="10"/>
	</g>
	<g>
		<rect x="235" y="155" width="10" height="10"/>
	</g>
	<g>
		<rect x="235" y="185" width="10" height="10"/>
	</g>
	<g>
		<rect x="235" y="205" width="10" height="10"/>
	</g>
	<g>
		<rect x="235" y="215" width="10" height="10"/>
	</g>
	<g>
		<rect x="235" y="235" width="10" height="10"/>
	</g>
	<g>
		<rect x="235" y="255" width="10" height="10"/>
	</g>
	<g>
		<rect x="235" y="275" width="10" height="10"/>
	</g>
	<g>
		<rect x="245" y="15" width="10" height="10"/>
	</g>
	<g>
		<rect x="245" y="75" width="10" height="10"/>
	</g>
	<g>
		<rect x="245" y="95" width="10" height="10"/>
	</g>
	<g>
		<rect x="245" y="105" width="10" height="10"/>
	</g>
	<g>
		<rect x="245" y="115" width="10" height="10"/>
	</g>
	<g>
		<rect x="245" y="135" width="10" height="10"/>
	</g>
	<g>
		<rect x="245" y="155" width="10" height="10"/>
	</g>
	<g>
		<rect x="245" y="165" width="10" height="10"/>
	</g>
	<g>
		<rect x="245" y="175" width="10" height="10"/>
	</g>
	<g>
		<rect x="245" y="205" width="10" height="10"/>
	</g>
	<g>
		<rect x="245" y="215" width="10" height="10"/>
	</g>
	<g>
		<rect x="245" y="255" width="10" height="10"/>
	</g>
	<g>
		<rect x="245" y="265" width="10" height="10"/>
	</g>
	<g>
		<rect x="245" y="285" width="10" height="10"/>
	</g>
	<g>
		<rect x="245" y="295" width="10" height="10"/>
	</g>
	<g>
		<rect x="255" y="15" width="10" height="10"/>
	</g>
	<g>
		<rect x="255" y="35" width="10" height="10"/>
	</g>
	<g>
		<rect x="255" y="45" width="10" height="10"/>
	</g>
	<g>
		<rect x="255" y="55" width="10" height="10"/>
	</g>
	<g>
		<rect x="255" y="75" width="10" height="10"/>
	</g>
	<g>
		<rect x="255" y="105" width="10" height="10"/>
	</g>
	<g>
		<rect x="255" y="125" width="10" height="10"/>
	</g>
	<g>
		<rect x="255" y="145" width="10" height="10"/>
	</g>
	<g>
		<rect x="255" y="165" width="10" height="10"/>
	</g>
	<g>
		<rect x="255" y="185" width="10" height="10"/>
	</g>
	<g>
		<rect x="255" y="195" width="10" height="10"/>
	</g>
	<g>
		<rect x="255" y="205" width="10" height="10"/>
	</g>
	<g>
		<rect x="255" y="215" width="10" height="10"/>
	</g>
	<g>
		<rect x="255" y="225" width="10" height="10"/>
	</g>
	<g>
		<rect x="255" y="235" width="10" height="10"/>
	</g>
	<g>
		<rect x="255" y="245" width="10" height="10"/>
	</g>
	<g>
		<rect x="255" y="255" width="10" height="10"/>
	</g>
	<g>
		<rect x="255" y="275" width="10" height="10"/>
	</g>
	<g>
		<rect x="255" y="285" width="10" height="10"/>
	</g>
	<g>
		<rect x="255" y="295" width="10" height="10"/>
	</g>
	<g>
		<rect x="265" y="15" width="10" height="10"/>
	</g>
	<g>
		<rect x="265" y="35" width="10" height="10"/>
	</g>
	<g>
		<rect x="265" y="45" width="10" height="10"/>
	</g>
	<g>
		<rect x="265" y="55" width="10" height="10"/>
	</g>
	<g>
		<rect x="265" y="75" width="10" height="10"/>
	</g>
	<g>
		<rect x="265" y="95" width="10" height="10"/>
	</g>
	<g>
		<rect x="265" y="115" width="10" height="10"/>
	</g>
	<g>
		<rect x="265" y="125" width="10" height="10"/>
	</g>
	<g>
		<rect x="265" y="145" width="10" height="10"/>
	</g>
	<g>
		<rect x="265" y="175" width="10" height="10"/>
	</g>
	<g>
		<rect x="265" y="185" width="10" height="10"/>
	</g>
	<g>
		<rect x="265" y="205" width="10" height="10"/>
	</g>
	<g>
		<rect x="265" y="235" width="10" height="10"/>
	</g>
	<g>
		<rect x="265" y="255" width="10" height="10"/>
	</g>
	<g>
		<rect x="265" y="285" width="10" height="10"/>
	</g>
	<g>
		<rect x="275" y="15" width="10" height="10"/>
	</g>
	<g>
		<rect x="275" y="35" width="10" height="10"/>
	</g>
	<g>
		<rect x="275" y="45" width="10" height="10"/>
	</g>
	<g>
		<rect x="275" y="55" width="10" height="10"/>
	</g>
	<g>
		<rect x="275" y="75" width="10" height="10"/>
	</g>
	<g>
		<rect x="275" y="135" width="10" height="10"/>
	</g>
	<g>
		<rect x="275" y="175" width="10" height="10"/>
	</g>
	<g>
		<rect x="275" y="195" width="10" height="10"/>
	</g>
	<g>
		<rect x="275" y="255" width="10" height="10"/>
	</g>
	<g>
		<rect x="275" y="275" width="10" height="10"/>
	</g>
	<g>
		<rect x="275" y="295" width="10" height="10"/>
	</g>
	<g>
		<rect x="285" y="15" width="10" height="10"/>
	</g>
	<g>
		<rect x="285" y="75" width="10" height="10"/>
	</g>
	<g>
		<rect x="285" y="95" width="10" height="10"/>
	</g>
	<g>
		<rect x="285" y="115" width="10" height="10"/>
	</g>
	<g>
		<rect x="285" y="155" width="10" height="10"/>
	</g>
	<g>
		<rect x="285" y="165" width="10" height="10"/>
	</g>
	<g>
		<rect x="285" y="175" width="10" height="10"/>
	</g>
	<g>
		<rect x="285" y="205" width="10" height="10"/>
	</g>
	<g>
		<rect x="285" y="215" width="10" height="10"/>
	</g>
	<g>
		<rect x="285" y="235" width="10" height="10"/>
	</g>
	<g>
		<rect x="285" y="255" width="10" height="10"/>
	</g>
	<g>
		<rect x="285" y="265" width="10" height="10"/>
	</g>
	<g>
		<rect x="285" y="275" width="10" height="10"/>
	</g>
	<g>
		<rect x="285" y="285" width="10" height="10"/>
	</g>
	<g>
		<rect x="295" y="15" width="10" height="10"/>
	</g>
	<g>
		<rect x="295" y="25" width="10" height="10"/>
	</g>
	<g>
		<rect x="295" y="35" width="10" height="10"/>
	</g>
	<g>
		<rect x="295" y="45" width="10" height="10"/>
	</g>
	<g>
		<rect x="295" y="55" width="10" height="10"/>
	</g>
	<g>
		<rect x="295" y="65" width="10" height="10"/>
	</g>
	<g>
		<rect x="295" y="75" width="10" height="10"/>
	</g>
	<g>
		<rect x="295" y="105" width="10" height="10"/>
	</g>
	<g>
		<rect x="295" y="125" width="10" height="10"/>
	</g>
	<g>
		<rect x="295" y="145" width="10" height="10"/>
	</g>
	<g>
		<rect x="295" y="175" width="10" height="10"/>
	</g>
	<g>
		<rect x="295" y="185" width="10" height="10"/>
	</g>
	<g>
		<rect x="295" y="225" width="10" height="10"/>
	</g>
	<g>
		<rect x="295" y="265" width="10" height="10"/>
	</g>
</g>
</svg>
