<?xml version="1.0" encoding="UTF-8" standalone="no"?><!DOCTYPE svg PUBLIC "-//W3C//DTD SVG 1.1//EN" "http://www.w3.org/Graphics/SVG/1.1/DTD/svg11.dtd"><svg width="100%" height="100%" viewBox="0 0 4500 4500" version="1.1" xmlns="http://www.w3.org/2000/svg" xmlns:xlink="http://www.w3.org/1999/xlink" xml:space="preserve" xmlns:serif="http://www.serif.com/" style="fill-rule:evenodd;clip-rule:evenodd;stroke-linejoin:round;stroke-miterlimit:1.41421;"><rect id="p" x="166.667" y="166.667" width="143.678" height="143.678"/><rect id="p1" serif:id="p" x="166.667" y="310.345" width="143.678" height="143.678"/><rect id="p2" serif:id="p" x="166.667" y="454.023" width="143.678" height="143.678"/><rect id="p3" serif:id="p" x="166.667" y="597.701" width="143.678" height="143.678"/><rect id="p4" serif:id="p" x="166.667" y="741.379" width="143.678" height="143.678"/><rect id="p5" serif:id="p" x="166.667" y="885.057" width="143.678" height="143.678"/><rect id="p6" serif:id="p" x="166.667" y="1028.74" width="143.678" height="143.678"/><rect id="p7" serif:id="p" x="166.667" y="1316.09" width="143.678" height="143.678"/><rect id="p8" serif:id="p" x="166.667" y="1459.77" width="143.678" height="143.678"/><rect id="p9" serif:id="p" x="166.667" y="1747.13" width="143.678" height="143.678"/><rect id="p10" serif:id="p" x="166.667" y="1890.81" width="143.678" height="143.678"/><rect id="p11" serif:id="p" x="166.667" y="2178.16" width="143.678" height="143.678"/><rect id="p12" serif:id="p" x="166.667" y="2609.2" width="143.678" height="143.678"/><rect id="p13" serif:id="p" x="166.667" y="3040.23" width="143.678" height="143.678"/><rect id="p14" serif:id="p" x="166.667" y="3327.59" width="143.678" height="143.678"/><rect id="p15" serif:id="p" x="166.667" y="3471.26" width="143.678" height="143.678"/><rect id="p16" serif:id="p" x="166.667" y="3614.94" width="143.678" height="143.678"/><rect id="p17" serif:id="p" x="166.667" y="3758.62" width="143.678" height="143.678"/><rect id="p18" serif:id="p" x="166.667" y="3902.3" width="143.678" height="143.678"/><rect id="p19" serif:id="p" x="166.667" y="4045.98" width="143.678" height="143.678"/><rect id="p20" serif:id="p" x="166.667" y="4189.65" width="143.678" height="143.678"/><rect id="p21" serif:id="p" x="310.345" y="166.667" width="143.678" height="143.678"/><rect id="p22" serif:id="p" x="310.345" y="1028.74" width="143.678" height="143.678"/><rect id="p23" serif:id="p" x="310.345" y="1316.09" width="143.678" height="143.678"/><rect id="p24" serif:id="p" x="310.345" y="1603.45" width="143.678" height="143.678"/><rect id="p25" serif:id="p" x="310.345" y="1890.81" width="143.678" height="143.678"/><rect id="p26" serif:id="p" x="310.345" y="2178.16" width="143.678" height="143.678"/><rect id="p27" serif:id="p" x="310.345" y="2321.84" width="143.678" height="143.678"/><rect id="p28" serif:id="p" x="310.345" y="2465.52" width="143.678" height="143.678"/><rect id="p29" serif:id="p" x="310.345" y="3040.23" width="143.678" height="143.678"/><rect id="p30" serif:id="p" x="310.345" y="3327.59" width="143.678" height="143.678"/><rect id="p31" serif:id="p" x="310.345" y="4189.65" width="143.678" height="143.678"/><rect id="p32" serif:id="p" x="454.023" y="166.667" width="143.678" height="143.678"/><rect id="p33" serif:id="p" x="454.023" y="454.023" width="143.678" height="143.678"/><rect id="p34" serif:id="p" x="454.023" y="597.701" width="143.678" height="143.678"/><rect id="p35" serif:id="p" x="454.023" y="741.379" width="143.678" height="143.678"/><rect id="p36" serif:id="p" x="454.023" y="1028.74" width="143.678" height="143.678"/><rect id="p37" serif:id="p" x="454.023" y="1603.45" width="143.678" height="143.678"/><rect id="p38" serif:id="p" x="454.023" y="1747.13" width="143.678" height="143.678"/><rect id="p39" serif:id="p" x="454.023" y="2034.48" width="143.678" height="143.678"/><rect id="p40" serif:id="p" x="454.023" y="2752.87" width="143.678" height="143.678"/><rect id="p41" serif:id="p" x="454.023" y="2896.55" width="143.678" height="143.678"/><rect id="p42" serif:id="p" x="454.023" y="3040.23" width="143.678" height="143.678"/><rect id="p43" serif:id="p" x="454.023" y="3327.59" width="143.678" height="143.678"/><rect id="p44" serif:id="p" x="454.023" y="3614.94" width="143.678" height="143.678"/><rect id="p45" serif:id="p" x="454.023" y="3758.62" width="143.678" height="143.678"/><rect id="p46" serif:id="p" x="454.023" y="3902.3" width="143.678" height="143.678"/><rect id="p47" serif:id="p" x="454.023" y="4189.65" width="143.678" height="143.678"/><rect id="p48" serif:id="p" x="597.701" y="166.667" width="143.678" height="143.678"/><rect id="p49" serif:id="p" x="597.701" y="454.023" width="143.678" height="143.678"/><rect id="p50" serif:id="p" x="597.701" y="597.701" width="143.678" height="143.678"/><rect id="p51" serif:id="p" x="597.701" y="741.379" width="143.678" height="143.678"/><rect id="p52" serif:id="p" x="597.701" y="1028.74" width="143.678" height="143.678"/><rect id="p53" serif:id="p" x="597.701" y="1747.13" width="143.678" height="143.678"/><rect id="p54" serif:id="p" x="597.701" y="2321.84" width="143.678" height="143.678"/><rect id="p55" serif:id="p" x="597.701" y="2465.52" width="143.678" height="143.678"/><rect id="p56" serif:id="p" x="597.701" y="2896.55" width="143.678" height="143.678"/><rect id="p57" serif:id="p" x="597.701" y="3327.59" width="143.678" height="143.678"/><rect id="p58" serif:id="p" x="597.701" y="3614.94" width="143.678" height="143.678"/><rect id="p59" serif:id="p" x="597.701" y="3758.62" width="143.678" height="143.678"/><rect id="p60" serif:id="p" x="597.701" y="3902.3" width="143.678" height="143.678"/><rect id="p61" serif:id="p" x="597.701" y="4189.65" width="143.678" height="143.678"/><rect id="p62" serif:id="p" x="741.379" y="166.667" width="143.678" height="143.678"/><rect id="p63" serif:id="p" x="741.379" y="454.023" width="143.678" height="143.678"/><rect id="p64" serif:id="p" x="741.379" y="597.701" width="143.678" height="143.678"/><rect id="p65" serif:id="p" x="741.379" y="741.379" width="143.678" height="143.678"/><rect id="p66" serif:id="p" x="741.379" y="1028.74" width="143.678" height="143.678"/><rect id="p67" serif:id="p" x="741.379" y="1316.09" width="143.678" height="143.678"/><rect id="p68" serif:id="p" x="741.379" y="1459.77" width="143.678" height="143.678"/><rect id="p69" serif:id="p" x="741.379" y="1747.13" width="143.678" height="143.678"/><rect id="p70" serif:id="p" x="741.379" y="1890.81" width="143.678" height="143.678"/><rect id="p71" serif:id="p" x="741.379" y="2178.16" width="143.678" height="143.678"/><rect id="p72" serif:id="p" x="741.379" y="2609.2" width="143.678" height="143.678"/><rect id="p73" serif:id="p" x="741.379" y="2752.87" width="143.678" height="143.678"/><rect id="p74" serif:id="p" x="741.379" y="2896.55" width="143.678" height="143.678"/><rect id="p75" serif:id="p" x="741.379" y="3040.23" width="143.678" height="143.678"/><rect id="p76" serif:id="p" x="741.379" y="3327.59" width="143.678" height="143.678"/><rect id="p77" serif:id="p" x="741.379" y="3614.94" width="143.678" height="143.678"/><rect id="p78" serif:id="p" x="741.379" y="3758.62" width="143.678" height="143.678"/><rect id="p79" serif:id="p" x="741.379" y="3902.3" width="143.678" height="143.678"/><rect id="p80" serif:id="p" x="741.379" y="4189.65" width="143.678" height="143.678"/><rect id="p81" serif:id="p" x="885.057" y="166.667" width="143.678" height="143.678"/><rect id="p82" serif:id="p" x="885.057" y="1028.74" width="143.678" height="143.678"/><rect id="p83" serif:id="p" x="885.057" y="1316.09" width="143.678" height="143.678"/><rect id="p84" serif:id="p" x="885.057" y="2178.16" width="143.678" height="143.678"/><rect id="p85" serif:id="p" x="885.057" y="2321.84" width="143.678" height="143.678"/><rect id="p86" serif:id="p" x="885.057" y="2465.52" width="143.678" height="143.678"/><rect id="p87" serif:id="p" x="885.057" y="2896.55" width="143.678" height="143.678"/><rect id="p88" serif:id="p" x="885.057" y="3327.59" width="143.678" height="143.678"/><rect id="p89" serif:id="p" x="885.057" y="4189.65" width="143.678" height="143.678"/><rect id="p90" serif:id="p" x="1028.74" y="166.667" width="143.678" height="143.678"/><rect id="p91" serif:id="p" x="1028.74" y="310.345" width="143.678" height="143.678"/><rect id="p92" serif:id="p" x="1028.74" y="454.023" width="143.678" height="143.678"/><rect id="p93" serif:id="p" x="1028.74" y="597.701" width="143.678" height="143.678"/><rect id="p94" serif:id="p" x="1028.74" y="741.379" width="143.678" height="143.678"/><rect id="p95" serif:id="p" x="1028.74" y="885.057" width="143.678" height="143.678"/><rect id="p96" serif:id="p" x="1028.74" y="1028.74" width="143.678" height="143.678"/><rect id="p97" serif:id="p" x="1028.74" y="1316.09" width="143.678" height="143.678"/><rect id="p98" serif:id="p" x="1028.74" y="1603.45" width="143.678" height="143.678"/><rect id="p99" serif:id="p" x="1028.74" y="1890.81" width="143.678" height="143.678"/><rect id="p100" serif:id="p" x="1028.74" y="2178.16" width="143.678" height="143.678"/><rect id="p101" serif:id="p" x="1028.74" y="2465.52" width="143.678" height="143.678"/><rect id="p102" serif:id="p" x="1028.74" y="2752.87" width="143.678" height="143.678"/><rect id="p103" serif:id="p" x="1028.74" y="3040.23" width="143.678" height="143.678"/><rect id="p104" serif:id="p" x="1028.74" y="3327.59" width="143.678" height="143.678"/><rect id="p105" serif:id="p" x="1028.74" y="3471.26" width="143.678" height="143.678"/><rect id="p106" serif:id="p" x="1028.74" y="3614.94" width="143.678" height="143.678"/><rect id="p107" serif:id="p" x="1028.74" y="3758.62" width="143.678" height="143.678"/><rect id="p108" serif:id="p" x="1028.74" y="3902.3" width="143.678" height="143.678"/><rect id="p109" serif:id="p" x="1028.74" y="4045.98" width="143.678" height="143.678"/><rect id="p110" serif:id="p" x="1028.74" y="4189.65" width="143.678" height="143.678"/><rect id="p111" serif:id="p" x="1172.41" y="1747.13" width="143.678" height="143.678"/><rect id="p112" serif:id="p" x="1172.41" y="2034.48" width="143.678" height="143.678"/><rect id="p113" serif:id="p" x="1172.41" y="2321.84" width="143.678" height="143.678"/><rect id="p114" serif:id="p" x="1172.41" y="2609.2" width="143.678" height="143.678"/><rect id="p115" serif:id="p" x="1172.41" y="3040.23" width="143.678" height="143.678"/><rect id="p116" serif:id="p" x="1316.09" y="166.667" width="143.678" height="143.678"/><rect id="p117" serif:id="p" x="1316.09" y="310.345" width="143.678" height="143.678"/><rect id="p118" serif:id="p" x="1316.09" y="454.023" width="143.678" height="143.678"/><rect id="p119" serif:id="p" x="1316.09" y="597.701" width="143.678" height="143.678"/><rect id="p120" serif:id="p" x="1316.09" y="885.057" width="143.678" height="143.678"/><rect id="p121" serif:id="p" x="1316.09" y="1028.74" width="143.678" height="143.678"/><rect id="p122" serif:id="p" x="1316.09" y="1459.77" width="143.678" height="143.678"/><rect id="p123" serif:id="p" x="1316.09" y="1603.45" width="143.678" height="143.678"/><rect id="p124" serif:id="p" x="1316.09" y="1747.13" width="143.678" height="143.678"/><rect id="p125" serif:id="p" x="1316.09" y="2034.48" width="143.678" height="143.678"/><rect id="p126" serif:id="p" x="1316.09" y="2178.16" width="143.678" height="143.678"/><rect id="p127" serif:id="p" x="1316.09" y="2465.52" width="143.678" height="143.678"/><rect id="p128" serif:id="p" x="1316.09" y="2609.2" width="143.678" height="143.678"/><rect id="p129" serif:id="p" x="1316.09" y="2896.55" width="143.678" height="143.678"/><rect id="p130" serif:id="p" x="1316.09" y="3040.23" width="143.678" height="143.678"/><rect id="p131" serif:id="p" x="1316.09" y="3183.91" width="143.678" height="143.678"/><rect id="p132" serif:id="p" x="1316.09" y="3471.26" width="143.678" height="143.678"/><rect id="p133" serif:id="p" x="1316.09" y="3614.94" width="143.678" height="143.678"/><rect id="p134" serif:id="p" x="1316.09" y="4045.98" width="143.678" height="143.678"/><rect id="p135" serif:id="p" x="1316.09" y="4189.65" width="143.678" height="143.678"/><rect id="p136" serif:id="p" x="1459.77" y="166.667" width="143.678" height="143.678"/><rect id="p137" serif:id="p" x="1459.77" y="310.345" width="143.678" height="143.678"/><rect id="p138" serif:id="p" x="1459.77" y="597.701" width="143.678" height="143.678"/><rect id="p139" serif:id="p" x="1459.77" y="1172.41" width="143.678" height="143.678"/><rect id="p140" serif:id="p" x="1459.77" y="1459.77" width="143.678" height="143.678"/><rect id="p141" serif:id="p" x="1459.77" y="2034.48" width="143.678" height="143.678"/><rect id="p142" serif:id="p" x="1459.77" y="2321.84" width="143.678" height="143.678"/><rect id="p143" serif:id="p" x="1459.77" y="2752.87" width="143.678" height="143.678"/><rect id="p144" serif:id="p" x="1459.77" y="2896.55" width="143.678" height="143.678"/><rect id="p145" serif:id="p" x="1459.77" y="3183.91" width="143.678" height="143.678"/><rect id="p146" serif:id="p" x="1459.77" y="3327.59" width="143.678" height="143.678"/><rect id="p147" serif:id="p" x="1459.77" y="3902.3" width="143.678" height="143.678"/><rect id="p148" serif:id="p" x="1459.77" y="4045.98" width="143.678" height="143.678"/><rect id="p149" serif:id="p" x="1603.45" y="166.667" width="143.678" height="143.678"/><rect id="p150" serif:id="p" x="1603.45" y="310.345" width="143.678" height="143.678"/><rect id="p151" serif:id="p" x="1603.45" y="454.023" width="143.678" height="143.678"/><rect id="p152" serif:id="p" x="1603.45" y="1028.74" width="143.678" height="143.678"/><rect id="p153" serif:id="p" x="1603.45" y="1459.77" width="143.678" height="143.678"/><rect id="p154" serif:id="p" x="1603.45" y="1747.13" width="143.678" height="143.678"/><rect id="p155" serif:id="p" x="1603.45" y="1890.81" width="143.678" height="143.678"/><rect id="p156" serif:id="p" x="1603.45" y="2178.16" width="143.678" height="143.678"/><rect id="p157" serif:id="p" x="1603.45" y="2321.84" width="143.678" height="143.678"/><rect id="p158" serif:id="p" x="1603.45" y="2465.52" width="143.678" height="143.678"/><rect id="p159" serif:id="p" x="1603.45" y="2609.2" width="143.678" height="143.678"/><rect id="p160" serif:id="p" x="1603.45" y="2752.87" width="143.678" height="143.678"/><rect id="p161" serif:id="p" x="1603.45" y="2896.55" width="143.678" height="143.678"/><rect id="p162" serif:id="p" x="1603.45" y="3183.91" width="143.678" height="143.678"/><rect id="p163" serif:id="p" x="1603.45" y="4045.98" width="143.678" height="143.678"/><rect id="p164" serif:id="p" x="1747.13" y="454.023" width="143.678" height="143.678"/><rect id="p165" serif:id="p" x="1747.13" y="597.701" width="143.678" height="143.678"/><rect id="p166" serif:id="p" x="1747.13" y="885.057" width="143.678" height="143.678"/><rect id="p167" serif:id="p" x="1747.13" y="1316.09" width="143.678" height="143.678"/><rect id="p168" serif:id="p" x="1747.13" y="1603.45" width="143.678" height="143.678"/><rect id="p169" serif:id="p" x="1747.13" y="1747.13" width="143.678" height="143.678"/><rect id="p170" serif:id="p" x="1747.13" y="2465.52" width="143.678" height="143.678"/><rect id="p171" serif:id="p" x="1747.13" y="2752.87" width="143.678" height="143.678"/><rect id="p172" serif:id="p" x="1747.13" y="2896.55" width="143.678" height="143.678"/><rect id="p173" serif:id="p" x="1747.13" y="3614.94" width="143.678" height="143.678"/><rect id="p174" serif:id="p" x="1747.13" y="3902.3" width="143.678" height="143.678"/><rect id="p175" serif:id="p" x="1747.13" y="4045.98" width="143.678" height="143.678"/><rect id="p176" serif:id="p" x="1890.81" y="166.667" width="143.678" height="143.678"/><rect id="p177" serif:id="p" x="1890.81" y="885.057" width="143.678" height="143.678"/><rect id="p178" serif:id="p" x="1890.81" y="1028.74" width="143.678" height="143.678"/><rect id="p179" serif:id="p" x="1890.81" y="1172.41" width="143.678" height="143.678"/><rect id="p180" serif:id="p" x="1890.81" y="1459.77" width="143.678" height="143.678"/><rect id="p181" serif:id="p" x="1890.81" y="1603.45" width="143.678" height="143.678"/><rect id="p182" serif:id="p" x="1890.81" y="1890.81" width="143.678" height="143.678"/><rect id="p183" serif:id="p" x="1890.81" y="2321.84" width="143.678" height="143.678"/><rect id="p184" serif:id="p" x="1890.81" y="2609.2" width="143.678" height="143.678"/><rect id="p185" serif:id="p" x="1890.81" y="2752.87" width="143.678" height="143.678"/><rect id="p186" serif:id="p" x="1890.81" y="3040.23" width="143.678" height="143.678"/><rect id="p187" serif:id="p" x="1890.81" y="3471.26" width="143.678" height="143.678"/><rect id="p188" serif:id="p" x="1890.81" y="3758.62" width="143.678" height="143.678"/><rect id="p189" serif:id="p" x="1890.81" y="3902.3" width="143.678" height="143.678"/><rect id="p190" serif:id="p" x="1890.81" y="4189.65" width="143.678" height="143.678"/><rect id="p191" serif:id="p" x="2034.48" y="454.023" width="143.678" height="143.678"/><rect id="p192" serif:id="p" x="2034.48" y="741.379" width="143.678" height="143.678"/><rect id="p193" serif:id="p" x="2034.48" y="885.057" width="143.678" height="143.678"/><rect id="p194" serif:id="p" x="2034.48" y="1316.09" width="143.678" height="143.678"/><rect id="p195" serif:id="p" x="2034.48" y="1603.45" width="143.678" height="143.678"/><rect id="p196" serif:id="p" x="2034.48" y="1747.13" width="143.678" height="143.678"/><rect id="p197" serif:id="p" x="2034.48" y="1890.81" width="143.678" height="143.678"/><rect id="p198" serif:id="p" x="2034.48" y="2034.48" width="143.678" height="143.678"/><rect id="p199" serif:id="p" x="2034.48" y="2465.52" width="143.678" height="143.678"/><rect id="p200" serif:id="p" x="2034.48" y="2752.87" width="143.678" height="143.678"/><rect id="p201" serif:id="p" x="2034.48" y="2896.55" width="143.678" height="143.678"/><rect id="p202" serif:id="p" x="2034.48" y="3040.23" width="143.678" height="143.678"/><rect id="p203" serif:id="p" x="2034.48" y="3183.91" width="143.678" height="143.678"/><rect id="p204" serif:id="p" x="2034.48" y="3614.94" width="143.678" height="143.678"/><rect id="p205" serif:id="p" x="2034.48" y="3902.3" width="143.678" height="143.678"/><rect id="p206" serif:id="p" x="2034.48" y="4045.98" width="143.678" height="143.678"/><rect id="p207" serif:id="p" x="2034.48" y="4189.65" width="143.678" height="143.678"/><rect id="p208" serif:id="p" x="2178.16" y="597.701" width="143.678" height="143.678"/><rect id="p209" serif:id="p" x="2178.16" y="741.379" width="143.678" height="143.678"/><rect id="p210" serif:id="p" x="2178.16" y="885.057" width="143.678" height="143.678"/><rect id="p211" serif:id="p" x="2178.16" y="1028.74" width="143.678" height="143.678"/><rect id="p212" serif:id="p" x="2178.16" y="1172.41" width="143.678" height="143.678"/><rect id="p213" serif:id="p" x="2178.16" y="1316.09" width="143.678" height="143.678"/><rect id="p214" serif:id="p" x="2178.16" y="1603.45" width="143.678" height="143.678"/><rect id="p215" serif:id="p" x="2178.16" y="2034.48" width="143.678" height="143.678"/><rect id="p216" serif:id="p" x="2178.16" y="2321.84" width="143.678" height="143.678"/><rect id="p217" serif:id="p" x="2178.16" y="2465.52" width="143.678" height="143.678"/><rect id="p218" serif:id="p" x="2178.16" y="2752.87" width="143.678" height="143.678"/><rect id="p219" serif:id="p" x="2178.16" y="3183.91" width="143.678" height="143.678"/><rect id="p220" serif:id="p" x="2178.16" y="3471.26" width="143.678" height="143.678"/><rect id="p221" serif:id="p" x="2178.16" y="3614.94" width="143.678" height="143.678"/><rect id="p222" serif:id="p" x="2178.16" y="3902.3" width="143.678" height="143.678"/><rect id="p223" serif:id="p" x="2321.84" y="454.023" width="143.678" height="143.678"/><rect id="p224" serif:id="p" x="2321.84" y="597.701" width="143.678" height="143.678"/><rect id="p225" serif:id="p" x="2321.84" y="885.057" width="143.678" height="143.678"/><rect id="p226" serif:id="p" x="2321.84" y="1316.09" width="143.678" height="143.678"/><rect id="p227" serif:id="p" x="2321.84" y="1603.45" width="143.678" height="143.678"/><rect id="p228" serif:id="p" x="2321.84" y="1747.13" width="143.678" height="143.678"/><rect id="p229" serif:id="p" x="2321.84" y="2321.84" width="143.678" height="143.678"/><rect id="p230" serif:id="p" x="2321.84" y="3040.23" width="143.678" height="143.678"/><rect id="p231" serif:id="p" x="2321.84" y="3183.91" width="143.678" height="143.678"/><rect id="p232" serif:id="p" x="2321.84" y="3471.26" width="143.678" height="143.678"/><rect id="p233" serif:id="p" x="2321.84" y="3758.62" width="143.678" height="143.678"/><rect id="p234" serif:id="p" x="2321.84" y="4189.65" width="143.678" height="143.678"/><rect id="p235" serif:id="p" x="2465.52" y="310.345" width="143.678" height="143.678"/><rect id="p236" serif:id="p" x="2465.52" y="454.023" width="143.678" height="143.678"/><rect id="p237" serif:id="p" x="2465.52" y="597.701" width="143.678" height="143.678"/><rect id="p238" serif:id="p" x="2465.52" y="741.379" width="143.678" height="143.678"/><rect id="p239" serif:id="p" x="2465.52" y="1028.74" width="143.678" height="143.678"/><rect id="p240" serif:id="p" x="2465.52" y="1603.45" width="143.678" height="143.678"/><rect id="p241" serif:id="p" x="2465.52" y="1747.13" width="143.678" height="143.678"/><rect id="p242" serif:id="p" x="2465.52" y="2034.48" width="143.678" height="143.678"/><rect id="p243" serif:id="p" x="2465.52" y="2321.84" width="143.678" height="143.678"/><rect id="p244" serif:id="p" x="2465.52" y="2609.2" width="143.678" height="143.678"/><rect id="p245" serif:id="p" x="2465.52" y="2896.55" width="143.678" height="143.678"/><rect id="p246" serif:id="p" x="2465.52" y="3183.91" width="143.678" height="143.678"/><rect id="p247" serif:id="p" x="2465.52" y="3614.94" width="143.678" height="143.678"/><rect id="p248" serif:id="p" x="2465.52" y="4189.65" width="143.678" height="143.678"/><rect id="p249" serif:id="p" x="2609.2" y="310.345" width="143.678" height="143.678"/><rect id="p250" serif:id="p" x="2609.2" y="454.023" width="143.678" height="143.678"/><rect id="p251" serif:id="p" x="2609.2" y="597.701" width="143.678" height="143.678"/><rect id="p252" serif:id="p" x="2609.2" y="1172.41" width="143.678" height="143.678"/><rect id="p253" serif:id="p" x="2609.2" y="1316.09" width="143.678" height="143.678"/><rect id="p254" serif:id="p" x="2609.2" y="1747.13" width="143.678" height="143.678"/><rect id="p255" serif:id="p" x="2609.2" y="2178.16" width="143.678" height="143.678"/><rect id="p256" serif:id="p" x="2609.2" y="2321.84" width="143.678" height="143.678"/><rect id="p257" serif:id="p" x="2609.2" y="3614.94" width="143.678" height="143.678"/><rect id="p258" serif:id="p" x="2609.2" y="3902.3" width="143.678" height="143.678"/><rect id="p259" serif:id="p" x="2609.2" y="4189.65" width="143.678" height="143.678"/><rect id="p260" serif:id="p" x="2752.87" y="166.667" width="143.678" height="143.678"/><rect id="p261" serif:id="p" x="2752.87" y="310.345" width="143.678" height="143.678"/><rect id="p262" serif:id="p" x="2752.87" y="454.023" width="143.678" height="143.678"/><rect id="p263" serif:id="p" x="2752.87" y="597.701" width="143.678" height="143.678"/><rect id="p264" serif:id="p" x="2752.87" y="1028.74" width="143.678" height="143.678"/><rect id="p265" serif:id="p" x="2752.87" y="1316.09" width="143.678" height="143.678"/><rect id="p266" serif:id="p" x="2752.87" y="1459.77" width="143.678" height="143.678"/><rect id="p267" serif:id="p" x="2752.87" y="1603.45" width="143.678" height="143.678"/><rect id="p268" serif:id="p" x="2752.87" y="2321.84" width="143.678" height="143.678"/><rect id="p269" serif:id="p" x="2752.87" y="2465.52" width="143.678" height="143.678"/><rect id="p270" serif:id="p" x="2752.87" y="2609.2" width="143.678" height="143.678"/><rect id="p271" serif:id="p" x="2752.87" y="2896.55" width="143.678" height="143.678"/><rect id="p272" serif:id="p" x="2752.87" y="3614.94" width="143.678" height="143.678"/><rect id="p273" serif:id="p" x="2752.87" y="3902.3" width="143.678" height="143.678"/><rect id="p274" serif:id="p" x="2752.87" y="4045.98" width="143.678" height="143.678"/><rect id="p275" serif:id="p" x="2752.87" y="4189.65" width="143.678" height="143.678"/><rect id="p276" serif:id="p" x="2896.55" y="310.345" width="143.678" height="143.678"/><rect id="p277" serif:id="p" x="2896.55" y="454.023" width="143.678" height="143.678"/><rect id="p278" serif:id="p" x="2896.55" y="741.379" width="143.678" height="143.678"/><rect id="p279" serif:id="p" x="2896.55" y="885.057" width="143.678" height="143.678"/><rect id="p280" serif:id="p" x="2896.55" y="1172.41" width="143.678" height="143.678"/><rect id="p281" serif:id="p" x="2896.55" y="1316.09" width="143.678" height="143.678"/><rect id="p282" serif:id="p" x="2896.55" y="1459.77" width="143.678" height="143.678"/><rect id="p283" serif:id="p" x="2896.55" y="1890.81" width="143.678" height="143.678"/><rect id="p284" serif:id="p" x="2896.55" y="2034.48" width="143.678" height="143.678"/><rect id="p285" serif:id="p" x="2896.55" y="2321.84" width="143.678" height="143.678"/><rect id="p286" serif:id="p" x="2896.55" y="2465.52" width="143.678" height="143.678"/><rect id="p287" serif:id="p" x="2896.55" y="2609.2" width="143.678" height="143.678"/><rect id="p288" serif:id="p" x="2896.55" y="3040.23" width="143.678" height="143.678"/><rect id="p289" serif:id="p" x="2896.55" y="3327.59" width="143.678" height="143.678"/><rect id="p290" serif:id="p" x="2896.55" y="3614.94" width="143.678" height="143.678"/><rect id="p291" serif:id="p" x="2896.55" y="3758.62" width="143.678" height="143.678"/><rect id="p292" serif:id="p" x="2896.55" y="3902.3" width="143.678" height="143.678"/><rect id="p293" serif:id="p" x="3040.23" y="310.345" width="143.678" height="143.678"/><rect id="p294" serif:id="p" x="3040.23" y="454.023" width="143.678" height="143.678"/><rect id="p295" serif:id="p" x="3040.23" y="597.701" width="143.678" height="143.678"/><rect id="p296" serif:id="p" x="3040.23" y="885.057" width="143.678" height="143.678"/><rect id="p297" serif:id="p" x="3040.23" y="1028.74" width="143.678" height="143.678"/><rect id="p298" serif:id="p" x="3040.23" y="1172.41" width="143.678" height="143.678"/><rect id="p299" serif:id="p" x="3040.23" y="1890.81" width="143.678" height="143.678"/><rect id="p300" serif:id="p" x="3040.23" y="2178.16" width="143.678" height="143.678"/><rect id="p301" serif:id="p" x="3040.23" y="2321.84" width="143.678" height="143.678"/><rect id="p302" serif:id="p" x="3040.23" y="2465.52" width="143.678" height="143.678"/><rect id="p303" serif:id="p" x="3040.23" y="3040.23" width="143.678" height="143.678"/><rect id="p304" serif:id="p" x="3040.23" y="3183.91" width="143.678" height="143.678"/><rect id="p305" serif:id="p" x="3040.23" y="3327.59" width="143.678" height="143.678"/><rect id="p306" serif:id="p" x="3040.23" y="3471.26" width="143.678" height="143.678"/><rect id="p307" serif:id="p" x="3040.23" y="3614.94" width="143.678" height="143.678"/><rect id="p308" serif:id="p" x="3040.23" y="3758.62" width="143.678" height="143.678"/><rect id="p309" serif:id="p" x="3040.23" y="3902.3" width="143.678" height="143.678"/><rect id="p310" serif:id="p" x="3040.23" y="4045.98" width="143.678" height="143.678"/><rect id="p311" serif:id="p" x="3183.91" y="1747.13" width="143.678" height="143.678"/><rect id="p312" serif:id="p" x="3183.91" y="2034.48" width="143.678" height="143.678"/><rect id="p313" serif:id="p" x="3183.91" y="2321.84" width="143.678" height="143.678"/><rect id="p314" serif:id="p" x="3183.91" y="2752.87" width="143.678" height="143.678"/><rect id="p315" serif:id="p" x="3183.91" y="3040.23" width="143.678" height="143.678"/><rect id="p316" serif:id="p" x="3183.91" y="3614.94" width="143.678" height="143.678"/><rect id="p317" serif:id="p" x="3183.91" y="3902.3" width="143.678" height="143.678"/><rect id="p318" serif:id="p" x="3183.91" y="4045.98" width="143.678" height="143.678"/><rect id="p319" serif:id="p" x="3327.59" y="166.667" width="143.678" height="143.678"/><rect id="p320" serif:id="p" x="3327.59" y="310.345" width="143.678" height="143.678"/><rect id="p321" serif:id="p" x="3327.59" y="454.023" width="143.678" height="143.678"/><rect id="p322" serif:id="p" x="3327.59" y="597.701" width="143.678" height="143.678"/><rect id="p323" serif:id="p" x="3327.59" y="741.379" width="143.678" height="143.678"/><rect id="p324" serif:id="p" x="3327.59" y="885.057" width="143.678" height="143.678"/><rect id="p325" serif:id="p" x="3327.59" y="1028.74" width="143.678" height="143.678"/><rect id="p326" serif:id="p" x="3327.59" y="1459.77" width="143.678" height="143.678"/><rect id="p327" serif:id="p" x="3327.59" y="1603.45" width="143.678" height="143.678"/><rect id="p328" serif:id="p" x="3327.59" y="1747.13" width="143.678" height="143.678"/><rect id="p329" serif:id="p" x="3327.59" y="2896.55" width="143.678" height="143.678"/><rect id="p330" serif:id="p" x="3327.59" y="3040.23" width="143.678" height="143.678"/><rect id="p331" serif:id="p" x="3327.59" y="3327.59" width="143.678" height="143.678"/><rect id="p332" serif:id="p" x="3327.59" y="3614.94" width="143.678" height="143.678"/><rect id="p333" serif:id="p" x="3327.59" y="3902.3" width="143.678" height="143.678"/><rect id="p334" serif:id="p" x="3327.59" y="4045.98" width="143.678" height="143.678"/><rect id="p335" serif:id="p" x="3327.59" y="4189.65" width="143.678" height="143.678"/><rect id="p336" serif:id="p" x="3471.26" y="166.667" width="143.678" height="143.678"/><rect id="p337" serif:id="p" x="3471.26" y="1028.74" width="143.678" height="143.678"/><rect id="p338" serif:id="p" x="3471.26" y="1316.09" width="143.678" height="143.678"/><rect id="p339" serif:id="p" x="3471.26" y="1459.77" width="143.678" height="143.678"/><rect id="p340" serif:id="p" x="3471.26" y="1603.45" width="143.678" height="143.678"/><rect id="p341" serif:id="p" x="3471.26" y="1747.13" width="143.678" height="143.678"/><rect id="p342" serif:id="p" x="3471.26" y="2321.84" width="143.678" height="143.678"/><rect id="p343" serif:id="p" x="3471.26" y="2465.52" width="143.678" height="143.678"/><rect id="p344" serif:id="p" x="3471.26" y="3040.23" width="143.678" height="143.678"/><rect id="p345" serif:id="p" x="3471.26" y="3614.94" width="143.678" height="143.678"/><rect id="p346" serif:id="p" x="3471.26" y="3758.62" width="143.678" height="143.678"/><rect id="p347" serif:id="p" x="3614.94" y="166.667" width="143.678" height="143.678"/><rect id="p348" serif:id="p" x="3614.94" y="454.023" width="143.678" height="143.678"/><rect id="p349" serif:id="p" x="3614.94" y="597.701" width="143.678" height="143.678"/><rect id="p350" serif:id="p" x="3614.94" y="741.379" width="143.678" height="143.678"/><rect id="p351" serif:id="p" x="3614.94" y="1028.74" width="143.678" height="143.678"/><rect id="p352" serif:id="p" x="3614.94" y="1603.45" width="143.678" height="143.678"/><rect id="p353" serif:id="p" x="3614.94" y="1890.81" width="143.678" height="143.678"/><rect id="p354" serif:id="p" x="3614.94" y="2321.84" width="143.678" height="143.678"/><rect id="p355" serif:id="p" x="3614.94" y="2609.2" width="143.678" height="143.678"/><rect id="p356" serif:id="p" x="3614.94" y="2752.87" width="143.678" height="143.678"/><rect id="p357" serif:id="p" x="3614.94" y="3040.23" width="143.678" height="143.678"/><rect id="p358" serif:id="p" x="3614.94" y="3183.91" width="143.678" height="143.678"/><rect id="p359" serif:id="p" x="3614.94" y="3327.59" width="143.678" height="143.678"/><rect id="p360" serif:id="p" x="3614.94" y="3471.26" width="143.678" height="143.678"/><rect id="p361" serif:id="p" x="3614.94" y="3614.94" width="143.678" height="143.678"/><rect id="p362" serif:id="p" x="3614.94" y="3902.3" width="143.678" height="143.678"/><rect id="p363" serif:id="p" x="3758.62" y="166.667" width="143.678" height="143.678"/><rect id="p364" serif:id="p" x="3758.62" y="454.023" width="143.678" height="143.678"/><rect id="p365" serif:id="p" x="3758.62" y="597.701" width="143.678" height="143.678"/><rect id="p366" serif:id="p" x="3758.62" y="741.379" width="143.678" height="143.678"/><rect id="p367" serif:id="p" x="3758.62" y="1028.74" width="143.678" height="143.678"/><rect id="p368" serif:id="p" x="3758.62" y="1316.09" width="143.678" height="143.678"/><rect id="p369" serif:id="p" x="3758.62" y="1603.45" width="143.678" height="143.678"/><rect id="p370" serif:id="p" x="3758.62" y="2034.48" width="143.678" height="143.678"/><rect id="p371" serif:id="p" x="3758.62" y="2178.16" width="143.678" height="143.678"/><rect id="p372" serif:id="p" x="3758.62" y="2321.84" width="143.678" height="143.678"/><rect id="p373" serif:id="p" x="3758.62" y="2465.52" width="143.678" height="143.678"/><rect id="p374" serif:id="p" x="3758.62" y="3183.91" width="143.678" height="143.678"/><rect id="p375" serif:id="p" x="3758.62" y="3327.59" width="143.678" height="143.678"/><rect id="p376" serif:id="p" x="3758.62" y="3614.94" width="143.678" height="143.678"/><rect id="p377" serif:id="p" x="3758.62" y="3758.62" width="143.678" height="143.678"/><rect id="p378" serif:id="p" x="3758.62" y="4045.98" width="143.678" height="143.678"/><rect id="p379" serif:id="p" x="3902.3" y="166.667" width="143.678" height="143.678"/><rect id="p380" serif:id="p" x="3902.3" y="454.023" width="143.678" height="143.678"/><rect id="p381" serif:id="p" x="3902.3" y="597.701" width="143.678" height="143.678"/><rect id="p382" serif:id="p" x="3902.3" y="741.379" width="143.678" height="143.678"/><rect id="p383" serif:id="p" x="3902.3" y="1028.74" width="143.678" height="143.678"/><rect id="p384" serif:id="p" x="3902.3" y="1316.09" width="143.678" height="143.678"/><rect id="p385" serif:id="p" x="3902.3" y="1459.77" width="143.678" height="143.678"/><rect id="p386" serif:id="p" x="3902.3" y="2034.48" width="143.678" height="143.678"/><rect id="p387" serif:id="p" x="3902.3" y="2178.16" width="143.678" height="143.678"/><rect id="p388" serif:id="p" x="3902.3" y="2609.2" width="143.678" height="143.678"/><rect id="p389" serif:id="p" x="3902.3" y="3758.62" width="143.678" height="143.678"/><rect id="p390" serif:id="p" x="4045.98" y="166.667" width="143.678" height="143.678"/><rect id="p391" serif:id="p" x="4045.98" y="1028.74" width="143.678" height="143.678"/><rect id="p392" serif:id="p" x="4045.98" y="1316.09" width="143.678" height="143.678"/><rect id="p393" serif:id="p" x="4045.98" y="1747.13" width="143.678" height="143.678"/><rect id="p394" serif:id="p" x="4045.98" y="2034.48" width="143.678" height="143.678"/><rect id="p395" serif:id="p" x="4045.98" y="2178.16" width="143.678" height="143.678"/><rect id="p396" serif:id="p" x="4045.98" y="2321.84" width="143.678" height="143.678"/><rect id="p397" serif:id="p" x="4045.98" y="2609.2" width="143.678" height="143.678"/><rect id="p398" serif:id="p" x="4045.98" y="2896.55" width="143.678" height="143.678"/><rect id="p399" serif:id="p" x="4045.98" y="3183.91" width="143.678" height="143.678"/><rect id="p400" serif:id="p" x="4045.98" y="3327.59" width="143.678" height="143.678"/><rect id="p401" serif:id="p" x="4045.98" y="3614.94" width="143.678" height="143.678"/><rect id="p402" serif:id="p" x="4045.98" y="3902.3" width="143.678" height="143.678"/><rect id="p403" serif:id="p" x="4045.98" y="4045.98" width="143.678" height="143.678"/><rect id="p404" serif:id="p" x="4045.98" y="4189.65" width="143.678" height="143.678"/><rect id="p405" serif:id="p" x="4189.65" y="166.667" width="143.678" height="143.678"/><rect id="p406" serif:id="p" x="4189.65" y="310.345" width="143.678" height="143.678"/><rect id="p407" serif:id="p" x="4189.65" y="454.023" width="143.678" height="143.678"/><rect id="p408" serif:id="p" x="4189.65" y="597.701" width="143.678" height="143.678"/><rect id="p409" serif:id="p" x="4189.65" y="741.379" width="143.678" height="143.678"/><rect id="p410" serif:id="p" x="4189.65" y="885.057" width="143.678" height="143.678"/><rect id="p411" serif:id="p" x="4189.65" y="1028.74" width="143.678" height="143.678"/><rect id="p412" serif:id="p" x="4189.65" y="1316.09" width="143.678" height="143.678"/><rect id="p413" serif:id="p" x="4189.65" y="1459.77" width="143.678" height="143.678"/><rect id="p414" serif:id="p" x="4189.65" y="1603.45" width="143.678" height="143.678"/><rect id="p415" serif:id="p" x="4189.65" y="1747.13" width="143.678" height="143.678"/><rect id="p416" serif:id="p" x="4189.65" y="2034.48" width="143.678" height="143.678"/><rect id="p417" serif:id="p" x="4189.65" y="2178.16" width="143.678" height="143.678"/><rect id="p418" serif:id="p" x="4189.65" y="2321.84" width="143.678" height="143.678"/><rect id="p419" serif:id="p" x="4189.65" y="2465.52" width="143.678" height="143.678"/><rect id="p420" serif:id="p" x="4189.65" y="2609.2" width="143.678" height="143.678"/><rect id="p421" serif:id="p" x="4189.65" y="2752.87" width="143.678" height="143.678"/><rect id="p422" serif:id="p" x="4189.65" y="2896.55" width="143.678" height="143.678"/><rect id="p423" serif:id="p" x="4189.65" y="3183.91" width="143.678" height="143.678"/><rect id="p424" serif:id="p" x="4189.65" y="3327.59" width="143.678" height="143.678"/><rect id="p425" serif:id="p" x="4189.65" y="3902.3" width="143.678" height="143.678"/><rect id="p426" serif:id="p" x="4189.65" y="4045.98" width="143.678" height="143.678"/></svg>