<?xml version="1.0" encoding="utf-8"?>
<!-- Generator: Adobe Illustrator 23.0.0, SVG Export Plug-In . SVG Version: 6.00 Build 0)  -->
<svg version="1.1" id="layer" xmlns="http://www.w3.org/2000/svg" xmlns:xlink="http://www.w3.org/1999/xlink" x="0px" y="0px"
	 viewBox="0 0 340 340" style="enable-background:new 0 0 340 340;" xml:space="preserve">
<g>
	<g>
		<rect x="25" y="25" width="10" height="10"/>
	</g>
	<g>
		<rect x="25" y="35" width="10" height="10"/>
	</g>
	<g>
		<rect x="25" y="45" width="10" height="10"/>
	</g>
	<g>
		<rect x="25" y="55" width="10" height="10"/>
	</g>
	<g>
		<rect x="25" y="65" width="10" height="10"/>
	</g>
	<g>
		<rect x="25" y="75" width="10" height="10"/>
	</g>
	<g>
		<rect x="25" y="85" width="10" height="10"/>
	</g>
	<g>
		<rect x="25" y="105" width="10" height="10"/>
	</g>
	<g>
		<rect x="25" y="115" width="10" height="10"/>
	</g>
	<g>
		<rect x="25" y="125" width="10" height="10"/>
	</g>
	<g>
		<rect x="25" y="145" width="10" height="10"/>
	</g>
	<g>
		<rect x="25" y="155" width="10" height="10"/>
	</g>
	<g>
		<rect x="25" y="165" width="10" height="10"/>
	</g>
	<g>
		<rect x="25" y="175" width="10" height="10"/>
	</g>
	<g>
		<rect x="25" y="205" width="10" height="10"/>
	</g>
	<g>
		<rect x="25" y="225" width="10" height="10"/>
	</g>
	<g>
		<rect x="25" y="245" width="10" height="10"/>
	</g>
	<g>
		<rect x="25" y="255" width="10" height="10"/>
	</g>
	<g>
		<rect x="25" y="265" width="10" height="10"/>
	</g>
	<g>
		<rect x="25" y="275" width="10" height="10"/>
	</g>
	<g>
		<rect x="25" y="285" width="10" height="10"/>
	</g>
	<g>
		<rect x="25" y="295" width="10" height="10"/>
	</g>
	<g>
		<rect x="25" y="305" width="10" height="10"/>
	</g>
	<g>
		<rect x="35" y="25" width="10" height="10"/>
	</g>
	<g>
		<rect x="35" y="85" width="10" height="10"/>
	</g>
	<g>
		<rect x="35" y="105" width="10" height="10"/>
	</g>
	<g>
		<rect x="35" y="125" width="10" height="10"/>
	</g>
	<g>
		<rect x="35" y="135" width="10" height="10"/>
	</g>
	<g>
		<rect x="35" y="195" width="10" height="10"/>
	</g>
	<g>
		<rect x="35" y="215" width="10" height="10"/>
	</g>
	<g>
		<rect x="35" y="245" width="10" height="10"/>
	</g>
	<g>
		<rect x="35" y="305" width="10" height="10"/>
	</g>
	<g>
		<rect x="45" y="25" width="10" height="10"/>
	</g>
	<g>
		<rect x="45" y="45" width="10" height="10"/>
	</g>
	<g>
		<rect x="45" y="55" width="10" height="10"/>
	</g>
	<g>
		<rect x="45" y="65" width="10" height="10"/>
	</g>
	<g>
		<rect x="45" y="85" width="10" height="10"/>
	</g>
	<g>
		<rect x="45" y="105" width="10" height="10"/>
	</g>
	<g>
		<rect x="45" y="115" width="10" height="10"/>
	</g>
	<g>
		<rect x="45" y="125" width="10" height="10"/>
	</g>
	<g>
		<rect x="45" y="145" width="10" height="10"/>
	</g>
	<g>
		<rect x="45" y="155" width="10" height="10"/>
	</g>
	<g>
		<rect x="45" y="175" width="10" height="10"/>
	</g>
	<g>
		<rect x="45" y="185" width="10" height="10"/>
	</g>
	<g>
		<rect x="45" y="245" width="10" height="10"/>
	</g>
	<g>
		<rect x="45" y="265" width="10" height="10"/>
	</g>
	<g>
		<rect x="45" y="275" width="10" height="10"/>
	</g>
	<g>
		<rect x="45" y="285" width="10" height="10"/>
	</g>
	<g>
		<rect x="45" y="305" width="10" height="10"/>
	</g>
	<g>
		<rect x="55" y="25" width="10" height="10"/>
	</g>
	<g>
		<rect x="55" y="45" width="10" height="10"/>
	</g>
	<g>
		<rect x="55" y="55" width="10" height="10"/>
	</g>
	<g>
		<rect x="55" y="65" width="10" height="10"/>
	</g>
	<g>
		<rect x="55" y="85" width="10" height="10"/>
	</g>
	<g>
		<rect x="55" y="115" width="10" height="10"/>
	</g>
	<g>
		<rect x="55" y="135" width="10" height="10"/>
	</g>
	<g>
		<rect x="55" y="175" width="10" height="10"/>
	</g>
	<g>
		<rect x="55" y="195" width="10" height="10"/>
	</g>
	<g>
		<rect x="55" y="205" width="10" height="10"/>
	</g>
	<g>
		<rect x="55" y="225" width="10" height="10"/>
	</g>
	<g>
		<rect x="55" y="245" width="10" height="10"/>
	</g>
	<g>
		<rect x="55" y="265" width="10" height="10"/>
	</g>
	<g>
		<rect x="55" y="275" width="10" height="10"/>
	</g>
	<g>
		<rect x="55" y="285" width="10" height="10"/>
	</g>
	<g>
		<rect x="55" y="305" width="10" height="10"/>
	</g>
	<g>
		<rect x="65" y="25" width="10" height="10"/>
	</g>
	<g>
		<rect x="65" y="45" width="10" height="10"/>
	</g>
	<g>
		<rect x="65" y="55" width="10" height="10"/>
	</g>
	<g>
		<rect x="65" y="65" width="10" height="10"/>
	</g>
	<g>
		<rect x="65" y="85" width="10" height="10"/>
	</g>
	<g>
		<rect x="65" y="105" width="10" height="10"/>
	</g>
	<g>
		<rect x="65" y="125" width="10" height="10"/>
	</g>
	<g>
		<rect x="65" y="135" width="10" height="10"/>
	</g>
	<g>
		<rect x="65" y="155" width="10" height="10"/>
	</g>
	<g>
		<rect x="65" y="165" width="10" height="10"/>
	</g>
	<g>
		<rect x="65" y="185" width="10" height="10"/>
	</g>
	<g>
		<rect x="65" y="195" width="10" height="10"/>
	</g>
	<g>
		<rect x="65" y="205" width="10" height="10"/>
	</g>
	<g>
		<rect x="65" y="245" width="10" height="10"/>
	</g>
	<g>
		<rect x="65" y="265" width="10" height="10"/>
	</g>
	<g>
		<rect x="65" y="275" width="10" height="10"/>
	</g>
	<g>
		<rect x="65" y="285" width="10" height="10"/>
	</g>
	<g>
		<rect x="65" y="305" width="10" height="10"/>
	</g>
	<g>
		<rect x="75" y="25" width="10" height="10"/>
	</g>
	<g>
		<rect x="75" y="85" width="10" height="10"/>
	</g>
	<g>
		<rect x="75" y="105" width="10" height="10"/>
	</g>
	<g>
		<rect x="75" y="115" width="10" height="10"/>
	</g>
	<g>
		<rect x="75" y="135" width="10" height="10"/>
	</g>
	<g>
		<rect x="75" y="145" width="10" height="10"/>
	</g>
	<g>
		<rect x="75" y="155" width="10" height="10"/>
	</g>
	<g>
		<rect x="75" y="165" width="10" height="10"/>
	</g>
	<g>
		<rect x="75" y="195" width="10" height="10"/>
	</g>
	<g>
		<rect x="75" y="205" width="10" height="10"/>
	</g>
	<g>
		<rect x="75" y="245" width="10" height="10"/>
	</g>
	<g>
		<rect x="75" y="305" width="10" height="10"/>
	</g>
	<g>
		<rect x="85" y="25" width="10" height="10"/>
	</g>
	<g>
		<rect x="85" y="35" width="10" height="10"/>
	</g>
	<g>
		<rect x="85" y="45" width="10" height="10"/>
	</g>
	<g>
		<rect x="85" y="55" width="10" height="10"/>
	</g>
	<g>
		<rect x="85" y="65" width="10" height="10"/>
	</g>
	<g>
		<rect x="85" y="75" width="10" height="10"/>
	</g>
	<g>
		<rect x="85" y="85" width="10" height="10"/>
	</g>
	<g>
		<rect x="85" y="105" width="10" height="10"/>
	</g>
	<g>
		<rect x="85" y="125" width="10" height="10"/>
	</g>
	<g>
		<rect x="85" y="145" width="10" height="10"/>
	</g>
	<g>
		<rect x="85" y="165" width="10" height="10"/>
	</g>
	<g>
		<rect x="85" y="185" width="10" height="10"/>
	</g>
	<g>
		<rect x="85" y="205" width="10" height="10"/>
	</g>
	<g>
		<rect x="85" y="225" width="10" height="10"/>
	</g>
	<g>
		<rect x="85" y="245" width="10" height="10"/>
	</g>
	<g>
		<rect x="85" y="255" width="10" height="10"/>
	</g>
	<g>
		<rect x="85" y="265" width="10" height="10"/>
	</g>
	<g>
		<rect x="85" y="275" width="10" height="10"/>
	</g>
	<g>
		<rect x="85" y="285" width="10" height="10"/>
	</g>
	<g>
		<rect x="85" y="295" width="10" height="10"/>
	</g>
	<g>
		<rect x="85" y="305" width="10" height="10"/>
	</g>
	<g>
		<rect x="95" y="105" width="10" height="10"/>
	</g>
	<g>
		<rect x="95" y="125" width="10" height="10"/>
	</g>
	<g>
		<rect x="95" y="135" width="10" height="10"/>
	</g>
	<g>
		<rect x="95" y="145" width="10" height="10"/>
	</g>
	<g>
		<rect x="95" y="155" width="10" height="10"/>
	</g>
	<g>
		<rect x="95" y="175" width="10" height="10"/>
	</g>
	<g>
		<rect x="95" y="205" width="10" height="10"/>
	</g>
	<g>
		<rect x="95" y="215" width="10" height="10"/>
	</g>
	<g>
		<rect x="95" y="225" width="10" height="10"/>
	</g>
	<g>
		<rect x="105" y="45" width="10" height="10"/>
	</g>
	<g>
		<rect x="105" y="85" width="10" height="10"/>
	</g>
	<g>
		<rect x="105" y="95" width="10" height="10"/>
	</g>
	<g>
		<rect x="105" y="105" width="10" height="10"/>
	</g>
	<g>
		<rect x="105" y="125" width="10" height="10"/>
	</g>
	<g>
		<rect x="105" y="135" width="10" height="10"/>
	</g>
	<g>
		<rect x="105" y="195" width="10" height="10"/>
	</g>
	<g>
		<rect x="105" y="225" width="10" height="10"/>
	</g>
	<g>
		<rect x="105" y="235" width="10" height="10"/>
	</g>
	<g>
		<rect x="105" y="245" width="10" height="10"/>
	</g>
	<g>
		<rect x="105" y="255" width="10" height="10"/>
	</g>
	<g>
		<rect x="105" y="265" width="10" height="10"/>
	</g>
	<g>
		<rect x="105" y="285" width="10" height="10"/>
	</g>
	<g>
		<rect x="105" y="295" width="10" height="10"/>
	</g>
	<g>
		<rect x="105" y="305" width="10" height="10"/>
	</g>
	<g>
		<rect x="115" y="35" width="10" height="10"/>
	</g>
	<g>
		<rect x="115" y="55" width="10" height="10"/>
	</g>
	<g>
		<rect x="115" y="65" width="10" height="10"/>
	</g>
	<g>
		<rect x="115" y="115" width="10" height="10"/>
	</g>
	<g>
		<rect x="115" y="135" width="10" height="10"/>
	</g>
	<g>
		<rect x="115" y="155" width="10" height="10"/>
	</g>
	<g>
		<rect x="115" y="165" width="10" height="10"/>
	</g>
	<g>
		<rect x="115" y="185" width="10" height="10"/>
	</g>
	<g>
		<rect x="115" y="205" width="10" height="10"/>
	</g>
	<g>
		<rect x="115" y="225" width="10" height="10"/>
	</g>
	<g>
		<rect x="115" y="235" width="10" height="10"/>
	</g>
	<g>
		<rect x="115" y="265" width="10" height="10"/>
	</g>
	<g>
		<rect x="115" y="275" width="10" height="10"/>
	</g>
	<g>
		<rect x="115" y="295" width="10" height="10"/>
	</g>
	<g>
		<rect x="125" y="25" width="10" height="10"/>
	</g>
	<g>
		<rect x="125" y="75" width="10" height="10"/>
	</g>
	<g>
		<rect x="125" y="85" width="10" height="10"/>
	</g>
	<g>
		<rect x="125" y="125" width="10" height="10"/>
	</g>
	<g>
		<rect x="125" y="135" width="10" height="10"/>
	</g>
	<g>
		<rect x="125" y="145" width="10" height="10"/>
	</g>
	<g>
		<rect x="125" y="155" width="10" height="10"/>
	</g>
	<g>
		<rect x="125" y="165" width="10" height="10"/>
	</g>
	<g>
		<rect x="125" y="175" width="10" height="10"/>
	</g>
	<g>
		<rect x="125" y="185" width="10" height="10"/>
	</g>
	<g>
		<rect x="125" y="195" width="10" height="10"/>
	</g>
	<g>
		<rect x="125" y="225" width="10" height="10"/>
	</g>
	<g>
		<rect x="125" y="235" width="10" height="10"/>
	</g>
	<g>
		<rect x="125" y="245" width="10" height="10"/>
	</g>
	<g>
		<rect x="125" y="265" width="10" height="10"/>
	</g>
	<g>
		<rect x="125" y="285" width="10" height="10"/>
	</g>
	<g>
		<rect x="125" y="305" width="10" height="10"/>
	</g>
	<g>
		<rect x="135" y="45" width="10" height="10"/>
	</g>
	<g>
		<rect x="135" y="75" width="10" height="10"/>
	</g>
	<g>
		<rect x="135" y="95" width="10" height="10"/>
	</g>
	<g>
		<rect x="135" y="115" width="10" height="10"/>
	</g>
	<g>
		<rect x="135" y="125" width="10" height="10"/>
	</g>
	<g>
		<rect x="135" y="145" width="10" height="10"/>
	</g>
	<g>
		<rect x="135" y="155" width="10" height="10"/>
	</g>
	<g>
		<rect x="135" y="175" width="10" height="10"/>
	</g>
	<g>
		<rect x="135" y="195" width="10" height="10"/>
	</g>
	<g>
		<rect x="135" y="205" width="10" height="10"/>
	</g>
	<g>
		<rect x="135" y="225" width="10" height="10"/>
	</g>
	<g>
		<rect x="135" y="235" width="10" height="10"/>
	</g>
	<g>
		<rect x="135" y="255" width="10" height="10"/>
	</g>
	<g>
		<rect x="135" y="275" width="10" height="10"/>
	</g>
	<g>
		<rect x="135" y="285" width="10" height="10"/>
	</g>
	<g>
		<rect x="135" y="305" width="10" height="10"/>
	</g>
	<g>
		<rect x="145" y="55" width="10" height="10"/>
	</g>
	<g>
		<rect x="145" y="65" width="10" height="10"/>
	</g>
	<g>
		<rect x="145" y="75" width="10" height="10"/>
	</g>
	<g>
		<rect x="145" y="85" width="10" height="10"/>
	</g>
	<g>
		<rect x="145" y="105" width="10" height="10"/>
	</g>
	<g>
		<rect x="145" y="115" width="10" height="10"/>
	</g>
	<g>
		<rect x="145" y="125" width="10" height="10"/>
	</g>
	<g>
		<rect x="145" y="135" width="10" height="10"/>
	</g>
	<g>
		<rect x="145" y="185" width="10" height="10"/>
	</g>
	<g>
		<rect x="145" y="195" width="10" height="10"/>
	</g>
	<g>
		<rect x="145" y="205" width="10" height="10"/>
	</g>
	<g>
		<rect x="145" y="215" width="10" height="10"/>
	</g>
	<g>
		<rect x="145" y="265" width="10" height="10"/>
	</g>
	<g>
		<rect x="145" y="275" width="10" height="10"/>
	</g>
	<g>
		<rect x="145" y="285" width="10" height="10"/>
	</g>
	<g>
		<rect x="145" y="295" width="10" height="10"/>
	</g>
	<g>
		<rect x="145" y="305" width="10" height="10"/>
	</g>
	<g>
		<rect x="155" y="25" width="10" height="10"/>
	</g>
	<g>
		<rect x="155" y="35" width="10" height="10"/>
	</g>
	<g>
		<rect x="155" y="45" width="10" height="10"/>
	</g>
	<g>
		<rect x="155" y="95" width="10" height="10"/>
	</g>
	<g>
		<rect x="155" y="115" width="10" height="10"/>
	</g>
	<g>
		<rect x="155" y="125" width="10" height="10"/>
	</g>
	<g>
		<rect x="155" y="135" width="10" height="10"/>
	</g>
	<g>
		<rect x="155" y="155" width="10" height="10"/>
	</g>
	<g>
		<rect x="155" y="165" width="10" height="10"/>
	</g>
	<g>
		<rect x="155" y="185" width="10" height="10"/>
	</g>
	<g>
		<rect x="155" y="215" width="10" height="10"/>
	</g>
	<g>
		<rect x="155" y="255" width="10" height="10"/>
	</g>
	<g>
		<rect x="155" y="265" width="10" height="10"/>
	</g>
	<g>
		<rect x="155" y="275" width="10" height="10"/>
	</g>
	<g>
		<rect x="155" y="295" width="10" height="10"/>
	</g>
	<g>
		<rect x="165" y="25" width="10" height="10"/>
	</g>
	<g>
		<rect x="165" y="35" width="10" height="10"/>
	</g>
	<g>
		<rect x="165" y="45" width="10" height="10"/>
	</g>
	<g>
		<rect x="165" y="65" width="10" height="10"/>
	</g>
	<g>
		<rect x="165" y="75" width="10" height="10"/>
	</g>
	<g>
		<rect x="165" y="85" width="10" height="10"/>
	</g>
	<g>
		<rect x="165" y="105" width="10" height="10"/>
	</g>
	<g>
		<rect x="165" y="185" width="10" height="10"/>
	</g>
	<g>
		<rect x="165" y="205" width="10" height="10"/>
	</g>
	<g>
		<rect x="165" y="245" width="10" height="10"/>
	</g>
	<g>
		<rect x="165" y="265" width="10" height="10"/>
	</g>
	<g>
		<rect x="165" y="285" width="10" height="10"/>
	</g>
	<g>
		<rect x="165" y="305" width="10" height="10"/>
	</g>
	<g>
		<rect x="175" y="75" width="10" height="10"/>
	</g>
	<g>
		<rect x="175" y="115" width="10" height="10"/>
	</g>
	<g>
		<rect x="175" y="125" width="10" height="10"/>
	</g>
	<g>
		<rect x="175" y="135" width="10" height="10"/>
	</g>
	<g>
		<rect x="175" y="145" width="10" height="10"/>
	</g>
	<g>
		<rect x="175" y="175" width="10" height="10"/>
	</g>
	<g>
		<rect x="175" y="185" width="10" height="10"/>
	</g>
	<g>
		<rect x="175" y="195" width="10" height="10"/>
	</g>
	<g>
		<rect x="175" y="205" width="10" height="10"/>
	</g>
	<g>
		<rect x="175" y="215" width="10" height="10"/>
	</g>
	<g>
		<rect x="175" y="225" width="10" height="10"/>
	</g>
	<g>
		<rect x="175" y="255" width="10" height="10"/>
	</g>
	<g>
		<rect x="175" y="275" width="10" height="10"/>
	</g>
	<g>
		<rect x="175" y="285" width="10" height="10"/>
	</g>
	<g>
		<rect x="175" y="295" width="10" height="10"/>
	</g>
	<g>
		<rect x="185" y="45" width="10" height="10"/>
	</g>
	<g>
		<rect x="185" y="65" width="10" height="10"/>
	</g>
	<g>
		<rect x="185" y="85" width="10" height="10"/>
	</g>
	<g>
		<rect x="185" y="95" width="10" height="10"/>
	</g>
	<g>
		<rect x="185" y="105" width="10" height="10"/>
	</g>
	<g>
		<rect x="185" y="125" width="10" height="10"/>
	</g>
	<g>
		<rect x="185" y="145" width="10" height="10"/>
	</g>
	<g>
		<rect x="185" y="155" width="10" height="10"/>
	</g>
	<g>
		<rect x="185" y="165" width="10" height="10"/>
	</g>
	<g>
		<rect x="185" y="175" width="10" height="10"/>
	</g>
	<g>
		<rect x="185" y="185" width="10" height="10"/>
	</g>
	<g>
		<rect x="185" y="205" width="10" height="10"/>
	</g>
	<g>
		<rect x="185" y="215" width="10" height="10"/>
	</g>
	<g>
		<rect x="185" y="225" width="10" height="10"/>
	</g>
	<g>
		<rect x="185" y="235" width="10" height="10"/>
	</g>
	<g>
		<rect x="185" y="265" width="10" height="10"/>
	</g>
	<g>
		<rect x="185" y="285" width="10" height="10"/>
	</g>
	<g>
		<rect x="185" y="295" width="10" height="10"/>
	</g>
	<g>
		<rect x="185" y="305" width="10" height="10"/>
	</g>
	<g>
		<rect x="195" y="35" width="10" height="10"/>
	</g>
	<g>
		<rect x="195" y="55" width="10" height="10"/>
	</g>
	<g>
		<rect x="195" y="65" width="10" height="10"/>
	</g>
	<g>
		<rect x="195" y="75" width="10" height="10"/>
	</g>
	<g>
		<rect x="195" y="115" width="10" height="10"/>
	</g>
	<g>
		<rect x="195" y="135" width="10" height="10"/>
	</g>
	<g>
		<rect x="195" y="155" width="10" height="10"/>
	</g>
	<g>
		<rect x="195" y="175" width="10" height="10"/>
	</g>
	<g>
		<rect x="195" y="195" width="10" height="10"/>
	</g>
	<g>
		<rect x="195" y="225" width="10" height="10"/>
	</g>
	<g>
		<rect x="195" y="255" width="10" height="10"/>
	</g>
	<g>
		<rect x="195" y="265" width="10" height="10"/>
	</g>
	<g>
		<rect x="195" y="275" width="10" height="10"/>
	</g>
	<g>
		<rect x="195" y="295" width="10" height="10"/>
	</g>
	<g>
		<rect x="205" y="25" width="10" height="10"/>
	</g>
	<g>
		<rect x="205" y="45" width="10" height="10"/>
	</g>
	<g>
		<rect x="205" y="55" width="10" height="10"/>
	</g>
	<g>
		<rect x="205" y="65" width="10" height="10"/>
	</g>
	<g>
		<rect x="205" y="85" width="10" height="10"/>
	</g>
	<g>
		<rect x="205" y="95" width="10" height="10"/>
	</g>
	<g>
		<rect x="205" y="115" width="10" height="10"/>
	</g>
	<g>
		<rect x="205" y="125" width="10" height="10"/>
	</g>
	<g>
		<rect x="205" y="215" width="10" height="10"/>
	</g>
	<g>
		<rect x="205" y="225" width="10" height="10"/>
	</g>
	<g>
		<rect x="205" y="245" width="10" height="10"/>
	</g>
	<g>
		<rect x="205" y="275" width="10" height="10"/>
	</g>
	<g>
		<rect x="205" y="295" width="10" height="10"/>
	</g>
	<g>
		<rect x="205" y="305" width="10" height="10"/>
	</g>
	<g>
		<rect x="215" y="25" width="10" height="10"/>
	</g>
	<g>
		<rect x="215" y="35" width="10" height="10"/>
	</g>
	<g>
		<rect x="215" y="65" width="10" height="10"/>
	</g>
	<g>
		<rect x="215" y="75" width="10" height="10"/>
	</g>
	<g>
		<rect x="215" y="95" width="10" height="10"/>
	</g>
	<g>
		<rect x="215" y="135" width="10" height="10"/>
	</g>
	<g>
		<rect x="215" y="175" width="10" height="10"/>
	</g>
	<g>
		<rect x="215" y="245" width="10" height="10"/>
	</g>
	<g>
		<rect x="215" y="255" width="10" height="10"/>
	</g>
	<g>
		<rect x="215" y="275" width="10" height="10"/>
	</g>
	<g>
		<rect x="215" y="285" width="10" height="10"/>
	</g>
	<g>
		<rect x="215" y="295" width="10" height="10"/>
	</g>
	<g>
		<rect x="215" y="305" width="10" height="10"/>
	</g>
	<g>
		<rect x="225" y="25" width="10" height="10"/>
	</g>
	<g>
		<rect x="225" y="45" width="10" height="10"/>
	</g>
	<g>
		<rect x="225" y="55" width="10" height="10"/>
	</g>
	<g>
		<rect x="225" y="65" width="10" height="10"/>
	</g>
	<g>
		<rect x="225" y="75" width="10" height="10"/>
	</g>
	<g>
		<rect x="225" y="85" width="10" height="10"/>
	</g>
	<g>
		<rect x="225" y="95" width="10" height="10"/>
	</g>
	<g>
		<rect x="225" y="125" width="10" height="10"/>
	</g>
	<g>
		<rect x="225" y="135" width="10" height="10"/>
	</g>
	<g>
		<rect x="225" y="145" width="10" height="10"/>
	</g>
	<g>
		<rect x="225" y="155" width="10" height="10"/>
	</g>
	<g>
		<rect x="225" y="165" width="10" height="10"/>
	</g>
	<g>
		<rect x="225" y="215" width="10" height="10"/>
	</g>
	<g>
		<rect x="225" y="225" width="10" height="10"/>
	</g>
	<g>
		<rect x="225" y="235" width="10" height="10"/>
	</g>
	<g>
		<rect x="225" y="245" width="10" height="10"/>
	</g>
	<g>
		<rect x="225" y="255" width="10" height="10"/>
	</g>
	<g>
		<rect x="225" y="265" width="10" height="10"/>
	</g>
	<g>
		<rect x="225" y="275" width="10" height="10"/>
	</g>
	<g>
		<rect x="225" y="285" width="10" height="10"/>
	</g>
	<g>
		<rect x="225" y="305" width="10" height="10"/>
	</g>
	<g>
		<rect x="235" y="105" width="10" height="10"/>
	</g>
	<g>
		<rect x="235" y="125" width="10" height="10"/>
	</g>
	<g>
		<rect x="235" y="175" width="10" height="10"/>
	</g>
	<g>
		<rect x="235" y="185" width="10" height="10"/>
	</g>
	<g>
		<rect x="235" y="195" width="10" height="10"/>
	</g>
	<g>
		<rect x="235" y="225" width="10" height="10"/>
	</g>
	<g>
		<rect x="235" y="265" width="10" height="10"/>
	</g>
	<g>
		<rect x="235" y="295" width="10" height="10"/>
	</g>
	<g>
		<rect x="235" y="305" width="10" height="10"/>
	</g>
	<g>
		<rect x="245" y="25" width="10" height="10"/>
	</g>
	<g>
		<rect x="245" y="35" width="10" height="10"/>
	</g>
	<g>
		<rect x="245" y="45" width="10" height="10"/>
	</g>
	<g>
		<rect x="245" y="55" width="10" height="10"/>
	</g>
	<g>
		<rect x="245" y="65" width="10" height="10"/>
	</g>
	<g>
		<rect x="245" y="75" width="10" height="10"/>
	</g>
	<g>
		<rect x="245" y="85" width="10" height="10"/>
	</g>
	<g>
		<rect x="245" y="105" width="10" height="10"/>
	</g>
	<g>
		<rect x="245" y="115" width="10" height="10"/>
	</g>
	<g>
		<rect x="245" y="125" width="10" height="10"/>
	</g>
	<g>
		<rect x="245" y="135" width="10" height="10"/>
	</g>
	<g>
		<rect x="245" y="145" width="10" height="10"/>
	</g>
	<g>
		<rect x="245" y="155" width="10" height="10"/>
	</g>
	<g>
		<rect x="245" y="185" width="10" height="10"/>
	</g>
	<g>
		<rect x="245" y="195" width="10" height="10"/>
	</g>
	<g>
		<rect x="245" y="205" width="10" height="10"/>
	</g>
	<g>
		<rect x="245" y="215" width="10" height="10"/>
	</g>
	<g>
		<rect x="245" y="225" width="10" height="10"/>
	</g>
	<g>
		<rect x="245" y="245" width="10" height="10"/>
	</g>
	<g>
		<rect x="245" y="265" width="10" height="10"/>
	</g>
	<g>
		<rect x="245" y="285" width="10" height="10"/>
	</g>
	<g>
		<rect x="255" y="25" width="10" height="10"/>
	</g>
	<g>
		<rect x="255" y="85" width="10" height="10"/>
	</g>
	<g>
		<rect x="255" y="115" width="10" height="10"/>
	</g>
	<g>
		<rect x="255" y="135" width="10" height="10"/>
	</g>
	<g>
		<rect x="255" y="145" width="10" height="10"/>
	</g>
	<g>
		<rect x="255" y="155" width="10" height="10"/>
	</g>
	<g>
		<rect x="255" y="165" width="10" height="10"/>
	</g>
	<g>
		<rect x="255" y="175" width="10" height="10"/>
	</g>
	<g>
		<rect x="255" y="205" width="10" height="10"/>
	</g>
	<g>
		<rect x="255" y="215" width="10" height="10"/>
	</g>
	<g>
		<rect x="255" y="225" width="10" height="10"/>
	</g>
	<g>
		<rect x="255" y="265" width="10" height="10"/>
	</g>
	<g>
		<rect x="255" y="275" width="10" height="10"/>
	</g>
	<g>
		<rect x="255" y="285" width="10" height="10"/>
	</g>
	<g>
		<rect x="265" y="25" width="10" height="10"/>
	</g>
	<g>
		<rect x="265" y="45" width="10" height="10"/>
	</g>
	<g>
		<rect x="265" y="55" width="10" height="10"/>
	</g>
	<g>
		<rect x="265" y="65" width="10" height="10"/>
	</g>
	<g>
		<rect x="265" y="85" width="10" height="10"/>
	</g>
	<g>
		<rect x="265" y="125" width="10" height="10"/>
	</g>
	<g>
		<rect x="265" y="135" width="10" height="10"/>
	</g>
	<g>
		<rect x="265" y="165" width="10" height="10"/>
	</g>
	<g>
		<rect x="265" y="205" width="10" height="10"/>
	</g>
	<g>
		<rect x="265" y="225" width="10" height="10"/>
	</g>
	<g>
		<rect x="265" y="235" width="10" height="10"/>
	</g>
	<g>
		<rect x="265" y="245" width="10" height="10"/>
	</g>
	<g>
		<rect x="265" y="255" width="10" height="10"/>
	</g>
	<g>
		<rect x="265" y="265" width="10" height="10"/>
	</g>
	<g>
		<rect x="265" y="275" width="10" height="10"/>
	</g>
	<g>
		<rect x="265" y="285" width="10" height="10"/>
	</g>
	<g>
		<rect x="265" y="305" width="10" height="10"/>
	</g>
	<g>
		<rect x="275" y="25" width="10" height="10"/>
	</g>
	<g>
		<rect x="275" y="45" width="10" height="10"/>
	</g>
	<g>
		<rect x="275" y="55" width="10" height="10"/>
	</g>
	<g>
		<rect x="275" y="65" width="10" height="10"/>
	</g>
	<g>
		<rect x="275" y="85" width="10" height="10"/>
	</g>
	<g>
		<rect x="275" y="115" width="10" height="10"/>
	</g>
	<g>
		<rect x="275" y="135" width="10" height="10"/>
	</g>
	<g>
		<rect x="275" y="145" width="10" height="10"/>
	</g>
	<g>
		<rect x="275" y="155" width="10" height="10"/>
	</g>
	<g>
		<rect x="275" y="165" width="10" height="10"/>
	</g>
	<g>
		<rect x="275" y="175" width="10" height="10"/>
	</g>
	<g>
		<rect x="275" y="185" width="10" height="10"/>
	</g>
	<g>
		<rect x="275" y="255" width="10" height="10"/>
	</g>
	<g>
		<rect x="275" y="265" width="10" height="10"/>
	</g>
	<g>
		<rect x="275" y="275" width="10" height="10"/>
	</g>
	<g>
		<rect x="275" y="285" width="10" height="10"/>
	</g>
	<g>
		<rect x="285" y="25" width="10" height="10"/>
	</g>
	<g>
		<rect x="285" y="45" width="10" height="10"/>
	</g>
	<g>
		<rect x="285" y="55" width="10" height="10"/>
	</g>
	<g>
		<rect x="285" y="65" width="10" height="10"/>
	</g>
	<g>
		<rect x="285" y="85" width="10" height="10"/>
	</g>
	<g>
		<rect x="285" y="105" width="10" height="10"/>
	</g>
	<g>
		<rect x="285" y="165" width="10" height="10"/>
	</g>
	<g>
		<rect x="285" y="205" width="10" height="10"/>
	</g>
	<g>
		<rect x="285" y="225" width="10" height="10"/>
	</g>
	<g>
		<rect x="285" y="285" width="10" height="10"/>
	</g>
	<g>
		<rect x="295" y="25" width="10" height="10"/>
	</g>
	<g>
		<rect x="295" y="85" width="10" height="10"/>
	</g>
	<g>
		<rect x="295" y="115" width="10" height="10"/>
	</g>
	<g>
		<rect x="295" y="125" width="10" height="10"/>
	</g>
	<g>
		<rect x="295" y="135" width="10" height="10"/>
	</g>
	<g>
		<rect x="295" y="145" width="10" height="10"/>
	</g>
	<g>
		<rect x="295" y="175" width="10" height="10"/>
	</g>
	<g>
		<rect x="295" y="205" width="10" height="10"/>
	</g>
	<g>
		<rect x="295" y="215" width="10" height="10"/>
	</g>
	<g>
		<rect x="295" y="255" width="10" height="10"/>
	</g>
	<g>
		<rect x="295" y="265" width="10" height="10"/>
	</g>
	<g>
		<rect x="295" y="295" width="10" height="10"/>
	</g>
	<g>
		<rect x="295" y="305" width="10" height="10"/>
	</g>
	<g>
		<rect x="305" y="25" width="10" height="10"/>
	</g>
	<g>
		<rect x="305" y="35" width="10" height="10"/>
	</g>
	<g>
		<rect x="305" y="45" width="10" height="10"/>
	</g>
	<g>
		<rect x="305" y="55" width="10" height="10"/>
	</g>
	<g>
		<rect x="305" y="65" width="10" height="10"/>
	</g>
	<g>
		<rect x="305" y="75" width="10" height="10"/>
	</g>
	<g>
		<rect x="305" y="85" width="10" height="10"/>
	</g>
	<g>
		<rect x="305" y="125" width="10" height="10"/>
	</g>
	<g>
		<rect x="305" y="145" width="10" height="10"/>
	</g>
	<g>
		<rect x="305" y="155" width="10" height="10"/>
	</g>
	<g>
		<rect x="305" y="165" width="10" height="10"/>
	</g>
	<g>
		<rect x="305" y="195" width="10" height="10"/>
	</g>
	<g>
		<rect x="305" y="205" width="10" height="10"/>
	</g>
	<g>
		<rect x="305" y="225" width="10" height="10"/>
	</g>
	<g>
		<rect x="305" y="235" width="10" height="10"/>
	</g>
	<g>
		<rect x="305" y="245" width="10" height="10"/>
	</g>
	<g>
		<rect x="305" y="255" width="10" height="10"/>
	</g>
	<g>
		<rect x="305" y="265" width="10" height="10"/>
	</g>
	<g>
		<rect x="305" y="285" width="10" height="10"/>
	</g>
	<g>
		<rect x="305" y="305" width="10" height="10"/>
	</g>
</g>
</svg>
