<?xml version="1.0" encoding="UTF-8" standalone="no"?>
<!DOCTYPE svg PUBLIC "-//W3C//DTD SVG 1.1//EN" "http://www.w3.org/Graphics/SVG/1.1/DTD/svg11.dtd">
<svg width="100%" height="100%" viewBox="0 0 8334 1667" version="1.1" xmlns="http://www.w3.org/2000/svg" xmlns:xlink="http://www.w3.org/1999/xlink" xml:space="preserve" xmlns:serif="http://www.serif.com/" style="fill-rule:evenodd;clip-rule:evenodd;stroke-linejoin:round;stroke-miterlimit:1.41421;">
    <g id="V" transform="matrix(1,0,0,1,161.738,1360.16)">
        <path d="M1125.14,-869.641L1112.89,-873.146C1140.89,-918.641 1184.64,-976.391 1210.89,-1006.14L1205.64,-1007.89C1188.14,-1013.14 1161.89,-985.359 1144.39,-964.359C1139.14,-993.891 1172.39,-1023.64 1191.64,-1039.39C1160.14,-1065.64 1139.14,-1018.61 1116.39,-1020.36C1093.64,-988.859 983.391,-873.359 916.891,-819.109C902.891,-813.859 892.391,-819.109 899.391,-826.109C969.391,-889.035 1044.64,-971.34 1063.89,-997.609C1056.89,-1013.14 1030.64,-1016.64 1016.64,-1001.06L948.391,-927.561C859.141,-936.317 878.391,-868.021 804.891,-871.523C664.891,-684.148 523.141,-512.859 349.891,-355.359L321.891,-432.359C337.641,-483.109 349.891,-537.359 358.641,-591.609L377.891,-595.109C383.141,-645.859 346.391,-691.152 367.391,-750.692C360.391,-897.791 304.6,-1027.14 169.641,-1081.39C129.609,-1049.89 167.913,-981.847 166.184,-941.57C159.272,-838.251 127.859,-264.359 131.359,-164.609C133.109,-92.859 183.662,-43.859 213.459,8.641L321.891,45.391C514.391,-164.609 766.391,-400.859 902.891,-593.359C920.391,-617.859 932.641,-652.859 957.141,-652.859C988.641,-654.591 969.391,-741.936 1041.14,-733.181C1133.89,-792.859 1195.14,-939.749 1282.64,-1011.61C1280.89,-1020.31 1268.64,-1022.04 1258.14,-1015.09C1205.64,-971.283 1156.64,-908.195 1125.14,-869.641ZM311.578,-479.609L308.106,-451.609C295.837,-451.609 290.579,-465.609 292.331,-479.609L311.578,-479.609ZM962.391,-717.446C960.641,-694.667 950.141,-675.393 932.641,-673.641C925.641,-673.641 915.141,-675.393 904.641,-684.154L962.391,-717.446ZM315.016,-491.689L295.837,-498.645L302.848,-530.189C328.891,-530.189 315.016,-507.408 315.016,-491.689ZM1109.39,-847.109C1104.14,-836.597 1088.39,-812.066 1063.89,-792.791C1041.14,-775.269 1034.14,-801.552 1055.14,-812.066L1091.89,-848.843C1093.64,-852.309 1098.89,-841.853 1109.39,-847.109ZM1207.39,-1025.61C1214.39,-1025.61 1221.39,-1025.61 1224.89,-1020.35C1242.39,-1039.39 1251.14,-1046.39 1259.89,-1051.64C1254.64,-1060.39 1249.39,-1062.14 1244.14,-1062.14C1237.14,-1062.14 1228.39,-1056.89 1223.14,-1049.89C1216.14,-1041.19 1210.89,-1032.54 1207.39,-1025.61ZM1037.64,-713.942C1027.14,-720.95 1014.89,-715.694 1007.89,-698.172L1023.64,-684.154L1037.64,-713.942ZM850.391,-600.286C862.641,-593.277 864.391,-572.248 834.641,-540.704L824.141,-561.733L850.391,-600.286Z" style="fill:rgb(153,0,0);fill-rule:nonzero;"/>
    </g>
    <g id="ision.network" transform="matrix(1,0,0,1,1134.75,1361.95)">
        <path d="M352.86,-501.36C352.86,-521.526 338.193,-542.61 319.859,-549.943L319.859,-571.943C309.776,-574.693 300.609,-578.36 291.443,-578.36C281.359,-578.36 269.443,-572.86 263.943,-565.526C197.943,-444.526 27.557,-219.026 27.557,-54.141C39.462,-22.057 56.861,-0.974 77.923,14.609C78.891,4.526 81.641,-1.891 88.057,-7.391L88.057,21.943C102.687,30.193 117.317,36.609 133.776,42.109C129.204,23.776 135.609,-15.641 153.943,-58.724C180.526,-122.776 196.109,-185.109 228.193,-239.193C230.026,-241.943 239.193,-252.943 226.359,-248.359C193.359,-210.776 177.776,-139.276 156.693,-91.609C155.776,-88.859 149.359,-69.62 146.609,-70.526C134.699,-74.193 146.609,-88.859 149.359,-96.193C169.526,-148.443 185.109,-211.693 220.859,-263.026L256.609,-283.193L252.943,-294.193C295.109,-317.109 309.776,-381.276 334.526,-416.11L344.61,-416.11C349.193,-443.61 352.86,-476.61 352.86,-501.36ZM140.193,-55.057L127.375,-22.974C121.889,-13.807 119.146,-22.974 120.06,-25.724L130.118,-50.474C131.033,-53.224 127.375,-67.807 140.193,-55.057Z" style="fill:rgb(153,0,0);fill-rule:nonzero;"/>
        <path d="M758.943,-539.86C736.026,-542.61 705.862,-543.526 682.961,-543.526C566.468,-543.526 418.052,-468.433 412.557,-393.307C411.641,-374.057 422.631,-340.141 428.125,-310.807C432.704,-285.141 457.43,-263.141 470.25,-252.141C486.734,-264.057 497.723,-250.307 522.448,-217.307C538.95,-228.307 557.295,-187.974 580.227,-165.974L580.227,-156.807C521.533,-105.474 436.367,-80.724 393.307,-80.724C376.807,-80.724 352.974,-112.807 337.391,-125.641C322.724,-114.641 307.141,-100.891 307.141,-77.974C307.141,-67.891 315.391,-52.307 327.307,-35.807C322.724,-19.307 330.974,2.693 367.641,10.026C389.641,31.109 411.641,45.776 424.462,45.776C440.974,45.776 480.391,37.526 524.276,21.026C523.369,-3.724 538.952,-8.307 567.387,3.609C621.505,-20.224 674.706,-53.224 701.308,-89.891L716.793,-86.224L722.276,-159.557C724.11,-183.391 708.595,-218.224 682.044,-246.641L671.954,-240.224C644.436,-270.474 605.911,-283.307 566.468,-310.807L527.943,-338.307L527.943,-352.057C607.745,-408.891 654.526,-427.224 747.125,-427.224C756.274,-417.141 725.981,-416.224 745.295,-391.474C780.06,-398.807 811.193,-424.474 811.193,-443.724C811.193,-448.307 809.36,-452.891 804.776,-456.557C807.526,-491.391 791.039,-520.724 758.103,-528.974L758.943,-539.86ZM782.805,-385.974C794.698,-396.057 797.443,-396.974 797.443,-407.974L774.571,-392.391L782.805,-385.974ZM595.821,-406.141L527.943,-368.557C528.86,-383.224 562.799,-396.974 595.821,-407.057L595.821,-406.141ZM513.391,15.526L485.891,24.693L481.307,18.276L513.391,4.526L513.391,15.526Z" style="fill:rgb(153,0,0);fill-rule:nonzero;"/>
        <path d="M1154.94,-501.36C1154.94,-521.526 1140.28,-542.61 1121.94,-549.943L1121.94,-571.943C1111.86,-574.693 1102.69,-578.36 1093.53,-578.36C1083.44,-578.36 1071.53,-572.86 1066.03,-565.526C1000.03,-444.526 829.641,-219.026 829.641,-54.141C841.546,-22.057 858.945,-0.974 880.007,14.609C880.974,4.526 883.724,-1.891 890.141,-7.391L890.141,21.943C904.771,30.193 919.401,36.609 935.86,42.109C931.288,23.776 937.693,-15.641 956.026,-58.724C982.61,-122.776 998.193,-185.109 1030.28,-239.193C1032.11,-241.943 1041.28,-252.943 1028.44,-248.359C995.443,-210.776 979.86,-139.276 958.776,-91.609C957.86,-88.859 951.443,-69.62 948.693,-70.526C936.783,-74.193 948.693,-88.859 951.443,-96.193C971.61,-148.443 987.193,-211.693 1022.94,-263.026L1058.69,-283.193L1055.03,-294.193C1097.19,-317.109 1111.86,-381.276 1136.61,-416.11L1146.69,-416.11C1151.28,-443.61 1154.94,-476.61 1154.94,-501.36ZM942.276,-55.057L929.459,-22.974C923.973,-13.807 921.23,-22.974 922.144,-25.724L932.202,-50.474C933.116,-53.224 929.459,-67.807 942.276,-55.057Z" style="fill:rgb(153,0,0);fill-rule:nonzero;"/>
        <path d="M1704.03,-274.943C1704.03,-324.443 1692.11,-370.276 1656.36,-394.11C1618.78,-419.776 1573.86,-453.693 1573.86,-495.86C1545.44,-517.86 1532.61,-534.36 1506.03,-534.36C1437.37,-534.36 1159.64,-390.443 1159.64,-167.693C1159.64,-123.693 1166.97,-78.776 1188.95,-61.368C1212.76,-41.307 1252.15,-11.057 1284.2,9.109C1297.03,-0.974 1315.36,-6.474 1330.94,9.109C1356.61,0.859 1374.03,-5.557 1396.03,-12.891C1414.36,-19.307 1403.36,-40.391 1418.03,-49.557L1443.69,-33.974L1460.19,-39.474C1461.11,-43.141 1450.11,-46.807 1452.86,-49.557C1469.36,-53.191 1486.78,-52.283 1501.44,-59.551C1526.19,-71.443 1513.36,-81.526 1537.19,-96.193L1547.28,-87.026C1558.28,-101.693 1566.53,-113.609 1576.61,-123.693C1587.61,-126.443 1603.19,-121.859 1603.19,-135.609C1603.19,-145.693 1619.69,-153.943 1629.78,-153.943C1624.28,-164.026 1629.78,-167.693 1637.11,-169.526L1643.53,-157.609C1653.61,-157.609 1660.03,-167.693 1655.44,-176.859C1688.44,-203.443 1704.03,-244.693 1704.03,-274.943ZM1466.72,-62.276C1462.14,-60.459 1454.8,-57.734 1451.13,-60.459C1449.3,-62.276 1452.96,-68.693 1452.96,-71.443C1462.14,-71.443 1466.72,-68.693 1466.72,-62.276ZM1607.78,-305.193L1566.53,-251.109C1549.11,-229.109 1509.69,-209.859 1491.36,-202.526L1326.38,-133.776C1309.87,-127.359 1282.37,-125.526 1261.31,-123.693C1281.45,-186.943 1311.7,-239.193 1355.73,-260.276C1394.26,-320.93 1478.54,-376.807 1527.11,-376.807C1528.03,-376.807 1531.69,-369.479 1538.11,-369.479C1540.86,-369.479 1544.53,-371.311 1548.19,-374.976C1551.86,-378.639 1553.69,-373.143 1556.44,-364.899L1607.78,-305.193ZM1506.94,-89.176L1480.36,-75.436C1479.45,-85.512 1485.86,-90.092 1502.36,-98.336L1506.94,-89.176ZM1308.03,-236.656C1299.78,-237.572 1297.03,-242.152 1297.03,-247.648C1298.86,-257.724 1315.37,-270.549 1329.13,-262.305L1308.03,-236.656ZM1305.28,-12.23C1308.95,-15.894 1312.62,-16.81 1316.29,-17.726C1322.71,-17.726 1329.13,-13.146 1332.8,-7.607L1305.28,-12.23ZM1535.36,-105.665L1517.03,-94.672L1513.36,-104.749L1528.03,-120.321C1530.78,-118.489 1532.61,-108.413 1535.36,-105.665Z" style="fill:rgb(153,0,0);fill-rule:nonzero;"/>
        <path d="M2210.23,-334.553L2204.73,-338.193C2202.89,-339.109 2206.56,-344.61 2214.81,-358.36C2236.81,-390.443 2277.32,-456.443 2334.15,-512.36L2314.9,-509.61C2294.73,-502.276 2202.89,-367.526 2140.56,-259.474C2131.39,-297.057 2120.39,-354.693 2109.39,-382.193C2096.56,-416.11 2021.39,-462.86 1993.89,-472.943C1921.48,-398.693 1816.98,-303.474 1751.89,-145.807C1745.48,-128.391 1737.23,-118.307 1741.81,-89.891L1747.31,-49.557C1758.31,-44.057 1772.98,17.359 1799.56,17.359L1825.23,17.359C1866.48,-37.641 1907.73,-156.807 1953.56,-242.974L1950.81,-257.641C1974.64,-300.724 2006.73,-328.224 2035.14,-337.391L2039.73,-301.641C2045.23,-254.891 2024.14,-227.391 2046.14,-163.224C2052.56,-143.057 2045.23,-101.807 2047.98,-77.974C2056.23,-16.557 2061.73,6.359 2120.39,21.943L2125.89,9.109L2167.06,28.359C2196.39,-46.807 2227.56,-120.141 2250.47,-190.724C2253.22,-198.974 2266.97,-204.474 2266.97,-209.974C2272.47,-222.807 2270.64,-234.724 2275.22,-242.974C2297.22,-277.807 2316.47,-295.224 2318.31,-328.198C2323.81,-331.829 2327.47,-320.891 2332.97,-328.198C2379.72,-392.315 2464.86,-455.609 2512.53,-477.625L2486.86,-505.118C2481.36,-501.467 2463.94,-495.971 2457.53,-495.971L2455.69,-499.641L2474.03,-512.421C2458.44,-523.375 2432.89,-527.943 2399.89,-527.026C2380.64,-526.113 2362.31,-521.549 2352.22,-515.159C2298.4,-462.86 2236.81,-375.776 2210.23,-334.553ZM2341.48,-366.61L2322.23,-337.276C2313.07,-341.859 2327.73,-361.11 2335.07,-372.11C2336.9,-374.86 2343.32,-369.36 2341.48,-366.61ZM2322.89,-473.974C2328.39,-483.141 2333.89,-489.557 2338.47,-493.224L2345.81,-489.557L2330.22,-469.391C2326.56,-468.474 2323.81,-472.141 2322.89,-473.974ZM2445.72,-493.224C2447.54,-479.474 2439.32,-478.557 2430.16,-472.141L2428.33,-480.391L2445.72,-493.224ZM2267.23,-190.724C2256.09,-195.307 2255.16,-177.891 2254.23,-165.057L2262.61,-159.557L2267.23,-190.724ZM2365.17,-399.724L2348.7,-375.891C2347.78,-379.557 2345.95,-381.391 2340.46,-380.474L2358.77,-404.307C2363.34,-409.807 2367,-401.557 2365.17,-399.724ZM1996.64,-445.557C1990.23,-439.141 1980.14,-420.807 1969.14,-429.974L1989.31,-451.057L1996.64,-445.557Z" style="fill:rgb(153,0,0);fill-rule:nonzero;"/>
        <path d="M2502.44,-28.474C2488.71,-78.891 2457.57,-125.641 2428.26,-125.641C2392.54,-125.641 2355.89,-58.724 2377.88,-8.307L2368.72,3.609L2419.1,61.359C2452.07,50.359 2497.86,-7.391 2502.44,-28.474Z" style="fill:rgb(153,0,0);fill-rule:nonzero;"/>
        <path d="M3056.31,-334.553L3050.81,-338.193C3048.98,-339.109 3052.64,-344.61 3060.89,-358.36C3082.89,-390.443 3123.4,-456.443 3180.23,-512.36L3160.98,-509.61C3140.82,-502.276 3048.98,-367.526 2986.64,-259.474C2977.48,-297.057 2966.48,-354.693 2955.48,-382.193C2942.64,-416.11 2867.48,-462.86 2839.98,-472.943C2767.56,-398.693 2663.06,-303.474 2597.98,-145.807C2591.56,-128.391 2583.31,-118.307 2587.89,-89.891L2593.39,-49.557C2604.39,-44.057 2619.06,17.359 2645.64,17.359L2671.31,17.359C2712.56,-37.641 2753.81,-156.807 2799.64,-242.974L2796.89,-257.641C2820.73,-300.724 2852.81,-328.224 2881.23,-337.391L2885.81,-301.641C2891.31,-254.891 2870.23,-227.391 2892.23,-163.224C2898.64,-143.057 2891.31,-101.807 2894.06,-77.974C2902.31,-16.557 2907.81,6.359 2966.48,21.943L2971.98,9.109L3013.14,28.359C3042.47,-46.807 3073.64,-120.141 3096.56,-190.724C3099.31,-198.974 3113.06,-204.474 3113.06,-209.974C3118.56,-222.807 3116.72,-234.724 3121.31,-242.974C3143.31,-277.807 3162.56,-295.224 3164.39,-328.198C3169.89,-331.829 3173.56,-320.891 3179.06,-328.198C3225.81,-392.315 3310.94,-455.609 3358.61,-477.625L3332.94,-505.118C3327.44,-501.467 3310.03,-495.971 3303.61,-495.971L3301.78,-499.641L3320.11,-512.421C3304.53,-523.375 3278.97,-527.943 3245.97,-527.026C3226.72,-526.113 3208.39,-521.549 3198.31,-515.159C3144.48,-462.86 3082.89,-375.776 3056.31,-334.553ZM3187.57,-366.61L3168.32,-337.276C3159.15,-341.859 3173.82,-361.11 3181.15,-372.11C3182.98,-374.86 3189.4,-369.36 3187.57,-366.61ZM3168.97,-473.974C3174.47,-483.141 3179.97,-489.557 3184.56,-493.224L3191.89,-489.557L3176.31,-469.391C3172.64,-468.474 3169.89,-472.141 3168.97,-473.974ZM3291.81,-493.224C3293.62,-479.474 3285.4,-478.557 3276.25,-472.141L3274.42,-480.391L3291.81,-493.224ZM3113.31,-190.724C3102.17,-195.307 3101.24,-177.891 3100.31,-165.057L3108.7,-159.557L3113.31,-190.724ZM3211.26,-399.724L3194.78,-375.891C3193.87,-379.557 3192.03,-381.391 3186.54,-380.474L3204.85,-404.307C3209.43,-409.807 3213.09,-401.557 3211.26,-399.724ZM2842.73,-445.557C2836.31,-439.141 2826.23,-420.807 2815.23,-429.974L2835.39,-451.057L2842.73,-445.557Z" style="fill:rgb(153,0,0);fill-rule:nonzero;"/>
        <path d="M3790.28,-450.141C3789.36,-455.641 3783.86,-449.224 3780.19,-447.391C3754.53,-435.474 3731.61,-429.057 3704.11,-418.057C3697.69,-445.557 3723.36,-425.391 3760.03,-458.378C3761.86,-460.199 3760.03,-462.019 3758.19,-462.019C3745.36,-463.84 3723.36,-472.943 3713.28,-472.943C3703.19,-472.943 3694.94,-467.481 3690.36,-467.481L3682.11,-484.86C3661.94,-484.86 3617.94,-489.443 3602.36,-493.11C3615.19,-517.86 3619.78,-538.943 3618.86,-559.11C3607.03,-562.795 3558.44,-576.526 3541.03,-576.526C3508.94,-576.526 3482.36,-506.052 3436.53,-511.543C3420.03,-486.833 3419.11,-464.868 3423.69,-441.987C3356.81,-301.96 3300.97,-218.676 3299.14,-150.95C3295.47,-17.329 3371.45,31.109 3478.69,31.109C3534.61,31.109 3611.61,3.717 3671.19,-19.159C3684.03,-23.735 3691.36,-30.142 3696.86,-39.294C3701.44,-48.446 3695.03,-45.7 3692.28,-44.785C3647.36,-29.227 3596.94,-11.838 3560.28,-1.77C3542.86,2.804 3522.69,2.804 3508.94,-3.601C3560.19,-16.495 3617.03,-32.058 3662.86,-47.621C3665.61,-48.536 3667.44,-50.367 3664.69,-51.282C3658.28,-54.944 3648.19,-61.345 3642.69,-65.001L3705.03,-87.856C3712.36,-91.513 3726.11,-97.912 3724.28,-102.483C3723.36,-105.226 3719.69,-104.312 3716.94,-103.397C3671.11,-88.77 3600.53,-65.001 3540.94,-48.536C3528.11,-44.874 3523.53,-66.83 3509.78,-65.001C3509.78,-59.516 3501.53,-54.029 3495.11,-54.029L3489.61,-63.173C3463.03,-56.774 3419.94,-47.621 3391.53,-68.658C3392.44,-89.684 3413.53,-190.246 3437.36,-200.302C3483.19,-220.414 3619.78,-242.354 3675.69,-251.496L3682.11,-271.609C3672.94,-276.179 3668.36,-285.321 3672.03,-295.378C3652.78,-328.288 3644.53,-337.43 3617.94,-337.43C3591.36,-337.43 3515.28,-306.348 3478.61,-302.691C3494.19,-327.374 3507.03,-348.401 3517.11,-364.856C3597.78,-387.715 3683.03,-390.465 3766.44,-428.039C3775.61,-435.474 3792.11,-440.974 3790.28,-450.141ZM3714.19,-452.891L3697.69,-445.557L3694.94,-456.557C3700.44,-458.378 3713.28,-457.468 3714.19,-452.891ZM3395.28,-176.859C3397.11,-186.026 3400.78,-191.526 3412.69,-190.609C3409.03,-181.443 3401.69,-174.109 3396.19,-166.776L3395.28,-166.776L3395.28,-176.859ZM3385.9,-98.943L3381.27,-74.193C3374.2,-79.693 3375.11,-91.609 3378.78,-108.109L3385.9,-98.943ZM3661.11,-104.443C3662.94,-107.193 3662.03,-109.943 3658.36,-108.109C3624.44,-94.359 3582.28,-80.609 3540.11,-71.443C3551.11,-54.141 3583.19,-66.923 3608.86,-86.109C3626.28,-85.193 3650.11,-91.609 3661.11,-104.443ZM3501.61,-363.86L3486.03,-338.193L3474.11,-335.443L3489.69,-361.11L3501.61,-363.86ZM3468.61,-322.609L3459.44,-301.526L3447.53,-299.693C3450.28,-309.776 3462.19,-322.609 3468.61,-322.609ZM3402.61,-161.276L3389.78,-118.193L3383.36,-126.443L3393.44,-160.359L3402.61,-161.276Z" style="fill:rgb(153,0,0);fill-rule:nonzero;"/>
        <path d="M4133.31,-579.276C4048.06,-579.276 4088.39,-492.193 3995.81,-472.943C3939.89,-461.947 3854.64,-465.61 3818.89,-469.276C3809.72,-460.116 3806.06,-450.043 3806.06,-439.054C3806.06,-411.583 3822.56,-371.291 3836.31,-350.224C3865.64,-342.891 3868.39,-355.724 3908.72,-355.724L3980.22,-355.724C3934.39,-251.224 3882.14,-115.557 3882.14,-92.641C3882.14,-86.224 3885.81,-77.974 3889.47,-73.391C3893.14,-37.641 3891.31,-6.474 3915.14,1.776L3911.47,11.859C3927.06,15.526 3949.06,18.276 3971.06,16.443C3981.14,-24.807 3996.72,-72.474 4014.14,-120.141C4005.89,-121.974 4001.31,-119.224 3996.72,-110.974L3989.39,-115.557C3995.81,-131.141 4002.22,-147.641 4010.47,-165.057C4014.14,-157.724 4008.64,-140.307 4017.81,-140.307C4024.22,-140.307 4028.81,-160.474 4033.39,-172.391C4033.39,-179.724 4032.47,-187.057 4027.89,-198.974C4032.47,-213.641 4033.39,-233.807 4043.47,-235.641C4048.97,-236.557 4039.81,-218.224 4049.89,-217.307C4059.06,-216.391 4072.81,-253.057 4077.39,-272.307L4069.14,-276.891C4074.64,-281.474 4085.64,-292.474 4088.39,-300.724C4107.64,-358.471 4117.73,-370.376 4148.89,-374.038C4154.39,-381.364 4160.81,-385.943 4169.06,-385.027L4169.06,-374.954L4181.89,-374.954C4257.98,-407.92 4338.64,-400.594 4393.64,-411.583C4392.73,-413.414 4391.81,-416.161 4391.81,-418.908C4391.81,-422.571 4394.56,-425.318 4398.23,-425.318C4400.98,-425.318 4405.56,-424.403 4411.06,-421.656L4412.86,-416.161C4418.28,-417.993 4422.86,-419.824 4427.44,-422.571C4419.19,-436.307 4411.06,-460.116 4426.53,-473.86C4414.66,-506.86 4382.64,-523.36 4343.23,-533.443C4301.06,-527.943 4233.23,-513.276 4172.73,-500.443L4133.31,-579.276ZM4060.89,-255.807L4053.56,-239.307L4048.06,-245.724L4057.22,-262.224L4060.89,-255.807Z" style="fill:rgb(153,0,0);fill-rule:nonzero;"/>
        <path d="M5198.36,-477.641C5178.19,-501.36 5154.36,-456.557 5135.11,-456.557L5127.78,-459.307C5139.69,-467.557 5149.78,-479.441 5154.36,-488.526L5115.98,-494.943C5113.23,-503.193 5104.06,-511.443 5097.64,-512.36L5056.38,-480.342C5045.38,-483.943 5052.72,-493.11 5060.97,-501.36C5049.05,-501.36 5029.8,-499.526 5019.71,-497.693C4919.78,-483.043 4732.74,-188.891 4707.99,-188.891C4693.32,-188.891 4679.57,-214.557 4660.32,-216.391C4692.4,-253.974 4710.74,-315.391 4742.83,-358.474L4719.91,-437.307C4712.57,-462.057 4687.82,-485.776 4668.57,-485.776C4651.15,-485.776 4652.98,-450.141 4642.9,-434.557L4594.31,-362.141L4573.22,-354.807L4443.03,-176.974C4408.23,-203.557 4468.7,-312.641 4454.03,-380.474C4444.86,-421.61 4414.61,-498.61 4371.53,-519.693L4359.72,-510.529C4356.06,-416.132 4346.89,-307.072 4350.56,-212.675C4353.31,-127.444 4366.13,-55.959 4400.91,-15.634C4402.74,-19.3 4405.48,-20.217 4409.15,-20.217C4417.38,-20.217 4439.36,14.609 4449.44,14.609C4461.36,14.609 4541.11,-117.362 4587.86,-174.184C4608.14,-151.307 4625.56,-93.557 4637.48,-76.141L4663.14,-38.557L4668.64,-44.974C4687.89,-28.474 4694.31,10.943 4707.14,10.943C4740.14,10.943 4815.31,-98.141 4854.73,-142.141C4847.39,-154.057 4854.73,-165.057 4864.81,-180.641C4874.89,-196.224 4884.96,-211.807 4894.94,-204.474C4887.68,-192.557 4877.64,-180.641 4886.77,-176.057C4910.64,-211.807 4943.53,-237.474 4934.36,-275.057L4948.12,-263.141C4981.14,-294.307 5055.44,-371.307 5101.3,-413.474C5139.69,-412.557 5168.11,-452.891 5198.36,-477.641ZM5115.98,-452.891C5116.88,-439.141 5108.64,-438.224 5099.47,-431.807L5097.64,-440.057L5115.98,-452.891ZM5091.23,-436.391C5089.39,-419.891 5067.38,-407.057 5042.61,-387.807L5040.77,-396.974L5091.23,-436.391ZM4918.89,-256.724C4925.28,-251.224 4921.64,-246.641 4916.14,-238.391L4910.64,-244.807L4918.89,-256.724ZM4910.53,-230.141L4899.53,-212.724L4894.03,-218.224L4905.94,-234.724L4910.53,-230.141ZM4949.94,-285.141L4949.03,-285.141C4950.86,-296.141 4955.44,-329.141 4982.03,-315.391L4949.94,-285.141ZM4634.73,-402.474C4640.23,-393.307 4630.14,-378.641 4620.98,-366.724L4610.89,-364.891L4634.73,-402.474Z" style="fill:rgb(153,0,0);fill-rule:nonzero;"/>
        <path d="M5636.53,-274.943C5636.53,-324.443 5624.61,-370.276 5588.86,-394.11C5551.28,-419.776 5506.36,-453.693 5506.36,-495.86C5477.94,-517.86 5465.11,-534.36 5438.53,-534.36C5369.87,-534.36 5092.14,-390.443 5092.14,-167.693C5092.14,-123.693 5099.47,-78.776 5121.45,-61.368C5145.27,-41.307 5184.65,-11.057 5216.7,9.109C5229.53,-0.974 5247.86,-6.474 5263.44,9.109C5289.11,0.859 5306.53,-5.557 5328.53,-12.891C5346.86,-19.307 5335.86,-40.391 5350.53,-49.557L5376.19,-33.974L5392.69,-39.474C5393.61,-43.141 5382.61,-46.807 5385.36,-49.557C5401.86,-53.191 5419.28,-52.283 5433.94,-59.551C5458.69,-71.443 5445.86,-81.526 5469.69,-96.193L5479.78,-87.026C5490.78,-101.693 5499.03,-113.609 5509.11,-123.693C5520.11,-126.443 5535.69,-121.859 5535.69,-135.609C5535.69,-145.693 5552.19,-153.943 5562.28,-153.943C5556.78,-164.026 5562.28,-167.693 5569.61,-169.526L5576.03,-157.609C5586.11,-157.609 5592.53,-167.693 5587.94,-176.859C5620.94,-203.443 5636.53,-244.693 5636.53,-274.943ZM5399.23,-62.276C5394.64,-60.459 5387.3,-57.734 5383.63,-60.459C5381.8,-62.276 5385.47,-68.693 5385.47,-71.443C5394.64,-71.443 5399.23,-68.693 5399.23,-62.276ZM5540.28,-305.193L5499.03,-251.109C5481.61,-229.109 5442.19,-209.859 5423.86,-202.526L5258.88,-133.776C5242.37,-127.359 5214.87,-125.526 5193.81,-123.693C5213.96,-186.943 5244.2,-239.193 5288.23,-260.276C5326.76,-320.93 5411.04,-376.807 5459.61,-376.807C5460.53,-376.807 5464.19,-369.479 5470.61,-369.479C5473.36,-369.479 5477.03,-371.311 5480.69,-374.976C5484.36,-378.639 5486.19,-373.143 5488.94,-364.899L5540.28,-305.193ZM5439.44,-89.176L5412.86,-75.436C5411.95,-85.512 5418.36,-90.092 5434.86,-98.336L5439.44,-89.176ZM5240.53,-236.656C5232.28,-237.572 5229.53,-242.152 5229.53,-247.648C5231.36,-257.724 5247.87,-270.549 5261.63,-262.305L5240.53,-236.656ZM5237.78,-12.23C5241.45,-15.894 5245.12,-16.81 5248.79,-17.726C5255.21,-17.726 5261.63,-13.146 5265.3,-7.607L5237.78,-12.23ZM5467.86,-105.665L5449.53,-94.672L5445.86,-104.749L5460.53,-120.321C5463.28,-118.489 5465.11,-108.413 5467.86,-105.665Z" style="fill:rgb(153,0,0);fill-rule:nonzero;"/>
        <path d="M6109.64,-323.553C6143.56,-352.901 6169.23,-378.58 6193.91,-400.591C6201.22,-407.011 6205.78,-421.685 6205.78,-432.69C6205.78,-453.784 6198.48,-466.623 6180.23,-484.049C6178.39,-473.96 6170.14,-473.96 6162.81,-479.463C6165.56,-482.214 6169.23,-487.717 6170.14,-492.303L6152.73,-499.641C6152.73,-487.717 6138.06,-487.717 6125.23,-491.385L6131.64,-506C6115.14,-510.543 6099.56,-512.36 6079.39,-512.36C6047.31,-512.36 6010.64,-497.805 5982.23,-485.883C5968.48,-514.193 5993.23,-578.36 5918.06,-578.36C5828.23,-443.695 5677.89,-113.724 5677.89,-66.057C5677.89,-48.641 5708.14,-56.891 5686.14,-42.224L5699.89,-4.641C5707.23,14.609 5731.06,29.276 5748.48,29.276C5768.64,9.109 5793.39,-5.557 5798.89,-25.724C5803.48,-43.141 5786.06,-66.974 5791.56,-78.891C5804.39,-114.641 5841.98,-187.974 5865.81,-220.974C5920.81,-192.557 6043.64,-17.474 6088.56,26.526C6112.39,50.458 6151.81,66.914 6186.61,78.776C6255.39,78.776 6342.36,32.963 6390.94,-11.974C6389.11,-15.641 6385.44,-20.224 6381.78,-23.891C6353.36,-4.641 6316.69,21.943 6279.11,34.776C6274.53,35.693 6263.59,31.109 6270.86,28.359C6304.78,16.505 6339.61,-2.726 6348.78,-10.052C6354.28,-13.715 6335.94,-15.547 6324.03,-15.547L6322.19,-17.379C6339.61,-23.789 6356.11,-28.368 6373.53,-32.946C6366.19,-42.112 6351.53,-53.117 6341.44,-55.869C6321.28,-50.366 6275.44,-37.526 6232.42,-37.526C6143.56,-37.526 6047.31,-167.76 5960.23,-247.552C5987.73,-273.112 6014.31,-288.703 6028.06,-269.444C6074.81,-296.957 6060.14,-308.88 6099.56,-333.642L6109.64,-323.553ZM6119.73,-499.641L6115.14,-493.22L6085.81,-497.805C6092.23,-501.458 6109.64,-503.275 6119.73,-499.641ZM6259.06,32.943C6261.78,34.776 6263.59,39.359 6268.11,39.359L6268.11,40.276C6255.39,44.933 6234.26,51.378 6216.8,54.141C6195.74,47.609 6204.87,38.443 6217.72,42.109L6259.06,32.943ZM6017.06,-263.09C6012.48,-272.195 5996.89,-266.706 5986.81,-259.474L5992.31,-251.224L6017.06,-263.09ZM5809.89,-142.141L5783.31,-89.891L5778.73,-100.891L5805.31,-149.474L5809.89,-142.141Z" style="fill:rgb(153,0,0);fill-rule:nonzero;"/>
        <path d="M6911.61,-454.61C6897.95,-482.11 6879.66,-500.443 6865.92,-500.443C6846.68,-500.443 6780.73,-454.61 6754.16,-454.61L6753.25,-454.61C6759.66,-448.193 6755.08,-441.776 6748.67,-441.776C6745.92,-441.776 6743.17,-441.776 6736.76,-447.276C6736.76,-437.193 6730.35,-428.943 6721.19,-426.193L6717.52,-431.693C6646.08,-401.443 6582.87,-368.443 6509.37,-333.609C6496.52,-349.193 6577.38,-448.193 6577.38,-473.86C6577.38,-501.36 6558.14,-584.776 6505.7,-578.36C6425.86,-441.776 6325.03,-278.705 6260.88,-113.705L6269.05,-107.281C6254.47,-81.641 6245.31,-44.974 6247.14,-11.057C6251.73,-11.057 6256.31,-10.141 6259.98,-8.307C6257.23,0.859 6259.06,7.276 6263.61,13.693L6270.86,2.693C6273.62,8.193 6274.53,15.526 6274.53,24.693C6288.39,36.609 6305.81,43.026 6324.14,43.026C6335.14,-1.891 6349.76,-45.891 6368.03,-87.141C6347.94,-93.557 6355.19,-117.391 6366.19,-131.141L6376.28,-131.141C6369.86,-118.307 6373.53,-114.641 6379.03,-111.891C6391.86,-137.49 6404.69,-160.359 6419.36,-181.443C6502.94,-132.955 6573.71,-79.75 6642.41,-33.865L6644.24,-43.959C6692.79,-14.717 6766.99,33.859 6807.29,33.859C6828.36,33.859 6863.17,32.948 6886.07,29.305C6877.82,22.017 6860.42,15.641 6848.51,15.641C6795.38,15.641 6777.06,-30.194 6744.09,-51.301C6724.85,-47.63 6712.03,-52.219 6698.29,-65.984L6709.28,-75.161C6689.13,-88.009 6679.05,-84.338 6654.32,-104.528C6657.07,-107.281 6658.9,-109.116 6658.9,-111.869C6657.99,-121.046 6634.17,-126.552 6622.26,-132.955L6628.67,-137.49C6605.77,-158.549 6559.97,-195.267 6535.08,-223.724C6544.39,-227.333 6700.12,-296.047 6703.78,-296.047C6711.11,-296.047 6710.2,-287.891 6722.1,-287.891C6724.85,-287.891 6734.93,-287.891 6739.51,-302.443C6729.43,-297.859 6720.27,-296.047 6715.69,-301.526C6739.51,-315.276 6764.24,-325.359 6777.98,-339.109L6791.72,-329.026C6804.54,-346.443 6819.2,-358.36 6826.53,-358.36C6839.35,-358.36 6819.2,-348.276 6832.02,-348.276C6837.52,-348.276 6875.08,-396.86 6906.11,-393.193L6906.11,-440.86C6900.67,-440.86 6897.95,-439.026 6892.48,-444.526L6911.61,-454.61ZM6537.87,-234.617C6531.39,-230.943 6520.38,-227.333 6520.38,-236.454L6534.15,-242.883L6537.87,-234.617ZM6895.23,-457.36L6881.49,-450.943C6878.74,-456.443 6886.98,-465.61 6890.65,-468.36L6895.23,-457.36ZM6572.8,-261.254C6574.63,-249.313 6554.48,-243.802 6545.32,-239.209L6544.39,-248.395L6572.8,-261.254ZM6407.5,-185.17L6381.81,-142.026L6369.88,-142.026L6389.15,-173.237C6392.82,-179.662 6400.16,-186.088 6407.5,-185.17ZM6352.48,-80.667L6339.73,-53.136C6333.31,-58.643 6341.56,-80.667 6345.23,-86.174L6352.48,-80.667ZM6772.48,-311.609L6767.9,-318.943C6754.16,-311.609 6745.92,-304.276 6745.92,-299.693L6772.48,-311.609ZM6841.18,-20.191L6812.79,-29.276L6810.96,-22.008C6818.28,-15.637 6837.52,-15.637 6841.18,-20.191ZM6790.73,-56.875L6740.31,-81.526L6734.81,-74.193C6761.39,-57.786 6786.14,-48.641 6790.73,-56.875ZM6803.82,-33.859L6779.98,-42.109C6778.15,-38.443 6788.23,-27.543 6801.98,-26.641L6803.82,-33.859ZM6651.65,-296.026C6647.98,-285.943 6635.15,-274.943 6618.65,-274.026C6614.98,-274.026 6611.32,-274.943 6606.73,-275.859L6651.65,-296.026Z" style="fill:rgb(153,0,0);fill-rule:nonzero;"/>
    </g>
</svg>
