<?xml version="1.0" encoding="utf-8"?>
<!-- Generator: Adobe Illustrator 23.0.0, SVG Export Plug-In . SVG Version: 6.00 Build 0)  -->
<svg version="1.1" id="layer" xmlns="http://www.w3.org/2000/svg" xmlns:xlink="http://www.w3.org/1999/xlink" x="0px" y="0px"
	 viewBox="0 0 900 220" style="enable-background:new 0 0 900 220;" xml:space="preserve">
<style type="text/css">
	.st0{display:none;}
	.st1{font-family:'FloodStd';}
	.st2{font-size:220px;}
	.st3{font-size:93px;}
	.st4{font-family:'FiraCode-Light';}
	.st5{font-size:25px;}
	.st6{fill:#990000;}
	.st7{fill:#333333;}
</style>
<text transform="matrix(1 0 0 1 46.6001 165.7998)" class="st0 st1 st2">V</text>
<text transform="matrix(1 0 0 1 153.6001 166.4004)" class="st0 st1 st3">ision.network</text>
<text transform="matrix(1 0 0 1 459.606 204)" class="st0 st4 st5">We re-defined the Internet</text>
<g>
	<path class="st6" d="M204.8,38.2c1.3-0.9,2.9-0.7,3.1,0.4c-11,9-18.7,27.5-30.4,35c-9-1.1-6.6,9.9-10.6,10.1
		c-3.1,0-4.6,4.4-6.8,7.5c-17.2,24.2-48.8,53.9-73,80.3l-13.6-4.6c-3.7-6.6-10.1-12.8-10.3-21.8c-0.4-12.5,3.5-84.7,4.4-97.7
		c0.2-5.1-4.6-13.6,0.4-17.6c16.9,6.8,24,23.1,24.9,41.6c-2.6,7.5,2,13.2,1.3,19.6l-2.4,0.4c-1.1,6.8-2.6,13.6-4.6,20l3.5,9.7
		c21.8-19.8,39.6-41.4,57.2-64.9c9.2,0.4,6.8-8.1,18-7l8.6-9.2c1.8-2,5.1-1.5,5.9,0.4c-2.4,3.3-11.9,13.6-20.7,21.6
		c-0.9,0.9,0.4,1.5,2.2,0.9c8.4-6.8,22.2-21.3,25.1-25.3c2.9,0.2,5.5-5.7,9.5-2.4c-2.4,2-6.6,5.7-5.9,9.5c2.2-2.6,5.5-6.2,7.7-5.5
		l0.7,0.2c-3.3,3.7-8.8,11-12.3,16.7l1.5,0.4C192,51.6,198.2,43.7,204.8,38.2z M83.3,105.5c-0.2,1.8,0.4,3.5,2,3.5l0.4-3.5H83.3z
		 M84.7,99.1l-0.9,4l2.4,0.9C86.2,102,88,99.1,84.7,99.1z M150.2,95.2l1.3,2.6c3.7-4,3.5-6.6,2-7.5L150.2,95.2z M160.3,79.8
		c1.3,1.1,2.6,1.3,3.5,1.3c2.2-0.2,3.5-2.6,3.7-5.5L160.3,79.8z M175.3,79.8l-2-1.8c0.9-2.2,2.4-2.9,3.7-2L175.3,79.8z M183.9,59.1
		l-4.6,4.6c-2.6,1.3-1.8,4.6,1.1,2.4c3.1-2.4,5.1-5.5,5.7-6.8C184.8,60,184.1,58.7,183.9,59.1z M200.4,33.8c0.7-0.9,1.8-1.5,2.6-1.5
		c0.7,0,1.3,0.2,2,1.3c-1.1,0.7-2.2,1.5-4.4,4c-0.4-0.7-1.3-0.7-2.2-0.7C198.8,36,199.5,34.9,200.4,33.8z"/>
</g>
<g>
	<path class="st6" d="M188.6,124.2h-1c-2.5,3.5-4,10-8.3,12.4l0.4,1.1l-3.6,2c-3.6,5.2-5.2,11.6-7.3,16.9c-0.3,0.7-1.5,2.2-0.3,2.6
		c0.3,0.1,0.9-1.9,1-2.1c2.1-4.8,3.7-12.1,7.1-15.9c1.3-0.5,0.4,0.7,0.2,0.9c-3.3,5.5-4.8,11.8-7.5,18.3c-1.9,4.4-2.5,8.4-2,10.2
		c-1.7-0.6-3.2-1.2-4.6-2v-3c-0.7,0.6-0.9,1.2-1,2.2c-2.1-1.6-3.9-3.7-5.1-7c0-16.7,17.3-39.6,24-51.9c0.6-0.7,1.8-1.3,2.8-1.3
		c0.9,0,1.9,0.4,2.9,0.7v2.2c1.9,0.7,3.3,2.9,3.3,4.9C189.4,118,189,121.4,188.6,124.2z M166.8,161.3l-1,2.5
		c-0.1,0.3,0.2,1.2,0.7,0.3l1.3-3.3C166.5,159.5,166.9,161,166.8,161.3z"/>
	<path class="st6" d="M230.5,112.7c3.3,0.8,5,3.8,4.7,7.3c0.5,0.4,0.7,0.8,0.7,1.3c0,2-3.2,4.6-6.7,5.3c-2-2.5,1.1-2.6,0.2-3.6
		c-9.4,0-14.1,1.9-22.2,7.6v1.4l3.9,2.8c4,2.8,7.9,4.1,10.7,7.2l1-0.7c2.7,2.9,4.3,6.4,4.1,8.8l-0.6,7.4l-1.6-0.4
		c-2.7,3.7-8.1,7.1-13.6,9.5c-2.9-1.2-4.5-0.7-4.4,1.8c-4.5,1.7-8.5,2.5-10.1,2.5c-1.3,0-3.5-1.5-5.8-3.6c-3.7-0.7-4.6-3-4.1-4.7
		c-1.2-1.7-2-3.3-2-4.3c0-2.3,1.6-3.7,3.1-4.8c1.6,1.3,4,4.6,5.7,4.6c4.4,0,13-2.5,19-7.7v-0.9c-2.3-2.2-4.2-6.3-5.9-5.2
		c-2.5-3.3-3.6-4.7-5.3-3.5c-1.3-1.1-3.8-3.3-4.3-6c-0.6-3-1.7-6.4-1.6-8.4c0.6-7.6,15.6-15.3,27.4-15.3c2.3,0,5.4,0.1,7.7,0.4
		L230.5,112.7z M205.7,166.9l-3.3,1.4l0.5,0.7l2.8-0.9V166.9z M214,125.1c-3.3,1-6.8,2.4-6.9,3.9L214,125.1L214,125.1z M232.2,126.6
		l2.3-1.6c0,1.1-0.3,1.2-1.5,2.2L232.2,126.6z"/>
	<path class="st6" d="M268.1,124.2h-1c-2.5,3.5-4,10-8.3,12.4l0.4,1.1l-3.6,2c-3.6,5.2-5.2,11.6-7.3,16.9c-0.3,0.7-1.5,2.2-0.3,2.6
		c0.3,0.1,0.9-1.9,1-2.1c2.1-4.8,3.7-12.1,7.1-15.9c1.3-0.5,0.4,0.7,0.2,0.9c-3.3,5.5-4.8,11.8-7.5,18.3c-1.9,4.4-2.5,8.4-2,10.2
		c-1.7-0.6-3.2-1.2-4.7-2v-3c-0.7,0.6-0.9,1.2-1,2.2c-2.1-1.6-3.9-3.7-5.1-7c0-16.7,17.3-39.6,24-51.9c0.6-0.7,1.8-1.3,2.8-1.3
		c0.9,0,1.9,0.4,2.9,0.7v2.2c1.9,0.7,3.3,2.9,3.3,4.9C268.9,118,268.5,121.4,268.1,124.2z M246.3,161.3l-1,2.5
		c-0.1,0.3,0.2,1.2,0.7,0.3l1.3-3.3C246,159.5,246.4,161,246.3,161.3z"/>
	<path class="st6" d="M319.7,148.5c0.5,0.9-0.2,2-1.2,2l-0.7-1.2c-0.7,0.2-1.3,0.6-0.7,1.6c-1,0-2.7,0.8-2.7,1.9
		c0,1.4-1.6,0.9-2.7,1.2c-1,1-1.9,2.2-3,3.7l-1-0.9c-2.4,1.5-1.1,2.5-3.6,3.7c-1.5,0.7-3.3,0.7-4.9,1c-0.3,0.3,0.8,0.7,0.7,1
		l-1.7,0.6l-2.6-1.6c-1.5,0.9-0.4,3.1-2.2,3.7c-2.2,0.7-4,1.4-6.6,2.2c-1.6-1.6-3.4-1-4.7,0c-3.3-2-7.3-5.1-9.7-7.2
		c-2.2-1.8-3-6.3-3-10.8c0-22.6,28.2-37.2,35.2-37.2c2.7,0,4,1.7,6.9,3.9c0,4.3,4.6,7.7,8.4,10.3c3.6,2.4,4.8,7.1,4.8,12.1
		C324.6,141.6,323,145.8,319.7,148.5z M309.7,129.4c-0.3-0.8-0.5-1.4-0.8-1s-0.7,0.6-1,0.6c-0.7,0-1-0.7-1.1-0.7
		c-4.9,0-13.5,5.7-17.4,11.8c-4.5,2.1-7.5,7.4-9.6,13.9c2.1-0.2,4.9-0.4,6.6-1l16.7-7c1.9-0.7,5.9-2.7,7.6-4.9l4.2-5.5L309.7,129.4z
		 M286.6,139.8c-1.4-0.8-3.1,0.5-3.3,1.5c0,0.6,0.3,1,1.1,1.1L286.6,139.8z M287,165.7c-0.4-0.6-1-1-1.7-1c-0.4,0.1-0.7,0.2-1.1,0.6
		L287,165.7z M299.1,159.1c0,0.3-0.4,0.9-0.2,1.1c0.4,0.3,1.1,0,1.6-0.2C300.5,159.4,300.1,159.1,299.1,159.1z M304.2,156.4
		c-1.7,0.8-2.3,1.3-2.2,2.3l2.7-1.4L304.2,156.4z M306.8,154.2l-1.5,1.6l0.4,1l1.9-1.1C307.2,155.4,307,154.4,306.8,154.2z"/>
	<path class="st6" d="M390.4,114.1c1-0.7,2.9-1.1,4.8-1.2c3.3-0.1,6,0.4,7.5,1.5l-1.9,1.3l0.2,0.4c0.7,0,2.4-0.6,3-0.9l2.6,2.8
		c-4.8,2.2-13.5,8.6-18.2,15.2c-0.6,0.7-0.9-0.4-1.5,0c-0.2,3.3-2.1,5.1-4.4,8.6c-0.5,0.8-0.3,2-0.8,3.3c0,0.6-1.4,1.1-1.7,2
		c-2.3,7.2-5.5,14.6-8.5,22.2l-4.2-2l-0.6,1.3c-6-1.6-6.5-3.9-7.3-10.1c-0.3-2.4,0.5-6.6-0.2-8.6c-2.2-6.5-0.1-9.3-0.7-14l-0.5-3.6
		c-2.9,0.9-6.1,3.7-8.6,8.1l0.3,1.5c-4.7,8.7-8.8,20.8-13,26.4h-2.6c-2.7,0-4.2-6.2-5.3-6.8l-0.6-4.1c-0.5-2.9,0.4-3.9,1-5.7
		c6.6-16,17.2-25.7,24.6-33.2c2.8,1,10.4,5.8,11.7,9.2c1.1,2.8,2.2,8.6,3.2,12.5c6.3-11,15.6-24.6,17.7-25.4l2-0.3
		c-5.8,5.7-9.9,12.4-12.1,15.6c-0.8,1.4-1.2,2-1,2l0.6,0.4C378.7,128.3,384.9,119.4,390.4,114.1z M353.5,120.6l-2,2.1
		c1.1,0.9,2.1-0.9,2.8-1.6L353.5,120.6z M381.3,150.2l-0.8-0.6c0.1-1.3,0.2-3.1,1.3-2.6L381.3,150.2z M388.6,128.6
		c-0.7,1.1-2.2,3.1-1.3,3.5l2-3C389.4,128.9,388.8,128.4,388.6,128.6z M388.1,118.8l1.6-2l-0.7-0.4c-0.5,0.4-1,1-1.6,2
		C387.5,118.5,387.8,118.9,388.1,118.8z M391,125.4l-1.9,2.4c0.6-0.1,0.7,0.1,0.8,0.5l1.7-2.4C391.9,125.7,391.5,124.8,391,125.4z
		 M398.1,117.7l0.2,0.8c0.9-0.7,1.8-0.7,1.6-2.1L398.1,117.7z"/>
	<path class="st6" d="M397.2,172.6l-5.1-5.9l0.9-1.2c-2.2-5.1,1.5-11.9,5.1-11.9c3,0,6.1,4.7,7.5,9.9
		C405.2,165.7,400.5,171.5,397.2,172.6z"/>
	<path class="st6" d="M476.2,114.1c1-0.7,2.9-1.1,4.8-1.2c3.3-0.1,6,0.4,7.5,1.5l-1.9,1.3l0.2,0.4c0.7,0,2.4-0.6,3-0.9l2.6,2.8
		c-4.8,2.2-13.5,8.6-18.2,15.2c-0.6,0.7-0.9-0.4-1.5,0c-0.2,3.3-2.1,5.1-4.4,8.6c-0.5,0.8-0.3,2-0.8,3.3c0,0.6-1.4,1.1-1.7,2
		c-2.3,7.2-5.5,14.6-8.5,22.2l-4.2-2l-0.6,1.3c-6-1.6-6.5-3.9-7.3-10.1c-0.3-2.4,0.5-6.6-0.2-8.6c-2.2-6.5-0.1-9.3-0.7-14l-0.5-3.6
		c-2.9,0.9-6.1,3.7-8.6,8.1l0.3,1.5c-4.7,8.7-8.8,20.8-13,26.4h-2.6c-2.7,0-4.2-6.2-5.3-6.8l-0.6-4.1c-0.5-2.9,0.4-3.9,1-5.7
		c6.6-16,17.2-25.7,24.6-33.2c2.8,1,10.4,5.8,11.7,9.2c1.1,2.8,2.2,8.6,3.2,12.5c6.3-11,15.6-24.6,17.7-25.4l2-0.3
		c-5.8,5.7-9.9,12.4-12.1,15.6c-0.8,1.4-1.2,2-1,2l0.6,0.4C464.5,128.3,470.7,119.4,476.2,114.1z M439.4,120.6l-2,2.1
		c1.1,0.9,2.1-0.9,2.8-1.6L439.4,120.6z M467.1,150.2l-0.8-0.6c0.1-1.3,0.2-3.1,1.3-2.6L467.1,150.2z M474.4,128.6
		c-0.7,1.1-2.2,3.1-1.3,3.5l2-3C475.3,128.9,474.6,128.4,474.4,128.6z M474,118.8l1.6-2l-0.7-0.4c-0.5,0.4-1,1-1.6,2
		C473.3,118.5,473.6,118.9,474,118.8z M476.9,125.4l-1.9,2.4c0.6-0.1,0.7,0.1,0.8,0.5l1.7-2.4C477.7,125.7,477.3,124.8,476.9,125.4z
		 M483.9,117.7l0.2,0.8c0.9-0.7,1.8-0.7,1.6-2.1L483.9,117.7z"/>
	<path class="st6" d="M533.9,123c-8.5,3.8-17.1,4.1-25.3,6.4c-1,1.7-2.3,3.8-3.9,6.3c3.7-0.4,11.4-3.5,14.1-3.5
		c2.7,0,3.5,0.9,5.5,4.3c-0.4,1,0.1,2,1,2.4l-0.7,2c-5.7,0.9-19.5,3.2-24.2,5.2c-2.4,1-4.6,11.3-4.6,13.4c2.9,2.1,7.3,1.2,10,0.6
		l0.6,0.9c0.7,0,1.5-0.6,1.5-1.1c1.4-0.2,1.9,2,3.2,1.7c6-1.7,13.2-4.1,17.9-5.6c0.3-0.1,0.7-0.2,0.7,0.1c0.2,0.5-1.2,1.1-2,1.5
		l-6.3,2.3c0.6,0.4,1.6,1,2.2,1.4c0.3,0.1,0.1,0.3-0.2,0.4c-4.7,1.6-10.4,3.2-15.6,4.5c1.4,0.7,3.4,0.7,5.2,0.2
		c3.7-1,8.8-2.8,13.4-4.4c0.3-0.1,0.9-0.4,0.5,0.6c-0.6,0.9-1.3,1.6-2.6,2c-6,2.3-13.9,5.1-19.5,5.1c-10.9,0-18.6-4.9-18.2-18.5
		c0.2-6.9,5.9-15.3,12.6-29.6c-0.5-2.3-0.4-4.6,1.3-7.1c4.7,0.6,7.3-6.6,10.6-6.6c1.8,0,6.7,1.4,7.9,1.8c0.1,2-0.4,4.2-1.7,6.7
		c1.6,0.4,6,0.8,8.1,0.8l0.8,1.8c0.5,0,1.3-0.6,2.3-0.6c1,0,3.3,0.9,4.6,1.1c0.2,0,0.4,0.2,0.2,0.4c-3.7,3.3-6.3,1.3-5.7,4.1
		c2.8-1.1,5.1-1.8,7.7-3c0.4-0.2,0.9-0.8,1-0.3C536.5,121.7,534.8,122.2,533.9,123z M494.5,155.4c-0.4,1.7-0.5,2.9,0.3,3.4l0.5-2.5
		L494.5,155.4z M496,150.1l-1,3.4l0.7,0.8l1.3-4.4L496,150.1z M496.2,149.5L496.2,149.5c0.7-0.7,1.4-1.5,1.8-2.4
		c-1.2-0.1-1.6,0.5-1.8,1.4V149.5z M501.5,136l1.2-0.2l0.9-2.1C503,133.7,501.8,135,501.5,136z M505.8,129.8l-1.6,2.6l1.2-0.3
		l1.6-2.6L505.8,129.8z M517.9,157.7c-2.6,2-5.9,3.3-7,1.5c4.3-0.9,8.6-2.3,12-3.7c0.4-0.2,0.5,0.1,0.3,0.4
		C522.1,157.1,519.6,157.8,517.9,157.7z M526.6,120.1l0.3,1.1l1.7-0.7C528.5,120,527.2,119.9,526.6,120.1z"/>
	<path class="st6" d="M575.1,115.6c6.1-1.3,13-2.8,17.3-3.3c4,1,7.3,2.7,8.5,6c-1.6,1.4-0.7,3.8,0.1,5.2c-0.5,0.3-0.9,0.5-1.5,0.7
		l-0.2-0.6c-0.6-0.3-1-0.4-1.3-0.4c-0.4,0-0.7,0.3-0.7,0.7c0,0.3,0.1,0.6,0.2,0.7c-5.6,1.1-13.8,0.4-21.5,3.7h-1.3v-1
		c-0.8-0.1-1.5,0.4-2,1.1c-3.2,0.4-4.2,1.6-6.1,7.4c-0.3,0.8-1.4,2-2,2.4l0.8,0.5c-0.5,2-1.9,5.7-2.8,5.6c-1-0.1-0.1-2-0.7-1.9
		c-1,0.2-1.1,2.2-1.6,3.7c0.5,1.2,0.6,2,0.6,2.7c-0.5,1.2-0.9,3.3-1.6,3.3c-0.9,0-0.4-1.8-0.7-2.5c-0.8,1.8-1.5,3.4-2.1,5l0.7,0.5
		c0.5-0.8,0.9-1.1,1.8-0.9c-1.8,4.8-3.3,9.7-4.4,13.9c-2.2,0.2-4.5-0.1-6-0.5l0.4-1c-2.4-0.8-2.2-4-2.6-7.6c-0.4-0.5-0.7-1.3-0.7-2
		c0-2.3,5.3-16.1,10-26.7h-7.3c-4.1,0-4.4,1.3-7.3,0.6c-1.4-2.1-3.1-6.2-3.1-9c0-1.1,0.4-2.1,1.3-3.1c3.6,0.4,12.3,0.7,17.9-0.4
		c9.4-2,5.3-10.8,14-10.8L575.1,115.6z M563.4,139.8l-0.9,1.7l0.6,0.7l0.7-1.7L563.4,139.8z"/>
	<path class="st6" d="M669.3,124.5c-4.6,4.3-12.2,12.1-15.5,15.3l-1.4-1.2c0.9,3.8-2.4,6.4-4.8,10c-0.9-0.5,0.1-1.7,0.8-2.9
		c-1-0.7-2,0.8-3.1,2.4s-1.8,2.7-1,3.9c-4,4.5-11.6,15.5-15,15.5c-1.3,0-2-4-3.9-5.7l-0.6,0.7l-2.6-3.8c-1.2-1.8-3-7.6-5-10
		c-4.7,5.8-12.8,19.2-14,19.2c-1,0-3.3-3.5-4.1-3.5c-0.4,0-0.7,0.1-0.8,0.5c-3.5-4.1-4.8-11.3-5.1-20c-0.4-9.6,0.6-20.6,0.9-30.2
		l1.2-0.9c4.4,2.1,7.4,10,8.4,14.1c1.5,6.9-4.7,17.9-1.1,20.6l13.2-18l2.1-0.7l4.9-7.3c1-1.6,0.8-5.2,2.6-5.2c2,0,4.5,2.4,5.2,4.9
		l2.3,8c-3.3,4.4-5.1,10.6-8.4,14.4c2,0.2,3.3,2.8,4.8,2.8c2.5,0,21.5-29.9,31.6-31.3c1-0.2,3-0.4,4.2-0.4c-0.8,0.8-1.6,1.8-0.5,2.1
		l4.2-3.3c0.7,0.1,1.6,0.9,1.9,1.8l3.9,0.7c-0.5,0.9-1.5,2.1-2.7,3l0.7,0.3c2,0,4.4-4.6,6.4-2.1
		C676.1,120.5,673.2,124.5,669.3,124.5z M619.5,129.4l1-0.2c0.9-1.2,2-2.7,1.4-3.6L619.5,129.4z M649.5,142.6l-1.2,1.7l0.6,0.6
		l1.1-1.8L649.5,142.6z M649.9,141.6l0.6,0.7c0.6-0.8,0.9-1.3,0.3-1.9L649.9,141.6z M657.2,134.4c-2.7-1.4-3.2,2-3.3,3.1h0.1
		L657.2,134.4z M663.1,126.1l0.2,0.9c2.5-2,4.7-3.3,4.9-4.9L663.1,126.1z M668.9,121.8l0.2,0.8c0.9-0.7,1.8-0.7,1.7-2.1L668.9,121.8
		z"/>
	<path class="st6" d="M718.7,148.5c0.5,0.9-0.2,2-1.2,2l-0.7-1.2c-0.7,0.2-1.3,0.6-0.7,1.6c-1,0-2.7,0.8-2.7,1.9
		c0,1.4-1.6,0.9-2.7,1.2c-1,1-1.9,2.2-3,3.7l-1-0.9c-2.4,1.5-1.1,2.5-3.6,3.7c-1.5,0.7-3.3,0.7-4.9,1c-0.3,0.3,0.8,0.7,0.7,1
		l-1.7,0.6l-2.6-1.6c-1.5,0.9-0.4,3.1-2.2,3.7c-2.2,0.7-4,1.4-6.6,2.2c-1.6-1.6-3.4-1-4.7,0c-3.3-2-7.3-5.1-9.7-7.2
		c-2.2-1.8-3-6.3-3-10.8c0-22.6,28.2-37.2,35.2-37.2c2.7,0,4,1.7,6.9,3.9c0,4.3,4.6,7.7,8.4,10.3c3.6,2.4,4.8,7.1,4.8,12.1
		C723.6,141.6,722,145.8,718.7,148.5z M708.6,129.4c-0.3-0.8-0.5-1.4-0.8-1s-0.7,0.6-1,0.6c-0.7,0-1-0.7-1.1-0.7
		c-4.9,0-13.5,5.7-17.4,11.8c-4.5,2.1-7.5,7.4-9.6,13.9c2.1-0.2,4.9-0.4,6.6-1l16.7-7c1.9-0.7,5.9-2.7,7.6-4.9l4.2-5.5L708.6,129.4z
		 M685.6,139.8c-1.4-0.8-3.1,0.5-3.3,1.5c0,0.6,0.3,1,1.1,1.1L685.6,139.8z M685.9,165.7c-0.4-0.6-1-1-1.7-1
		c-0.4,0.1-0.7,0.2-1.1,0.6L685.9,165.7z M698.1,159.1c0,0.3-0.4,0.9-0.2,1.1c0.4,0.3,1.1,0,1.6-0.2
		C699.5,159.4,699,159.1,698.1,159.1z M703.1,156.4c-1.7,0.8-2.3,1.3-2.2,2.3l2.7-1.4L703.1,156.4z M705.7,154.2l-1.5,1.6l0.4,1
		l1.9-1.1C706.2,155.4,706,154.4,705.7,154.2z"/>
	<path class="st6" d="M770.6,132.5c-4,2.5-2.5,3.7-7.3,6.5c-1.4-2-4.1-0.4-6.9,2.2c8.8,8.1,18.6,21.3,27.6,21.3
		c4.4,0,9-1.3,11.1-1.9c1,0.3,2.5,1.4,3.3,2.3c-1.8,0.5-3.4,0.9-5.2,1.6l0.2,0.2c1.2,0,3.1,0.2,2.5,0.6c-0.9,0.7-4.5,2.7-7.9,3.9
		c-0.7,0.3,0.4,0.7,0.8,0.7c3.8-1.3,7.5-4,10.4-6c0.4,0.4,0.7,0.8,0.9,1.2c-4.9,4.6-13.8,9.2-20.7,9.2c-3.5-1.2-7.5-2.9-10-5.3
		c-4.6-4.5-17-22.2-22.6-25.1c-2.4,3.3-6.2,10.8-7.5,14.4c-0.6,1.2,1.2,3.6,0.7,5.4c-0.6,2-3.1,3.5-5.1,5.6c-1.8,0-4.2-1.5-4.9-3.4
		l-1.4-3.8c2.2-1.5-0.8-0.7-0.8-2.4c0-4.8,15.3-38.3,24.4-52c7.6,0,5.1,6.5,6.5,9.4c2.9-1.2,6.6-2.7,9.9-2.7c2,0,3.6,0.2,5.3,0.7
		l-0.7,1.5c1.3,0.4,2.8,0.4,2.8-0.8l1.8,0.7c-0.1,0.5-0.5,1-0.7,1.3c0.7,0.6,1.6,0.6,1.8-0.5c1.9,1.8,2.6,3.1,2.6,5.2
		c0,1.1-0.5,2.6-1.2,3.3c-2.5,2.2-5.1,4.8-8.6,7.8L770.6,132.5z M740.7,151.2l-2.7,4.9l0.5,1.1l2.7-5.3L740.7,151.2z M759.7,140.9
		l-0.6-0.8c1-0.7,2.6-1.3,3.1-0.4L759.7,140.9z M769.2,115.9l3,0.5l0.5-0.7C771.6,115.3,769.8,115.5,769.2,115.9z M782.6,170.7
		c-1.3-0.4-2.2,0.6-0.1,1.2c1.8-0.3,3.9-0.9,5.2-1.4v-0.1c-0.5,0-0.7-0.5-0.9-0.7L782.6,170.7z"/>
	<path class="st6" d="M851,121.3c0.6,0.6,0.8,0.4,1.4,0.4v4.8c-3.2-0.4-7,4.6-7.5,4.6c-1.3,0,0.7-1-0.6-1c-0.7,0-2.2,1.2-3.5,3
		l-1.4-1c-1.4,1.4-3.9,2.4-6.3,3.8c0.5,0.6,1.4,0.4,2.4-0.1c-0.5,1.5-1.5,1.5-1.8,1.5c-1.2,0-1.1-0.8-1.9-0.8
		c-0.4,0-16.2,7-17.1,7.3c2.5,2.9,7.2,6.6,9.5,8.7l-0.7,0.5c1.2,0.7,3.6,1.2,3.7,2.1c0,0.3-0.2,0.5-0.5,0.7c2.5,2,3.5,1.7,5.6,3
		l-1.1,0.9c1.4,1.4,2.7,1.9,4.7,1.5c3.3,2.1,5.2,6.8,10.6,6.8c1.2,0,3,0.7,3.8,1.4c-2.3,0.4-5.9,0.5-8,0.5c-4.1,0-11.6-4.9-16.6-7.9
		l-0.2,1c-7-4.6-14.1-10-22.6-15c-1.5,2.1-2.8,4.5-4.1,7.1c-0.6-0.3-0.9-0.7-0.3-2h-1c-1.1,1.4-1.9,3.8,0.2,4.5
		c-1.9,4.2-3.3,8.6-4.5,13.2c-1.9,0-3.6-0.7-5-1.9c0-0.9-0.1-1.7-0.4-2.2l-0.7,1.1c-0.5-0.7-0.7-1.3-0.4-2.2
		c-0.4-0.2-0.8-0.3-1.3-0.3c-0.2-3.4,0.7-7.2,2.2-9.8l-0.8-0.7c6.5-16.7,16.7-33.3,24.8-47.2c5.3-0.7,7.3,7.8,7.3,10.6
		c0,2.6-8.2,12.6-6.9,14.2c7.4-3.5,13.9-6.9,21.1-10l0.4,0.6c0.9-0.3,1.6-1.1,1.6-2.1c0.7,0.6,0.9,0.6,1.2,0.6
		c0.7,0,1.1-0.7,0.5-1.3h0.1c2.7,0,9.4-4.7,11.3-4.7c1.4,0,3.3,1.9,4.6,4.7L851,121.3z M795.5,157.7c-0.4,0.6-1.2,2.8-0.6,3.3
		l1.3-2.8L795.5,157.7z M799.9,148.8l-2,3.2h1.2l2.6-4.4C801.1,147.5,800.3,148.2,799.9,148.8z M814.6,141.8l-1.4,0.7
		c0,0.9,1.1,0.6,1.8,0.2L814.6,141.8z M815.7,141.2l0.1,0.9c0.9-0.5,3-1,2.8-2.2L815.7,141.2z M822,138.4c0.5,0.1,0.8,0.2,1.2,0.2
		c1.7-0.1,3-1.2,3.3-2.2L822,138.4z M835,158.9l0.6-0.7l5.1,2.5C840.2,161.5,837.7,160.5,835,158.9z M836.1,136c0-0.5,0.8-1.2,2.2-2
		l0.5,0.7L836.1,136z M841.8,163.7c-1.4-0.1-2.4-1.2-2.2-1.6l2.4,0.8L841.8,163.7z M842.7,164.2l0.2-0.7l2.9,0.9
		C845.4,164.8,843.5,164.8,842.7,164.2z M850.8,118.9c-0.4,0.3-1.2,1.2-0.9,1.8l1.4-0.7L850.8,118.9z"/>
</g>
<g>
	<path class="st7" d="M471.6,204h-2.4l-2.2-13.2l-2.2,13.2h-2.5l-2.6-17.2h1.7l2.2,15.1l2.3-13.1h2.4l2.2,13.1l2.4-15.1h1.5
		L471.6,204z"/>
	<path class="st7" d="M482.5,202.8c1.4,0,2.3-0.4,3.5-1.2l0.8,1.2c-1.2,0.9-2.8,1.5-4.3,1.5c-3.6,0-5.8-2.7-5.8-6.8
		c0-4,2.2-6.8,5.5-6.8c3.2,0,5.1,2.4,5.1,6.4c0,0.4,0,0.8,0,1h-8.9C478.5,201.4,480.4,202.8,482.5,202.8z M478.5,196.7h7.4
		c-0.1-3.1-1.5-4.6-3.6-4.6C480.3,192.1,478.7,193.6,478.5,196.7z"/>
	<path class="st7" d="M517.6,190.9l-0.2,4.1H516v-2.6l0-0.3h-0.3c-2.1,0-3.6,1.4-4.5,4.5v6.1h2.7v1.3h-6.4v-1.3h2.1v-10.5h-2.1v-1.3
		h3.3l0.3,3.1c1-2.1,2.3-3.4,4.8-3.4C516.5,190.6,517,190.7,517.6,190.9z"/>
	<path class="st7" d="M527.5,202.8c1.4,0,2.3-0.4,3.5-1.2l0.8,1.2c-1.2,0.9-2.8,1.5-4.3,1.5c-3.6,0-5.8-2.7-5.8-6.8
		c0-4,2.2-6.8,5.5-6.8c3.2,0,5.1,2.4,5.1,6.4c0,0.4,0,0.8,0,1h-8.9C523.5,201.4,525.4,202.8,527.5,202.8z M523.5,196.7h7.4
		c-0.1-3.1-1.5-4.6-3.6-4.6C525.3,192.1,523.7,193.6,523.5,196.7z"/>
	<path class="st7" d="M537.9,196.5h8.5v1.5h-8.5V196.5z"/>
	<path class="st7" d="M561.9,185.6V204h-1.3l-0.2-1.8c-1,1.5-2.4,2-3.7,2c-3.5,0-5.1-2.8-5.1-6.8c0-3.9,1.9-6.8,5.1-6.8
		c1.6,0,2.8,0.6,3.7,1.7v-6.9L561.9,185.6z M553.3,197.5c0,3.5,1.2,5.4,3.5,5.4c1.7,0,2.8-1.1,3.6-2.3v-6.8
		c-0.8-1.2-1.9-1.9-3.3-1.9C554.6,192,553.3,193.8,553.3,197.5z"/>
	<path class="st7" d="M572.5,202.8c1.4,0,2.3-0.4,3.5-1.2l0.8,1.2c-1.2,0.9-2.8,1.5-4.3,1.5c-3.6,0-5.8-2.7-5.8-6.8
		c0-4,2.2-6.8,5.5-6.8c3.2,0,5.1,2.4,5.1,6.4c0,0.4,0,0.8,0,1h-8.9C568.5,201.4,570.4,202.8,572.5,202.8z M568.5,196.7h7.4
		c-0.1-3.1-1.5-4.6-3.6-4.6C570.3,192.1,568.7,193.6,568.5,196.7z"/>
	<path class="st7" d="M593.2,186l-0.5,1.3c-0.8-0.4-1.8-0.6-2.8-0.6c-1.9,0-2.9,0.8-2.9,2.3v2.9h4.5l-0.1,1.3h-4.3V204h-1.5v-10.7
		h-3.3V192h3.3v-2.8c0-2.4,2.1-3.7,4.6-3.7C591.2,185.4,592.2,185.6,593.2,186z"/>
	<path class="st7" d="M603.6,202.7h3.8v1.3h-9.5v-1.3h4.1v-10.4h-4v-1.3h5.6V202.7z M603.4,186.2c0,0.8-0.5,1.3-1.3,1.3
		c-0.7,0-1.2-0.5-1.2-1.3c0-0.7,0.5-1.2,1.2-1.2C602.9,185,603.4,185.5,603.4,186.2z"/>
	<path class="st7" d="M612.3,190.9h1.3l0.2,1.9c1-1.4,2.9-2.2,4.4-2.2c2.7,0,3.7,1.4,3.7,3.9v9.5h-1.5v-7.8c0-3-0.3-4.2-2.5-4.2
		c-1.8,0-3.2,1.3-3.9,2.4v9.7h-1.5V190.9z"/>
	<path class="st7" d="M632.5,202.8c1.4,0,2.3-0.4,3.5-1.2l0.8,1.2c-1.2,0.9-2.8,1.5-4.3,1.5c-3.6,0-5.8-2.7-5.8-6.8
		c0-4,2.2-6.8,5.5-6.8c3.2,0,5.1,2.4,5.1,6.4c0,0.4,0,0.8,0,1h-8.9C628.5,201.4,630.4,202.8,632.5,202.8z M628.5,196.7h7.4
		c-0.1-3.1-1.5-4.6-3.6-4.6C630.3,192.1,628.7,193.6,628.5,196.7z"/>
	<path class="st7" d="M651.9,185.6V204h-1.3l-0.2-1.8c-1,1.5-2.4,2-3.7,2c-3.5,0-5.1-2.8-5.1-6.8c0-3.9,1.9-6.8,5.1-6.8
		c1.6,0,2.8,0.6,3.7,1.7v-6.9L651.9,185.6z M643.3,197.5c0,3.5,1.2,5.4,3.5,5.4c1.7,0,2.8-1.1,3.6-2.3v-6.8
		c-0.8-1.2-1.9-1.9-3.3-1.9C644.6,192,643.3,193.8,643.3,197.5z"/>
	<path class="st7" d="M679.1,204.3c-2.6,0-4.2-1.6-4.2-3.7v-8.4h-3.1v-1.3h3.1v-3l1.5-0.2v3.2h4.6l-0.2,1.3h-4.4v8.3
		c0,1.5,0.8,2.4,2.7,2.4c1,0,1.8-0.3,2.6-0.7l0.7,1.1C681.5,203.9,680.1,204.3,679.1,204.3z"/>
	<path class="st7" d="M688.9,192.8c1-1.4,2.7-2.2,4.3-2.2c2.6,0,3.7,1.4,3.7,3.9v9.5h-1.5v-9.8c0-1.6-0.8-2.3-2.6-2.3
		c-1.7,0-3.2,1.3-3.9,2.3v9.7h-1.6v-18.4l1.6-0.2V192.8z"/>
	<path class="st7" d="M707.5,202.8c1.4,0,2.3-0.4,3.5-1.2l0.8,1.2c-1.2,0.9-2.8,1.5-4.3,1.5c-3.6,0-5.8-2.7-5.8-6.8
		c0-4,2.2-6.8,5.5-6.8c3.2,0,5.1,2.4,5.1,6.4c0,0.4,0,0.8,0,1h-8.9C703.5,201.4,705.4,202.8,707.5,202.8z M703.5,196.7h7.4
		c-0.1-3.1-1.5-4.6-3.6-4.6C705.3,192.1,703.7,193.6,703.5,196.7z"/>
	<path class="st7" d="M741.8,188.2h-3.9v14.5h3.9v1.3h-9.4v-1.3h3.9v-14.5h-3.9v-1.3h9.4V188.2z"/>
	<path class="st7" d="M747.3,190.9h1.3l0.2,1.9c1-1.4,2.9-2.2,4.4-2.2c2.7,0,3.7,1.4,3.7,3.9v9.5h-1.5v-7.8c0-3-0.3-4.2-2.5-4.2
		c-1.8,0-3.2,1.3-3.9,2.4v9.7h-1.5V190.9z"/>
	<path class="st7" d="M769,204.3c-2.6,0-4.2-1.6-4.2-3.7v-8.4h-3.1v-1.3h3.1v-3l1.6-0.2v3.2h4.6l-0.2,1.3h-4.4v8.3
		c0,1.5,0.8,2.4,2.7,2.4c1,0,1.8-0.3,2.6-0.7l0.7,1.1C771.5,203.9,770.1,204.3,769,204.3z"/>
	<path class="st7" d="M782.5,202.8c1.4,0,2.3-0.4,3.5-1.2l0.8,1.2c-1.2,0.9-2.8,1.5-4.3,1.5c-3.6,0-5.8-2.7-5.8-6.8
		c0-4,2.2-6.8,5.5-6.8c3.2,0,5.1,2.4,5.1,6.4c0,0.4,0,0.8,0,1h-8.9C778.5,201.4,780.4,202.8,782.5,202.8z M778.5,196.7h7.4
		c-0.1-3.1-1.5-4.6-3.6-4.6C780.3,192.1,778.7,193.6,778.5,196.7z"/>
	<path class="st7" d="M802.6,190.9l-0.2,4.1h-1.5v-2.6l0-0.3h-0.3c-2.1,0-3.6,1.4-4.5,4.5v6.1h2.7v1.3h-6.4v-1.3h2.1v-10.5h-2.1
		v-1.3h3.3l0.3,3.1c1-2.1,2.3-3.4,4.8-3.4C801.5,190.6,802,190.7,802.6,190.9z"/>
	<path class="st7" d="M807.3,190.9h1.3l0.1,1.9c1-1.4,2.9-2.2,4.4-2.2c2.7,0,3.7,1.4,3.7,3.9v9.5h-1.5v-7.8c0-3-0.3-4.2-2.5-4.2
		c-1.8,0-3.3,1.3-3.9,2.4v9.7h-1.6V190.9z"/>
	<path class="st7" d="M827.5,202.8c1.4,0,2.3-0.4,3.5-1.2l0.8,1.2c-1.2,0.9-2.8,1.5-4.3,1.5c-3.6,0-5.8-2.7-5.8-6.8
		c0-4,2.2-6.8,5.5-6.8c3.2,0,5.1,2.4,5.1,6.4c0,0.4,0,0.8,0,1h-8.9C823.5,201.4,825.4,202.8,827.5,202.8z M823.5,196.7h7.4
		c-0.1-3.1-1.5-4.6-3.6-4.6C825.2,192.1,823.7,193.6,823.5,196.7z"/>
	<path class="st7" d="M844,204.3c-2.6,0-4.2-1.6-4.2-3.7v-8.4h-3.1v-1.3h3.1v-3l1.5-0.2v3.2h4.6l-0.2,1.3h-4.4v8.3
		c0,1.5,0.8,2.4,2.7,2.4c1,0,1.8-0.3,2.6-0.7l0.7,1.1C846.5,203.9,845.1,204.3,844,204.3z"/>
</g>
</svg>
